SplineFontDB: 3.2
FontName: YoungSerif-RegularItalic
FullName: Young Serif Italic
FamilyName: Young Serif Italic
Weight: Regular
Copyright: Copyright 2023 The Young Serif Project Authors \\(https://github.com/noirblancrouge/YoungSerif\\)
Version: 005.002
ItalicAngle: -11
UnderlinePosition: -125
UnderlineWidth: 50
Ascent: 800
Descent: 200
InvalidEm: 0
sfntRevision: 0x00050083
LayerCount: 2
Layer: 0 0 "Back" 1
Layer: 1 0 "Fore" 0
XUID: [1021 735 254010608 3607]
StyleMap: 0x0040
FSType: 0
OS2Version: 4
OS2_WeightWidthSlopeOnly: 0
OS2_UseTypoMetrics: 1
CreationTime: 1750244485
ModificationTime: 1752514939
PfmFamily: 17
TTFWeight: 400
TTFWidth: 5
LineGap: 0
VLineGap: 0
Panose: 2 2 7 4 4 4 6 0 2 3
OS2TypoAscent: 930
OS2TypoAOffset: 0
OS2TypoDescent: -275
OS2TypoDOffset: 0
OS2TypoLinegap: 0
OS2WinAscent: 1150
OS2WinAOffset: 0
OS2WinDescent: 275
OS2WinDOffset: 0
HheadAscent: 930
HheadAOffset: 0
HheadDescent: -275
HheadDOffset: 0
OS2SubXSize: 650
OS2SubYSize: 600
OS2SubXOff: 0
OS2SubYOff: 75
OS2SupXSize: 650
OS2SupYSize: 600
OS2SupXOff: 0
OS2SupYOff: 350
OS2StrikeYSize: 44
OS2StrikeYPos: 300
OS2CapHeight: 660
OS2XHeight: 440
OS2Vendor: 'NBR '
OS2CodePages: 00000001.00000000
OS2UnicodeRanges: 00000003.00000000.00000000.00000000
Lookup: 3 0 0 "'aalt' Access All Alternates in Latin lookup 0" { "'aalt' Access All Alternates in Latin lookup 0 subtable"  } ['aalt' ('DFLT' <'dflt' > 'latn' <'AZE ' 'CAT ' 'CRT ' 'KAZ ' 'MAH ' 'MOL ' 'NLD ' 'ROM ' 'TAT ' 'TRK ' 'dflt' > ) ]
Lookup: 1 0 0 "'smcp' Lowercase to Small Capitals in Latin lookup 1" { "'smcp' Lowercase to Small Capitals in Latin lookup 1 subtable"  } ['smcp' ('DFLT' <'dflt' > 'latn' <'AZE ' 'CAT ' 'CRT ' 'KAZ ' 'MAH ' 'MOL ' 'NLD ' 'ROM ' 'TAT ' 'TRK ' 'dflt' > ) ]
Lookup: 1 0 0 "'sinf' Scientific Inferiors in Latin lookup 2" { "'sinf' Scientific Inferiors in Latin lookup 2 subtable"  } ['sinf' ('DFLT' <'dflt' > 'latn' <'AZE ' 'CAT ' 'CRT ' 'KAZ ' 'MAH ' 'MOL ' 'NLD ' 'ROM ' 'TAT ' 'TRK ' 'dflt' > ) ]

StartChar: .notdef
Encoding: 1114112 -1 0
Width: 440
GlyphClass: 1
Flags: MW
HStem: 0 24.03 0 121 272 72 495 121 496 120 591.97 24.03
VStem: 0 30.69 0 62 189 62 378 62 409.31 30.69
LayerCount: 2
Fore
SplineSet
0 603 m 2x8620
 0 610 6 616 13 616 c 2
 427 616 l 2
 434 616 440 610 440 603 c 2
 440 13 l 2
 440 6 434 0 427 0 c 2
 13 0 l 2
 6 0 0 6 0 13 c 2
 0 603 l 2x8620
374.080078125 561.620117188 m 2xa540
 383.41015625 575.620117188 375.259765625 591.969726562 357.759765625 591.969726562 c 2
 82.259765625 591.969726562 l 2
 64.75 591.969726562 56.580078125 575.620117188 65.91015625 561.620117188 c 2
 204.8203125 352.66015625 l 2
 211.830078125 340.990234375 228.16015625 340.990234375 235.169921875 352.66015625 c 2
 374.080078125 561.620117188 l 2xa540
366.299804688 131.610351562 m 2x52a0
 379.189453125 111.169921875 409.309570312 121.931640625 409.309570312 145.591796875 c 2
 409.309570312 470.421875 l 2
 409.309570312 494.091796875 379.189453125 504.841796875 366.299804688 484.401367188 c 2
 253.359375 315.53125 l 2
 250.12890625 312.30078125 250.12890625 303.7109375 253.359375 300.48046875 c 2
 366.299804688 131.610351562 l 2x52a0
357.76953125 24.0419921875 m 2xa540
 375.26953125 24.0419921875 383.419921875 40.3916015625 374.08984375 54.3916015625 c 2
 235.1796875 263.3515625 l 2
 228.169921875 275.021484375 211.83984375 275.021484375 204.830078125 263.3515625 c 2
 65.919921875 54.3916015625 l 2
 56.58984375 40.3916015625 64.759765625 24.0419921875 82.26953125 24.0419921875 c 2
 357.76953125 24.0419921875 l 2xa540
30.6904296875 145.591796875 m 2x4aa0
 30.6904296875 121.931640625 60.810546875 111.169921875 73.7001953125 131.610351562 c 2
 186.640625 300.48046875 l 2
 189.860351562 303.7109375 189.860351562 312.30078125 186.640625 315.53125 c 2
 73.7001953125 484.401367188 l 2
 60.810546875 504.841796875 30.6904296875 495.162109375 30.6904296875 471.51171875 c 2
 30.6904296875 145.591796875 l 2x4aa0
EndSplineSet
EndChar

StartChar: A
Encoding: 65 65 4
Width: 655
GlyphClass: 2
Flags: MW
HStem: 640 20G<375.291 443.791 443.791 447.291>
AnchorPoint: "Anchor-6" 594 0 basechar 0
AnchorPoint: "Anchor-5" 408 660 basechar 0
AnchorPoint: "Anchor-4" 255 0 basechar 0
LayerCount: 2
Fore
SplineSet
561.75 97.75 m 2
 567.73046875 65.5 568.890625 38 600.890625 38 c 0
 612.890625 38 612.91015625 33 611.360351562 25 c 2
 609.030273438 13 l 2
 607.280273438 4 602.5 0 593.5 0 c 2
 376 0 l 2
 368 0 363.780273438 4 365.530273438 13 c 2
 367.860351562 25 l 2
 369.41015625 33 371.390625 38 383.390625 38 c 0
 437.390625 38 463.05078125 63.25 455.48046875 110.5 c 2
 437.020507812 226 l 1
 166.840820312 226 l 1
 98.560546875 104.5 l 2
 74.55078125 62 102.140625 38 150.890625 38 c 0
 162.890625 38 162.91015625 33 161.360351562 25 c 2
 159.030273438 13 l 2
 157.280273438 4 151.5 0 143.5 0 c 2
 -24 0 l 2
 -32 0 -36.2197265625 4 -34.4697265625 13 c 2
 -32.1396484375 25 l 2
 -30.58984375 33 -28.609375 38 -16.609375 38 c 0
 11.890625 38 28.6904296875 64 49.880859375 102.25 c 2
 358.150390625 649 l 2
 361.510742188 656 367.291015625 660 375.291015625 660 c 2
 443.791015625 660 l 2
 450.791015625 660 455.010742188 656 456.650390625 649 c 2
 561.75 97.75 l 2
192.450195312 273 m 1
 428.759765625 273 l 1
 372.08984375 593.700195312 l 1
 192.450195312 273 l 1
EndSplineSet
Substitution2: "Single Substitution lookup 36 subtable" ordfeminine
Substitution2: "'ss04' Style Set 4 in Latin lookup 33 subtable" u1F150
Substitution2: "'ss03' Style Set 3 in Latin lookup 31 subtable" uni24B6
Substitution2: "'c2sc' Capitals to Small Capitals in Latin lookup 11 subtable" A.sc
AlternateSubs2: "'aalt' Access All Alternates in Latin lookup 0 subtable" ordfeminine A.sc uni24B6 u1F150
Position2: "'cpsp' Capital Spacing in Latin lookup 0 subtable" dx=5 dy=0 dh=10 dv=0
EndChar

StartChar: Aacute
Encoding: 193 193 5
Width: 655
GlyphClass: 2
Flags: MW
HStem: 640 20G<375.291 443.791 443.791 447.291> 717 161
VStem: 359 178
AnchorPoint: "Anchor-6" 594 0 basechar 0
AnchorPoint: "Anchor-5" 486 899 basechar 0
AnchorPoint: "Anchor-4" 255 0 basechar 0
LayerCount: 2
Fore
SplineSet
561.75 97.75 m 2
 567.73046875 65.5 568.890625 38 600.890625 38 c 0
 612.890625 38 612.91015625 33 611.360351562 25 c 2
 609.030273438 13 l 2
 607.280273438 4 602.5 0 593.5 0 c 2
 376 0 l 2
 368 0 363.780273438 4 365.530273438 13 c 2
 367.860351562 25 l 2
 369.41015625 33 371.390625 38 383.390625 38 c 0
 437.390625 38 463.05078125 63.25 455.48046875 110.5 c 2
 437.020507812 226 l 1
 166.840820312 226 l 1
 98.560546875 104.5 l 2
 74.55078125 62 102.140625 38 150.890625 38 c 0
 162.890625 38 162.91015625 33 161.360351562 25 c 2
 159.030273438 13 l 2
 157.280273438 4 151.5 0 143.5 0 c 2
 -24 0 l 2
 -32 0 -36.2197265625 4 -34.4697265625 13 c 2
 -32.1396484375 25 l 2
 -30.58984375 33 -28.609375 38 -16.609375 38 c 0
 11.890625 38 28.6904296875 64 49.880859375 102.25 c 2
 358.150390625 649 l 2
 361.510742188 656 367.291015625 660 375.291015625 660 c 2
 443.791015625 660 l 2
 450.791015625 660 455.010742188 656 456.650390625 649 c 2
 561.75 97.75 l 2
359.219726562 729.150390625 m 1
 423.389648438 793.55078125 439.930664062 815.62109375 471.810546875 865.87109375 c 0
 478.30078125 875.87109375 489.060546875 878.361328125 500.120117188 878.361328125 c 0
 529.16015625 878.361328125 541.08984375 864.041015625 536.189453125 838.831054688 c 0
 525.759765625 785.161132812 451.330078125 748.840820312 396.629882812 719.860351562 c 0
 392.700195312 717.860351562 388.709960938 716.30078125 385.629882812 716.500976562 c 0
 382.629882812 716.750976562 378.479492188 718.630859375 373.549804688 721.350585938 c 2
 359.219726562 729.150390625 l 1
192.451171875 273.020507812 m 1
 428.760742188 273.020507812 l 1
 372.090820312 593.720703125 l 1
 192.451171875 273.020507812 l 1
EndSplineSet
Substitution2: "'c2sc' Capitals to Small Capitals in Latin lookup 11 subtable" Aacute.sc
AlternateSubs2: "'aalt' Access All Alternates in Latin lookup 0 subtable" Aacute.sc
Position2: "'cpsp' Capital Spacing in Latin lookup 0 subtable" dx=5 dy=0 dh=10 dv=0
EndChar

StartChar: Abreve
Encoding: 258 258 6
Width: 655
GlyphClass: 2
Flags: MW
HStem: 640 20G<375.291 443.791 443.791 447.291>
VStem: 309 257
AnchorPoint: "Anchor-6" 594 0 basechar 0
AnchorPoint: "Anchor-5" 439 820 basechar 0
AnchorPoint: "Anchor-4" 255 0 basechar 0
LayerCount: 2
Fore
SplineSet
561.75 97.75 m 2
 567.73046875 65.5 568.890625 38 600.890625 38 c 0
 612.890625 38 612.91015625 33 611.360351562 25 c 2
 609.030273438 13 l 2
 607.280273438 4 602.5 0 593.5 0 c 2
 376 0 l 2
 368 0 363.780273438 4 365.530273438 13 c 2
 367.860351562 25 l 2
 369.41015625 33 371.390625 38 383.390625 38 c 0
 437.390625 38 463.05078125 63.25 455.48046875 110.5 c 2
 437.020507812 226 l 1
 166.840820312 226 l 1
 98.560546875 104.5 l 2
 74.55078125 62 102.140625 38 150.890625 38 c 0
 162.890625 38 162.91015625 33 161.360351562 25 c 2
 159.030273438 13 l 2
 157.280273438 4 151.5 0 143.5 0 c 2
 -24 0 l 2
 -32 0 -36.2197265625 4 -34.4697265625 13 c 2
 -32.1396484375 25 l 2
 -30.58984375 33 -28.609375 38 -16.609375 38 c 0
 11.890625 38 28.6904296875 64 49.880859375 102.25 c 2
 358.150390625 649 l 2
 361.510742188 656 367.291015625 660 375.291015625 660 c 2
 443.791015625 660 l 2
 450.791015625 660 455.010742188 656 456.650390625 649 c 2
 561.75 97.75 l 2
417.709960938 711 m 0
 326.959960938 711 303.129882812 780.78125 310.08984375 816.630859375 c 0
 312.040039062 826.630859375 318.009765625 830.470703125 328.009765625 831.630859375 c 0
 335.709960938 832.48046875 351.190429688 833.80078125 358.950195312 834.3203125 c 0
 370.950195312 835.3203125 374.110351562 831.950195312 372.530273438 818.990234375 c 0
 368.530273438 782.370117188 387.75 759.370117188 427.110351562 759.370117188 c 0
 466.709960938 759.370117188 494.870117188 782.370117188 505.100585938 818.990234375 c 0
 508.310546875 831.950195312 513.030273438 835.3203125 524.650390625 834.3203125 c 0
 531.959960938 833.799804688 547.1796875 832.479492188 554.290039062 831.629882812 c 0
 563.83984375 830.469726562 568.3203125 826.629882812 566.379882812 816.629882812 c 0
 559.41015625 780.780273438 508.709960938 711 417.709960938 711 c 0
192.450195312 273.000976562 m 1
 428.759765625 273.000976562 l 1
 372.08984375 593.701171875 l 1
 192.450195312 273.000976562 l 1
EndSplineSet
Substitution2: "'c2sc' Capitals to Small Capitals in Latin lookup 11 subtable" Abreve.sc
AlternateSubs2: "'aalt' Access All Alternates in Latin lookup 0 subtable" Abreve.sc
Position2: "'cpsp' Capital Spacing in Latin lookup 0 subtable" dx=5 dy=0 dh=10 dv=0
EndChar

StartChar: uni1EAE
Encoding: 7854 7854 7
Width: 655
GlyphClass: 2
Flags: MW
HStem: 640 20G<375.291 443.791 443.791 447.291> 877 161
VStem: 309 257 390 178
AnchorPoint: "Anchor-6" 594 0 basechar 0
AnchorPoint: "Anchor-5" 517 1059 basechar 0
AnchorPoint: "Anchor-4" 255 0 basechar 0
LayerCount: 2
Fore
SplineSet
561.75 97.75 m 2xe0
 567.73046875 65.5 568.890625 38 600.890625 38 c 0
 612.890625 38 612.91015625 33 611.360351562 25 c 2
 609.030273438 13 l 2
 607.280273438 4 602.5 0 593.5 0 c 2
 376 0 l 2
 368 0 363.780273438 4 365.530273438 13 c 2
 367.860351562 25 l 2
 369.41015625 33 371.390625 38 383.390625 38 c 0
 437.390625 38 463.05078125 63.25 455.48046875 110.5 c 2
 437.020507812 226 l 1
 166.840820312 226 l 1
 98.560546875 104.5 l 2
 74.55078125 62 102.140625 38 150.890625 38 c 0
 162.890625 38 162.91015625 33 161.360351562 25 c 2
 159.030273438 13 l 2
 157.280273438 4 151.5 0 143.5 0 c 2
 -24 0 l 2
 -32 0 -36.2197265625 4 -34.4697265625 13 c 2
 -32.1396484375 25 l 2
 -30.58984375 33 -28.609375 38 -16.609375 38 c 0
 11.890625 38 28.6904296875 64 49.880859375 102.25 c 2
 358.150390625 649 l 2
 361.510742188 656 367.291015625 660 375.291015625 660 c 2
 443.791015625 660 l 2
 450.791015625 660 455.010742188 656 456.650390625 649 c 2
 561.75 97.75 l 2xe0
417.709960938 711 m 0
 326.959960938 711 303.129882812 780.78125 310.08984375 816.630859375 c 0
 312.040039062 826.630859375 318.009765625 830.470703125 328.009765625 831.630859375 c 0
 335.709960938 832.48046875 351.190429688 833.80078125 358.950195312 834.3203125 c 0
 370.950195312 835.3203125 374.110351562 831.950195312 372.530273438 818.990234375 c 0
 368.530273438 782.370117188 387.75 759.370117188 427.110351562 759.370117188 c 0
 466.709960938 759.370117188 494.870117188 782.370117188 505.100585938 818.990234375 c 0
 508.310546875 831.950195312 513.030273438 835.3203125 524.650390625 834.3203125 c 0
 531.959960938 833.799804688 547.1796875 832.479492188 554.290039062 831.629882812 c 0
 563.83984375 830.469726562 568.3203125 826.629882812 566.379882812 816.629882812 c 0
 559.41015625 780.780273438 508.709960938 711 417.709960938 711 c 0
390.25 888.810546875 m 1xd0
 454.4296875 953.220703125 470.970703125 975.279296875 502.860351562 1025.52929688 c 0
 509.350585938 1035.52929688 520.110351562 1038.01953125 531.169921875 1038.01953125 c 0
 560.200195312 1038.01953125 572.140625 1023.69921875 567.240234375 998.489257812 c 0xe0
 556.810546875 944.809570312 482.380859375 908.5 427.680664062 879.520507812 c 0
 423.740234375 877.520507812 419.760742188 875.9609375 416.670898438 876.170898438 c 0
 413.670898438 876.420898438 409.520507812 878.30078125 404.580078125 881.020507812 c 2
 390.25 888.810546875 l 1xd0
192.4609375 273.009765625 m 1
 428.770507812 273.009765625 l 1
 372.100585938 593.709960938 l 1
 192.4609375 273.009765625 l 1
EndSplineSet
Substitution2: "'c2sc' Capitals to Small Capitals in Latin lookup 11 subtable" uni1EAE.sc
AlternateSubs2: "'aalt' Access All Alternates in Latin lookup 0 subtable" uni1EAE.sc
Position2: "'cpsp' Capital Spacing in Latin lookup 0 subtable" dx=5 dy=0 dh=10 dv=0
EndChar

StartChar: uni1EB6
Encoding: 7862 7862 8
Width: 655
GlyphClass: 2
Flags: MW
HStem: -180 124 640 20G<375.291 443.791 443.791 447.291>
VStem: 176 125 309 257
AnchorPoint: "Anchor-6" 594 0 basechar 0
AnchorPoint: "Anchor-5" 439 820 basechar 0
AnchorPoint: "Anchor-4" 255 0 basechar 0
LayerCount: 2
Fore
SplineSet
561.75 97.75 m 2
 567.73046875 65.5 568.890625 38 600.890625 38 c 0
 612.890625 38 612.91015625 33 611.360351562 25 c 2
 609.030273438 13 l 2
 607.280273438 4 602.5 0 593.5 0 c 2
 376 0 l 2
 368 0 363.780273438 4 365.530273438 13 c 2
 367.860351562 25 l 2
 369.41015625 33 371.390625 38 383.390625 38 c 0
 437.390625 38 463.05078125 63.25 455.48046875 110.5 c 2
 437.020507812 226 l 1
 166.840820312 226 l 1
 98.560546875 104.5 l 2
 74.55078125 62 102.140625 38 150.890625 38 c 0
 162.890625 38 162.91015625 33 161.360351562 25 c 2
 159.030273438 13 l 2
 157.280273438 4 151.5 0 143.5 0 c 2
 -24 0 l 2
 -32 0 -36.2197265625 4 -34.4697265625 13 c 2
 -32.1396484375 25 l 2
 -30.58984375 33 -28.609375 38 -16.609375 38 c 0
 11.890625 38 28.6904296875 64 49.880859375 102.25 c 2
 358.150390625 649 l 2
 361.510742188 656 367.291015625 660 375.291015625 660 c 2
 443.791015625 660 l 2
 450.791015625 660 455.010742188 656 456.650390625 649 c 2
 561.75 97.75 l 2
249.799804688 -55.7197265625 m 0
 264.859375 -58.6396484375 276 -66.6591796875 288.129882812 -84.6494140625 c 0
 300.26953125 -102.649414062 303.719726562 -115.0390625 300.790039062 -130.098632812 c 0
 297.860351562 -145.158203125 288.890625 -156.118164062 272.030273438 -167.48828125 c 0
 254.030273438 -179.618164062 240.700195312 -182.887695312 225.640625 -179.958007812 c 0
 211.520507812 -177.217773438 201.3203125 -169.377929688 188.25 -151.208007812 c 0
 175.9296875 -134.158203125 172.66015625 -120.828125 175.58984375 -105.768554688 c 0
 178.51953125 -90.708984375 186.359375 -80.5087890625 204.359375 -68.369140625 c 0
 222.349609375 -56.2392578125 235.6796875 -52.9697265625 249.799804688 -55.7197265625 c 0
417.7109375 711.010742188 m 0
 326.9609375 711.010742188 303.131835938 780.791015625 310.091796875 816.640625 c 0
 312.041992188 826.640625 318.01171875 830.48046875 328.01171875 831.640625 c 0
 335.711914062 832.490234375 351.192382812 833.810546875 358.952148438 834.330078125 c 0
 370.952148438 835.330078125 374.112304688 831.959960938 372.532226562 819 c 0
 368.532226562 782.379882812 387.751953125 759.379882812 427.112304688 759.379882812 c 0
 466.711914062 759.379882812 494.872070312 782.379882812 505.102539062 819 c 0
 508.3125 831.959960938 513.032226562 835.330078125 524.65234375 834.330078125 c 0
 531.961914062 833.810546875 547.181640625 832.490234375 554.291992188 831.640625 c 0
 563.841796875 830.48046875 568.321289062 826.640625 566.380859375 816.640625 c 0
 559.411132812 780.791015625 508.7109375 711.010742188 417.7109375 711.010742188 c 0
192.452148438 273.010742188 m 1
 428.76171875 273.010742188 l 1
 372.091796875 593.7109375 l 1
 192.452148438 273.010742188 l 1
EndSplineSet
Substitution2: "'c2sc' Capitals to Small Capitals in Latin lookup 11 subtable" uni1EB6.sc
AlternateSubs2: "'aalt' Access All Alternates in Latin lookup 0 subtable" uni1EB6.sc
Position2: "'cpsp' Capital Spacing in Latin lookup 0 subtable" dx=5 dy=0 dh=10 dv=0
EndChar

StartChar: uni1EB0
Encoding: 7856 7856 9
Width: 655
GlyphClass: 2
Flags: MW
HStem: 640 20G<375.291 443.791 443.791 447.291> 877 161
VStem: 309 257 317 178
AnchorPoint: "Anchor-6" 594 0 basechar 0
AnchorPoint: "Anchor-5" 460 1059 basechar 0
AnchorPoint: "Anchor-4" 255 0 basechar 0
LayerCount: 2
Fore
SplineSet
561.75 97.75 m 2xd0
 567.73046875 65.5 568.890625 38 600.890625 38 c 0
 612.890625 38 612.91015625 33 611.360351562 25 c 2
 609.030273438 13 l 2
 607.280273438 4 602.5 0 593.5 0 c 2
 376 0 l 2
 368 0 363.780273438 4 365.530273438 13 c 2
 367.860351562 25 l 2
 369.41015625 33 371.390625 38 383.390625 38 c 0
 437.390625 38 463.05078125 63.25 455.48046875 110.5 c 2
 437.020507812 226 l 1
 166.840820312 226 l 1
 98.560546875 104.5 l 2
 74.55078125 62 102.140625 38 150.890625 38 c 0
 162.890625 38 162.91015625 33 161.360351562 25 c 2
 159.030273438 13 l 2
 157.280273438 4 151.5 0 143.5 0 c 2
 -24 0 l 2
 -32 0 -36.2197265625 4 -34.4697265625 13 c 2
 -32.1396484375 25 l 2
 -30.58984375 33 -28.609375 38 -16.609375 38 c 0
 11.890625 38 28.6904296875 64 49.880859375 102.25 c 2
 358.150390625 649 l 2
 361.510742188 656 367.291015625 660 375.291015625 660 c 2
 443.791015625 660 l 2
 450.791015625 660 455.010742188 656 456.650390625 649 c 2
 561.75 97.75 l 2xd0
417.709960938 711 m 0
 326.959960938 711 303.129882812 780.78125 310.08984375 816.630859375 c 0
 312.040039062 826.630859375 318.009765625 830.470703125 328.009765625 831.630859375 c 0
 335.709960938 832.48046875 351.190429688 833.80078125 358.950195312 834.3203125 c 0
 370.950195312 835.3203125 374.110351562 831.950195312 372.530273438 818.990234375 c 0
 368.530273438 782.370117188 387.75 759.370117188 427.110351562 759.370117188 c 0
 466.709960938 759.370117188 494.870117188 782.370117188 505.100585938 818.990234375 c 0
 508.310546875 831.950195312 513.030273438 835.3203125 524.650390625 834.3203125 c 0
 531.959960938 833.799804688 547.1796875 832.479492188 554.290039062 831.629882812 c 0
 563.83984375 830.469726562 568.3203125 826.629882812 566.379882812 816.629882812 c 0xe0
 559.41015625 780.780273438 508.709960938 711 417.709960938 711 c 0
480.799804688 881.021484375 m 2
 475.859375 878.301757812 471.719726562 876.412109375 468.719726562 876.162109375 c 0
 465.639648438 875.952148438 461.649414062 877.51171875 457.719726562 879.51171875 c 0
 403.01953125 908.4921875 328.58984375 944.801757812 318.149414062 998.481445312 c 0
 313.249023438 1023.69140625 325.189453125 1038.01171875 354.219726562 1038.01171875 c 0
 365.290039062 1038.01171875 376.040039062 1035.52148438 382.540039062 1025.52148438 c 0
 414.419921875 975.271484375 430.959960938 953.221679688 495.129882812 888.811523438 c 1xd0
 480.799804688 881.021484375 l 2
192.450195312 272.9921875 m 1
 428.759765625 272.9921875 l 1
 372.08984375 593.692382812 l 1
 192.450195312 272.9921875 l 1
EndSplineSet
Substitution2: "'c2sc' Capitals to Small Capitals in Latin lookup 11 subtable" uni1EB0.sc
AlternateSubs2: "'aalt' Access All Alternates in Latin lookup 0 subtable" uni1EB0.sc
Position2: "'cpsp' Capital Spacing in Latin lookup 0 subtable" dx=5 dy=0 dh=10 dv=0
EndChar

StartChar: uni1EB2
Encoding: 7858 7858 10
Width: 655
GlyphClass: 2
Flags: MW
HStem: 640 20G<375.291 443.791 443.791 447.291> 978 62
VStem: 309 257 476 56
AnchorPoint: "Anchor-6" 594 0 basechar 0
AnchorPoint: "Anchor-5" 494 1106 basechar 0
AnchorPoint: "Anchor-4" 255 0 basechar 0
LayerCount: 2
Fore
SplineSet
561.75 97.75 m 2xd0
 567.73046875 65.5 568.890625 38 600.890625 38 c 0
 612.890625 38 612.91015625 33 611.360351562 25 c 2
 609.030273438 13 l 2
 607.280273438 4 602.5 0 593.5 0 c 2
 376 0 l 2
 368 0 363.780273438 4 365.530273438 13 c 2
 367.860351562 25 l 2
 369.41015625 33 371.390625 38 383.390625 38 c 0
 437.390625 38 463.05078125 63.25 455.48046875 110.5 c 2
 437.020507812 226 l 1
 166.840820312 226 l 1
 98.560546875 104.5 l 2
 74.55078125 62 102.140625 38 150.890625 38 c 0
 162.890625 38 162.91015625 33 161.360351562 25 c 2
 159.030273438 13 l 2
 157.280273438 4 151.5 0 143.5 0 c 2
 -24 0 l 2
 -32 0 -36.2197265625 4 -34.4697265625 13 c 2
 -32.1396484375 25 l 2
 -30.58984375 33 -28.609375 38 -16.609375 38 c 0
 11.890625 38 28.6904296875 64 49.880859375 102.25 c 2
 358.150390625 649 l 2
 361.510742188 656 367.291015625 660 375.291015625 660 c 2
 443.791015625 660 l 2
 450.791015625 660 455.010742188 656 456.650390625 649 c 2
 561.75 97.75 l 2xd0
417.709960938 711 m 0
 326.959960938 711 303.129882812 780.78125 310.08984375 816.630859375 c 0
 312.040039062 826.630859375 318.009765625 830.470703125 328.009765625 831.630859375 c 0
 335.709960938 832.48046875 351.190429688 833.80078125 358.950195312 834.3203125 c 0
 370.950195312 835.3203125 374.110351562 831.950195312 372.530273438 818.990234375 c 0
 368.530273438 782.370117188 387.75 759.370117188 427.110351562 759.370117188 c 0
 466.709960938 759.370117188 494.870117188 782.370117188 505.100585938 818.990234375 c 0
 508.310546875 831.950195312 513.030273438 835.3203125 524.650390625 834.3203125 c 0
 531.959960938 833.799804688 547.1796875 832.479492188 554.290039062 831.629882812 c 0
 563.83984375 830.469726562 568.3203125 826.629882812 566.379882812 816.629882812 c 0xe0
 559.41015625 780.780273438 508.709960938 711 417.709960938 711 c 0
478.349609375 879.560546875 m 0
 468.069335938 868.850585938 437.188476562 890.837890625 444.358398438 899.318359375 c 0
 456.768554688 914.55859375 472.348632812 928.96875 476.37890625 949.708984375 c 0
 480.499023438 970.869140625 469.018554688 977.979492188 454.978515625 977.979492188 c 0
 435.87890625 977.979492188 419.338867188 961.08984375 416.05859375 969.3203125 c 0
 410.8984375 982.419921875 403.388671875 996.879882812 408.518554688 1012.75976562 c 0
 411.578125 1022.83007812 444.98828125 1040.41992188 475.73828125 1040.41992188 c 0
 529.508789062 1040.41992188 538.869140625 998.650390625 532.649414062 966.669921875 c 0xd0
 527.439453125 939.830078125 507.69921875 909.650390625 478.349609375 879.560546875 c 0
192.448242188 272.98828125 m 1
 428.7578125 272.98828125 l 1
 372.087890625 593.688476562 l 1
 192.448242188 272.98828125 l 1
EndSplineSet
Substitution2: "'c2sc' Capitals to Small Capitals in Latin lookup 11 subtable" uni1EB2.sc
AlternateSubs2: "'aalt' Access All Alternates in Latin lookup 0 subtable" uni1EB2.sc
Position2: "'cpsp' Capital Spacing in Latin lookup 0 subtable" dx=5 dy=0 dh=10 dv=0
EndChar

StartChar: uni1EB4
Encoding: 7860 7860 11
Width: 655
GlyphClass: 2
Flags: MW
HStem: 640 20G<375.291 443.791 443.791 447.291> 884 51 968 50
VStem: 309 257 321 57 552 56
AnchorPoint: "Anchor-6" 594 0 basechar 0
AnchorPoint: "Anchor-5" 475 1005 basechar 0
AnchorPoint: "Anchor-4" 255 0 basechar 0
LayerCount: 2
Fore
SplineSet
561.75 97.75 m 2xf0
 567.73046875 65.5 568.890625 38 600.890625 38 c 0
 612.890625 38 612.91015625 33 611.360351562 25 c 2
 609.030273438 13 l 2xe4
 607.280273438 4 602.5 0 593.5 0 c 2
 376 0 l 2
 368 0 363.780273438 4 365.530273438 13 c 2
 367.860351562 25 l 2
 369.41015625 33 371.390625 38 383.390625 38 c 0
 437.390625 38 463.05078125 63.25 455.48046875 110.5 c 2
 437.020507812 226 l 1
 166.840820312 226 l 1
 98.560546875 104.5 l 2
 74.55078125 62 102.140625 38 150.890625 38 c 0
 162.890625 38 162.91015625 33 161.360351562 25 c 2
 159.030273438 13 l 2
 157.280273438 4 151.5 0 143.5 0 c 2
 -24 0 l 2
 -32 0 -36.2197265625 4 -34.4697265625 13 c 2
 -32.1396484375 25 l 2
 -30.58984375 33 -28.609375 38 -16.609375 38 c 0
 11.890625 38 28.6904296875 64 49.880859375 102.25 c 2
 358.150390625 649 l 2
 361.510742188 656 367.291015625 660 375.291015625 660 c 2
 443.791015625 660 l 2
 450.791015625 660 455.010742188 656 456.650390625 649 c 2
 561.75 97.75 l 2xf0
417.709960938 711 m 0
 326.959960938 711 303.129882812 780.78125 310.08984375 816.630859375 c 0
 312.040039062 826.630859375 318.009765625 830.470703125 328.009765625 831.630859375 c 0
 335.709960938 832.48046875 351.190429688 833.80078125 358.950195312 834.3203125 c 0
 370.950195312 835.3203125 374.110351562 831.950195312 372.530273438 818.990234375 c 0
 368.530273438 782.370117188 387.75 759.370117188 427.110351562 759.370117188 c 0
 466.709960938 759.370117188 494.870117188 782.370117188 505.100585938 818.990234375 c 0
 508.310546875 831.950195312 513.030273438 835.3203125 524.650390625 834.3203125 c 0
 531.959960938 833.799804688 547.1796875 832.479492188 554.290039062 831.629882812 c 0
 563.83984375 830.469726562 568.3203125 826.629882812 566.379882812 816.629882812 c 0xf0
 559.41015625 780.780273438 508.709960938 711 417.709960938 711 c 0
485.23046875 964.9609375 m 0
 495.23046875 942.840820312 505.18359375 934.930664062 519.233398438 934.930664062 c 0
 537.233398438 934.930664062 550.763671875 949.220703125 554.353515625 967.680664062 c 0
 556.50390625 978.740234375 556.423828125 990.48046875 551.744140625 1002.62011719 c 1
 562.014648438 1010.46972656 576.364257812 1018.9296875 587.564453125 1018.9296875 c 0
 601.264648438 1018.9296875 613.82421875 993.259765625 608.07421875 963.6796875 c 0xe4
 598.474609375 914.299804688 557.154296875 884.4296875 519.4140625 884.4296875 c 0
 465.763671875 884.4296875 452.833984375 913.540039062 443.713867188 936.98046875 c 0
 435.2734375 960.350585938 424.79296875 968.430664062 410.743164062 968.430664062 c 0
 392.743164062 968.430664062 377.842773438 952.23046875 374.432617188 934.680664062 c 0
 372.22265625 923.310546875 373.083007812 911.590820312 377.922851562 899.661132812 c 1
 367.6328125 891.840820312 353.172851562 883.430664062 341.22265625 883.430664062 c 0
 328.2421875 883.430664062 314.961914062 909.081054688 320.51171875 937.680664062 c 0xe8
 330.291992188 987.9609375 372.551757812 1017.93066406 410.361328125 1017.93066406 c 0
 463.130859375 1017.93066406 476.510742188 986.930664062 485.23046875 964.9609375 c 0
192.453125 273.010742188 m 1
 428.762695312 273.010742188 l 1
 372.092773438 593.7109375 l 1
 192.453125 273.010742188 l 1
EndSplineSet
Substitution2: "'c2sc' Capitals to Small Capitals in Latin lookup 11 subtable" uni1EB4.sc
AlternateSubs2: "'aalt' Access All Alternates in Latin lookup 0 subtable" uni1EB4.sc
Position2: "'cpsp' Capital Spacing in Latin lookup 0 subtable" dx=5 dy=0 dh=10 dv=0
EndChar

StartChar: uni01CD
Encoding: 461 461 12
Width: 655
GlyphClass: 2
Flags: MW
HStem: 640 20G<375.291 443.791 443.791 447.291> 722 146
VStem: 305 267
AnchorPoint: "Anchor-6" 594 0 basechar 0
AnchorPoint: "Anchor-5" 450 845 basechar 0
AnchorPoint: "Anchor-4" 255 0 basechar 0
LayerCount: 2
Fore
SplineSet
561.75 97.75 m 2
 567.73046875 65.5 568.890625 38 600.890625 38 c 0
 612.890625 38 612.91015625 33 611.360351562 25 c 2
 609.030273438 13 l 2
 607.280273438 4 602.5 0 593.5 0 c 2
 376 0 l 2
 368 0 363.780273438 4 365.530273438 13 c 2
 367.860351562 25 l 2
 369.41015625 33 371.390625 38 383.390625 38 c 0
 437.390625 38 463.05078125 63.25 455.48046875 110.5 c 2
 437.020507812 226 l 1
 166.840820312 226 l 1
 98.560546875 104.5 l 2
 74.55078125 62 102.140625 38 150.890625 38 c 0
 162.890625 38 162.91015625 33 161.360351562 25 c 2
 159.030273438 13 l 2
 157.280273438 4 151.5 0 143.5 0 c 2
 -24 0 l 2
 -32 0 -36.2197265625 4 -34.4697265625 13 c 2
 -32.1396484375 25 l 2
 -30.58984375 33 -28.609375 38 -16.609375 38 c 0
 11.890625 38 28.6904296875 64 49.880859375 102.25 c 2
 358.150390625 649 l 2
 361.510742188 656 367.291015625 660 375.291015625 660 c 2
 443.791015625 660 l 2
 450.791015625 660 455.010742188 656 456.650390625 649 c 2
 561.75 97.75 l 2
432.299804688 787.059570312 m 1
 459.689453125 824.83984375 501.860351562 867.250976562 545.8203125 867.250976562 c 0
 568.950195312 867.250976562 575.400390625 844.890625 570.450195312 819.440429688 c 0
 568.200195312 807.880859375 565.48046875 797.850585938 556.25 794.000976562 c 0
 508.23046875 777.03125 482.850585938 765.470703125 419.560546875 721.510742188 c 1
 373.350585938 765.470703125 352.4609375 777.030273438 311.041015625 794 c 0
 303.30078125 797.849609375 304.48046875 807.879882812 306.73046875 819.439453125 c 0
 311.680664062 844.889648438 326.8203125 867.25 349.950195312 867.25 c 0
 393.91015625 867.25 419.58984375 824.83984375 432.299804688 787.059570312 c 1
192.451171875 273.000976562 m 1
 428.760742188 273.000976562 l 1
 372.090820312 593.701171875 l 1
 192.451171875 273.000976562 l 1
EndSplineSet
Substitution2: "'c2sc' Capitals to Small Capitals in Latin lookup 11 subtable" uni01CD.sc
AlternateSubs2: "'aalt' Access All Alternates in Latin lookup 0 subtable" uni01CD.sc
Position2: "'cpsp' Capital Spacing in Latin lookup 0 subtable" dx=5 dy=0 dh=10 dv=0
EndChar

StartChar: Acircumflex
Encoding: 194 194 13
Width: 655
GlyphClass: 2
Flags: MW
HStem: 640 20G<375.291 443.791 443.791 447.291> 715 146
VStem: 294 267
AnchorPoint: "Anchor-7" 427 759 basechar 0
AnchorPoint: "Anchor-6" 594 0 basechar 0
AnchorPoint: "Anchor-5" 438 816 basechar 0
AnchorPoint: "Anchor-4" 255 0 basechar 0
LayerCount: 2
Fore
SplineSet
561.75 97.75 m 2
 567.73046875 65.5 568.890625 38 600.890625 38 c 0
 612.890625 38 612.91015625 33 611.360351562 25 c 2
 609.030273438 13 l 2
 607.280273438 4 602.5 0 593.5 0 c 2
 376 0 l 2
 368 0 363.780273438 4 365.530273438 13 c 2
 367.860351562 25 l 2
 369.41015625 33 371.390625 38 383.390625 38 c 0
 437.390625 38 463.05078125 63.25 455.48046875 110.5 c 2
 437.020507812 226 l 1
 166.840820312 226 l 1
 98.560546875 104.5 l 2
 74.55078125 62 102.140625 38 150.890625 38 c 0
 162.890625 38 162.91015625 33 161.360351562 25 c 2
 159.030273438 13 l 2
 157.280273438 4 151.5 0 143.5 0 c 2
 -24 0 l 2
 -32 0 -36.2197265625 4 -34.4697265625 13 c 2
 -32.1396484375 25 l 2
 -30.58984375 33 -28.609375 38 -16.609375 38 c 0
 11.890625 38 28.6904296875 64 49.880859375 102.25 c 2
 358.150390625 649 l 2
 361.510742188 656 367.291015625 660 375.291015625 660 c 2
 443.791015625 660 l 2
 450.791015625 660 455.010742188 656 456.650390625 649 c 2
 561.75 97.75 l 2
434.120117188 795.440429688 m 1
 406.73046875 757.66015625 364.551757812 715.249023438 320.6015625 715.249023438 c 0
 297.471679688 715.249023438 291.021484375 737.609375 295.961914062 763.059570312 c 0
 298.211914062 774.619140625 300.931640625 784.649414062 310.162109375 788.499023438 c 0
 358.181640625 805.46875 383.571289062 817.029296875 446.861328125 860.989257812 c 1
 493.061523438 817.029296875 513.951171875 805.469726562 555.380859375 788.5 c 0
 563.110351562 784.650390625 561.930664062 774.620117188 559.680664062 763.060546875 c 0
 554.740234375 737.610351562 539.600585938 715.25 516.4609375 715.25 c 0
 472.510742188 715.25 446.8203125 757.66015625 434.120117188 795.440429688 c 1
192.451171875 272.999023438 m 1
 428.760742188 272.999023438 l 1
 372.090820312 593.69921875 l 1
 192.451171875 272.999023438 l 1
EndSplineSet
Substitution2: "'c2sc' Capitals to Small Capitals in Latin lookup 11 subtable" Acircumflex.sc
AlternateSubs2: "'aalt' Access All Alternates in Latin lookup 0 subtable" Acircumflex.sc
Position2: "'cpsp' Capital Spacing in Latin lookup 0 subtable" dx=5 dy=0 dh=10 dv=0
EndChar

StartChar: uni1EA4
Encoding: 7844 7844 14
Width: 655
GlyphClass: 2
Flags: MW
HStem: 640 20G<375.291 443.791 443.791 447.291> 715 146 824 161
VStem: 294 267 524 178
AnchorPoint: "Anchor-7" 651 1006 basechar 0
AnchorPoint: "Anchor-6" 594 0 basechar 0
AnchorPoint: "Anchor-5" 438 816 basechar 0
AnchorPoint: "Anchor-4" 255 0 basechar 0
LayerCount: 2
Fore
SplineSet
561.75 97.75 m 2xb0
 567.73046875 65.5 568.890625 38 600.890625 38 c 0
 612.890625 38 612.91015625 33 611.360351562 25 c 2
 609.030273438 13 l 2
 607.280273438 4 602.5 0 593.5 0 c 2
 376 0 l 2
 368 0 363.780273438 4 365.530273438 13 c 2
 367.860351562 25 l 2
 369.41015625 33 371.390625 38 383.390625 38 c 0
 437.390625 38 463.05078125 63.25 455.48046875 110.5 c 2
 437.020507812 226 l 1
 166.840820312 226 l 1
 98.560546875 104.5 l 2
 74.55078125 62 102.140625 38 150.890625 38 c 0
 162.890625 38 162.91015625 33 161.360351562 25 c 2
 159.030273438 13 l 2
 157.280273438 4 151.5 0 143.5 0 c 2
 -24 0 l 2
 -32 0 -36.2197265625 4 -34.4697265625 13 c 2
 -32.1396484375 25 l 2
 -30.58984375 33 -28.609375 38 -16.609375 38 c 0
 11.890625 38 28.6904296875 64 49.880859375 102.25 c 2
 358.150390625 649 l 2
 361.510742188 656 367.291015625 660 375.291015625 660 c 2
 443.791015625 660 l 2
 450.791015625 660 455.010742188 656 456.650390625 649 c 2
 561.75 97.75 l 2xb0
434.120117188 795.440429688 m 1
 406.73046875 757.66015625 364.551757812 715.249023438 320.6015625 715.249023438 c 0
 297.471679688 715.249023438 291.021484375 737.609375 295.961914062 763.059570312 c 0
 298.211914062 774.619140625 300.931640625 784.649414062 310.162109375 788.499023438 c 0
 358.181640625 805.46875 383.571289062 817.029296875 446.861328125 860.989257812 c 1
 493.061523438 817.029296875 513.951171875 805.469726562 555.380859375 788.5 c 0
 563.110351562 784.650390625 561.930664062 774.620117188 559.680664062 763.060546875 c 0
 554.740234375 737.610351562 539.600585938 715.25 516.4609375 715.25 c 0xd0
 472.510742188 715.25 446.8203125 757.66015625 434.120117188 795.440429688 c 1
523.640625 835.799804688 m 1xc8
 587.8203125 900.209960938 604.361328125 922.258789062 636.250976562 972.508789062 c 0
 642.741210938 982.508789062 653.500976562 984.999023438 664.560546875 984.999023438 c 0
 693.590820312 984.999023438 705.53125 970.689453125 700.630859375 945.479492188 c 0
 690.201171875 891.799804688 615.771484375 855.490234375 561.071289062 826.509765625 c 0xb0
 557.130859375 824.509765625 553.151367188 822.950195312 550.061523438 823.16015625 c 0xa8
 547.061523438 823.41015625 542.911132812 825.280273438 537.970703125 828 c 2
 523.640625 835.799804688 l 1xc8
192.4609375 272.999023438 m 1
 428.770507812 272.999023438 l 1
 372.100585938 593.69921875 l 1
 192.4609375 272.999023438 l 1
EndSplineSet
Substitution2: "'c2sc' Capitals to Small Capitals in Latin lookup 11 subtable" uni1EA4.sc
AlternateSubs2: "'aalt' Access All Alternates in Latin lookup 0 subtable" uni1EA4.sc
Position2: "'cpsp' Capital Spacing in Latin lookup 0 subtable" dx=5 dy=0 dh=10 dv=0
EndChar

StartChar: uni1EAC
Encoding: 7852 7852 15
Width: 655
GlyphClass: 2
Flags: MW
HStem: -180 124 640 20G<375.291 443.791 443.791 447.291> 715 146
VStem: 176 125 294 267
AnchorPoint: "Anchor-7" 427 759 basechar 0
AnchorPoint: "Anchor-6" 594 0 basechar 0
AnchorPoint: "Anchor-5" 438 816 basechar 0
AnchorPoint: "Anchor-4" 255 0 basechar 0
LayerCount: 2
Fore
SplineSet
561.75 97.75 m 2xe8
 567.73046875 65.5 568.890625 38 600.890625 38 c 0
 612.890625 38 612.91015625 33 611.360351562 25 c 2
 609.030273438 13 l 2
 607.280273438 4 602.5 0 593.5 0 c 2
 376 0 l 2
 368 0 363.780273438 4 365.530273438 13 c 2
 367.860351562 25 l 2
 369.41015625 33 371.390625 38 383.390625 38 c 0
 437.390625 38 463.05078125 63.25 455.48046875 110.5 c 2
 437.020507812 226 l 1
 166.840820312 226 l 1
 98.560546875 104.5 l 2
 74.55078125 62 102.140625 38 150.890625 38 c 0
 162.890625 38 162.91015625 33 161.360351562 25 c 2
 159.030273438 13 l 2
 157.280273438 4 151.5 0 143.5 0 c 2
 -24 0 l 2
 -32 0 -36.2197265625 4 -34.4697265625 13 c 2
 -32.1396484375 25 l 2
 -30.58984375 33 -28.609375 38 -16.609375 38 c 0
 11.890625 38 28.6904296875 64 49.880859375 102.25 c 2
 358.150390625 649 l 2
 361.510742188 656 367.291015625 660 375.291015625 660 c 2
 443.791015625 660 l 2
 450.791015625 660 455.010742188 656 456.650390625 649 c 2
 561.75 97.75 l 2xe8
249.799804688 -55.7197265625 m 0
 264.859375 -58.6396484375 276 -66.6591796875 288.129882812 -84.6494140625 c 0
 300.26953125 -102.649414062 303.719726562 -115.0390625 300.790039062 -130.098632812 c 0
 297.860351562 -145.158203125 288.890625 -156.118164062 272.030273438 -167.48828125 c 0
 254.030273438 -179.618164062 240.700195312 -182.887695312 225.640625 -179.958007812 c 0
 211.520507812 -177.217773438 201.3203125 -169.377929688 188.25 -151.208007812 c 0
 175.9296875 -134.158203125 172.66015625 -120.828125 175.58984375 -105.768554688 c 0xf0
 178.51953125 -90.708984375 186.359375 -80.5087890625 204.359375 -68.369140625 c 0
 222.349609375 -56.2392578125 235.6796875 -52.9697265625 249.799804688 -55.7197265625 c 0
434.12109375 795.451171875 m 1
 406.731445312 757.670898438 364.551757812 715.260742188 320.6015625 715.260742188 c 0
 297.471679688 715.260742188 291.021484375 737.62109375 295.961914062 763.071289062 c 0
 298.211914062 774.630859375 300.931640625 784.661132812 310.162109375 788.510742188 c 0
 358.181640625 805.48046875 383.571289062 817.040039062 446.861328125 861 c 1
 493.061523438 817.040039062 513.951171875 805.48046875 555.380859375 788.510742188 c 0
 563.111328125 784.661132812 561.931640625 774.630859375 559.681640625 763.071289062 c 0
 554.741210938 737.62109375 539.6015625 715.260742188 516.461914062 715.260742188 c 0
 472.51171875 715.260742188 446.821289062 757.670898438 434.12109375 795.451171875 c 1
192.451171875 273.010742188 m 1
 428.760742188 273.010742188 l 1
 372.090820312 593.7109375 l 1
 192.451171875 273.010742188 l 1
EndSplineSet
Substitution2: "'c2sc' Capitals to Small Capitals in Latin lookup 11 subtable" uni1EAC.sc
AlternateSubs2: "'aalt' Access All Alternates in Latin lookup 0 subtable" uni1EAC.sc
Position2: "'cpsp' Capital Spacing in Latin lookup 0 subtable" dx=5 dy=0 dh=10 dv=0
EndChar

StartChar: uni1EA6
Encoding: 7846 7846 16
Width: 655
GlyphClass: 2
Flags: MW
HStem: 640 20G<375.291 443.791 443.791 447.291> 715 146 824 161
VStem: 186 178 294 267
AnchorPoint: "Anchor-7" 329 1006 basechar 0
AnchorPoint: "Anchor-6" 594 0 basechar 0
AnchorPoint: "Anchor-5" 438 816 basechar 0
AnchorPoint: "Anchor-4" 255 0 basechar 0
LayerCount: 2
Fore
SplineSet
561.75 97.75 m 2xc8
 567.73046875 65.5 568.890625 38 600.890625 38 c 0
 612.890625 38 612.91015625 33 611.360351562 25 c 2
 609.030273438 13 l 2
 607.280273438 4 602.5 0 593.5 0 c 2
 376 0 l 2
 368 0 363.780273438 4 365.530273438 13 c 2
 367.860351562 25 l 2
 369.41015625 33 371.390625 38 383.390625 38 c 0
 437.390625 38 463.05078125 63.25 455.48046875 110.5 c 2
 437.020507812 226 l 1
 166.840820312 226 l 1
 98.560546875 104.5 l 2
 74.55078125 62 102.140625 38 150.890625 38 c 0
 162.890625 38 162.91015625 33 161.360351562 25 c 2
 159.030273438 13 l 2
 157.280273438 4 151.5 0 143.5 0 c 2
 -24 0 l 2
 -32 0 -36.2197265625 4 -34.4697265625 13 c 2
 -32.1396484375 25 l 2
 -30.58984375 33 -28.609375 38 -16.609375 38 c 0
 11.890625 38 28.6904296875 64 49.880859375 102.25 c 2
 358.150390625 649 l 2
 361.510742188 656 367.291015625 660 375.291015625 660 c 2
 443.791015625 660 l 2
 450.791015625 660 455.010742188 656 456.650390625 649 c 2
 561.75 97.75 l 2xc8
434.120117188 795.440429688 m 1
 406.73046875 757.66015625 364.551757812 715.249023438 320.6015625 715.249023438 c 0
 297.471679688 715.249023438 291.021484375 737.609375 295.961914062 763.059570312 c 0
 298.211914062 774.619140625 300.931640625 784.649414062 310.162109375 788.499023438 c 0
 358.181640625 805.46875 383.571289062 817.029296875 446.861328125 860.989257812 c 1
 493.061523438 817.029296875 513.951171875 805.469726562 555.380859375 788.5 c 0
 563.110351562 784.650390625 561.930664062 774.620117188 559.680664062 763.060546875 c 0
 554.740234375 737.610351562 539.600585938 715.25 516.4609375 715.25 c 0
 472.510742188 715.25 446.8203125 757.66015625 434.120117188 795.440429688 c 1
349.991210938 827.999023438 m 2
 345.061523438 825.279296875 340.912109375 823.41015625 337.912109375 823.16015625 c 0
 334.83203125 822.950195312 330.852539062 824.509765625 326.912109375 826.509765625 c 0
 272.211914062 855.490234375 197.782226562 891.799804688 187.352539062 945.479492188 c 0
 182.452148438 970.689453125 194.381835938 984.999023438 223.421875 984.999023438 c 0xb0
 234.481445312 984.999023438 245.241210938 982.508789062 251.731445312 972.508789062 c 0
 283.62109375 922.258789062 300.151367188 900.208984375 364.321289062 835.798828125 c 1xd0
 349.991210938 827.999023438 l 2
192.452148438 273 m 1
 428.76171875 273 l 1
 372.091796875 593.700195312 l 1
 192.452148438 273 l 1
EndSplineSet
Substitution2: "'c2sc' Capitals to Small Capitals in Latin lookup 11 subtable" uni1EA6.sc
AlternateSubs2: "'aalt' Access All Alternates in Latin lookup 0 subtable" uni1EA6.sc
Position2: "'cpsp' Capital Spacing in Latin lookup 0 subtable" dx=5 dy=0 dh=10 dv=0
EndChar

StartChar: uni1EA8
Encoding: 7848 7848 17
Width: 655
GlyphClass: 2
Flags: MW
HStem: 640 20G<375.291 443.791 443.791 447.291> 715 146 925 62
VStem: 294 267 560 56
AnchorPoint: "Anchor-7" 578 1053 basechar 0
AnchorPoint: "Anchor-6" 594 0 basechar 0
AnchorPoint: "Anchor-5" 438 816 basechar 0
AnchorPoint: "Anchor-4" 255 0 basechar 0
LayerCount: 2
Fore
SplineSet
561.75 97.75 m 2xf0
 567.73046875 65.5 568.890625 38 600.890625 38 c 0
 612.890625 38 612.91015625 33 611.360351562 25 c 2
 609.030273438 13 l 2
 607.280273438 4 602.5 0 593.5 0 c 2
 376 0 l 2
 368 0 363.780273438 4 365.530273438 13 c 2
 367.860351562 25 l 2
 369.41015625 33 371.390625 38 383.390625 38 c 0
 437.390625 38 463.05078125 63.25 455.48046875 110.5 c 2
 437.020507812 226 l 1
 166.840820312 226 l 1
 98.560546875 104.5 l 2
 74.55078125 62 102.140625 38 150.890625 38 c 0
 162.890625 38 162.91015625 33 161.360351562 25 c 2
 159.030273438 13 l 2
 157.280273438 4 151.5 0 143.5 0 c 2
 -24 0 l 2
 -32 0 -36.2197265625 4 -34.4697265625 13 c 2
 -32.1396484375 25 l 2
 -30.58984375 33 -28.609375 38 -16.609375 38 c 0
 11.890625 38 28.6904296875 64 49.880859375 102.25 c 2
 358.150390625 649 l 2
 361.510742188 656 367.291015625 660 375.291015625 660 c 2
 443.791015625 660 l 2
 450.791015625 660 455.010742188 656 456.650390625 649 c 2
 561.75 97.75 l 2xf0
434.120117188 795.440429688 m 1
 406.73046875 757.66015625 364.551757812 715.249023438 320.6015625 715.249023438 c 0
 297.471679688 715.249023438 291.021484375 737.609375 295.961914062 763.059570312 c 0
 298.211914062 774.619140625 300.931640625 784.649414062 310.162109375 788.499023438 c 0
 358.181640625 805.46875 383.571289062 817.029296875 446.861328125 860.989257812 c 1
 493.061523438 817.029296875 513.951171875 805.469726562 555.380859375 788.5 c 0
 563.110351562 784.650390625 561.930664062 774.620117188 559.680664062 763.060546875 c 0xe8
 554.740234375 737.610351562 539.600585938 715.25 516.4609375 715.25 c 0
 472.510742188 715.25 446.8203125 757.66015625 434.120117188 795.440429688 c 1
561.541015625 826.549804688 m 0xf0
 551.271484375 815.83984375 520.379882812 837.8203125 527.559570312 846.30078125 c 0
 539.969726562 861.55078125 555.549804688 875.9609375 559.580078125 896.69140625 c 0
 563.690429688 917.861328125 552.220703125 924.971679688 538.170898438 924.971679688 c 0
 519.081054688 924.971679688 502.541015625 908.08203125 499.260742188 916.311523438 c 0
 494.100585938 929.411132812 486.590820312 943.861328125 491.720703125 959.750976562 c 0
 494.780273438 969.810546875 528.190429688 987.400390625 558.930664062 987.400390625 c 0
 612.7109375 987.400390625 622.060546875 945.630859375 615.850585938 913.650390625 c 0xe8
 610.630859375 886.8203125 590.890625 856.629882812 561.541015625 826.549804688 c 0xf0
192.44921875 273 m 1
 428.758789062 273 l 1
 372.088867188 593.700195312 l 1
 192.44921875 273 l 1
EndSplineSet
Substitution2: "'c2sc' Capitals to Small Capitals in Latin lookup 11 subtable" uni1EA8.sc
AlternateSubs2: "'aalt' Access All Alternates in Latin lookup 0 subtable" uni1EA8.sc
Position2: "'cpsp' Capital Spacing in Latin lookup 0 subtable" dx=5 dy=0 dh=10 dv=0
EndChar

StartChar: uni1EAA
Encoding: 7850 7850 18
Width: 655
GlyphClass: 2
Flags: MW
HStem: 640 20G<375.291 443.791 443.791 447.291> 715 146 881 51 965 50
VStem: 294 267 320 57 551 56
AnchorPoint: "Anchor-7" 427 759 basechar 0
AnchorPoint: "Anchor-6" 594 0 basechar 0
AnchorPoint: "Anchor-5" 474 1001 basechar 0
AnchorPoint: "Anchor-4" 255 0 basechar 0
LayerCount: 2
Fore
SplineSet
561.75 97.75 m 2xf8
 567.73046875 65.5 568.890625 38 600.890625 38 c 0
 612.890625 38 612.91015625 33 611.360351562 25 c 2
 609.030273438 13 l 2
 607.280273438 4 602.5 0 593.5 0 c 2
 376 0 l 2
 368 0 363.780273438 4 365.530273438 13 c 2
 367.860351562 25 l 2
 369.41015625 33 371.390625 38 383.390625 38 c 0
 437.390625 38 463.05078125 63.25 455.48046875 110.5 c 2
 437.020507812 226 l 1
 166.840820312 226 l 1
 98.560546875 104.5 l 2
 74.55078125 62 102.140625 38 150.890625 38 c 0
 162.890625 38 162.91015625 33 161.360351562 25 c 2
 159.030273438 13 l 2
 157.280273438 4 151.5 0 143.5 0 c 2
 -24 0 l 2
 -32 0 -36.2197265625 4 -34.4697265625 13 c 2
 -32.1396484375 25 l 2
 -30.58984375 33 -28.609375 38 -16.609375 38 c 0
 11.890625 38 28.6904296875 64 49.880859375 102.25 c 2
 358.150390625 649 l 2
 361.510742188 656 367.291015625 660 375.291015625 660 c 2
 443.791015625 660 l 2
 450.791015625 660 455.010742188 656 456.650390625 649 c 2
 561.75 97.75 l 2xf8
434.120117188 795.440429688 m 1
 406.73046875 757.66015625 364.551757812 715.249023438 320.6015625 715.249023438 c 0xf4
 297.471679688 715.249023438 291.021484375 737.609375 295.961914062 763.059570312 c 0
 298.211914062 774.619140625 300.931640625 784.649414062 310.162109375 788.499023438 c 0
 358.181640625 805.46875 383.571289062 817.029296875 446.861328125 860.989257812 c 1
 493.061523438 817.029296875 513.951171875 805.469726562 555.380859375 788.5 c 0
 563.110351562 784.650390625 561.930664062 774.620117188 559.680664062 763.060546875 c 0
 554.740234375 737.610351562 539.600585938 715.25 516.4609375 715.25 c 0
 472.510742188 715.25 446.8203125 757.66015625 434.120117188 795.440429688 c 1
484.581054688 961.619140625 m 0
 494.590820312 939.508789062 504.534179688 931.587890625 518.583984375 931.587890625 c 0
 536.583984375 931.587890625 550.114257812 945.877929688 553.704101562 964.337890625 c 0
 555.854492188 975.397460938 555.774414062 987.137695312 551.104492188 999.288085938 c 1
 561.364257812 1007.13769531 575.713867188 1015.58789062 586.9140625 1015.58789062 c 0
 600.614257812 1015.58789062 613.173828125 989.91796875 607.423828125 960.337890625 c 0xf2
 597.82421875 910.958007812 556.50390625 881.087890625 518.7734375 881.087890625 c 0
 465.11328125 881.087890625 452.18359375 910.208007812 443.063476562 933.6484375 c 0
 434.623046875 957.008789062 424.142578125 965.088867188 410.092773438 965.088867188 c 0
 392.092773438 965.088867188 377.192382812 948.888671875 373.782226562 931.338867188 c 0
 371.572265625 919.96875 372.442382812 908.249023438 377.272460938 896.329101562 c 1
 366.982421875 888.508789062 352.522460938 880.088867188 340.572265625 880.088867188 c 0
 327.591796875 880.088867188 314.311523438 905.749023438 319.87109375 934.338867188 c 0
 329.641601562 984.62890625 371.901367188 1014.58886719 409.721679688 1014.58886719 c 0
 462.481445312 1014.58886719 475.861328125 983.588867188 484.581054688 961.619140625 c 0
192.454101562 273.0078125 m 1
 428.763671875 273.0078125 l 1
 372.09375 593.708007812 l 1
 192.454101562 273.0078125 l 1
EndSplineSet
Substitution2: "'c2sc' Capitals to Small Capitals in Latin lookup 11 subtable" uni1EAA.sc
AlternateSubs2: "'aalt' Access All Alternates in Latin lookup 0 subtable" uni1EAA.sc
Position2: "'cpsp' Capital Spacing in Latin lookup 0 subtable" dx=5 dy=0 dh=10 dv=0
EndChar

StartChar: uni0200
Encoding: 512 512 19
Width: 655
GlyphClass: 2
Flags: MW
HStem: 640 20G<375.291 443.791 443.791 447.291> 717 161
VStem: 269 178 441 178
AnchorPoint: "Anchor-6" 594 0 basechar 0
AnchorPoint: "Anchor-5" 408 899 basechar 0
AnchorPoint: "Anchor-4" 255 0 basechar 0
LayerCount: 2
Fore
SplineSet
561.75 97.75 m 2xe0
 567.73046875 65.5 568.890625 38 600.890625 38 c 0
 612.890625 38 612.91015625 33 611.360351562 25 c 2
 609.030273438 13 l 2
 607.280273438 4 602.5 0 593.5 0 c 2
 376 0 l 2
 368 0 363.780273438 4 365.530273438 13 c 2
 367.860351562 25 l 2
 369.41015625 33 371.390625 38 383.390625 38 c 0
 437.390625 38 463.05078125 63.25 455.48046875 110.5 c 2
 437.020507812 226 l 1
 166.840820312 226 l 1
 98.560546875 104.5 l 2
 74.55078125 62 102.140625 38 150.890625 38 c 0
 162.890625 38 162.91015625 33 161.360351562 25 c 2
 159.030273438 13 l 2
 157.280273438 4 151.5 0 143.5 0 c 2
 -24 0 l 2
 -32 0 -36.2197265625 4 -34.4697265625 13 c 2
 -32.1396484375 25 l 2
 -30.58984375 33 -28.609375 38 -16.609375 38 c 0
 11.890625 38 28.6904296875 64 49.880859375 102.25 c 2
 358.150390625 649 l 2
 361.510742188 656 367.291015625 660 375.291015625 660 c 2
 443.791015625 660 l 2
 450.791015625 660 455.010742188 656 456.650390625 649 c 2
 561.75 97.75 l 2xe0
604.639648438 721.349609375 m 2
 599.69921875 718.629882812 595.55859375 716.73046875 592.55859375 716.48046875 c 0
 589.46875 716.280273438 585.489257812 717.83984375 581.559570312 719.83984375 c 0
 526.859375 748.819335938 452.4296875 785.139648438 441.989257812 838.809570312 c 0
 437.088867188 864.01953125 449.029296875 878.33984375 478.059570312 878.33984375 c 0
 489.129882812 878.33984375 499.879882812 875.849609375 506.379882812 865.849609375 c 0
 538.259765625 815.599609375 554.799804688 793.549804688 618.969726562 729.149414062 c 1xd0
 604.639648438 721.349609375 l 2
432.028320312 721.330078125 m 2
 427.087890625 718.610351562 422.94921875 716.7109375 419.94921875 716.4609375 c 0
 416.859375 716.260742188 412.879882812 717.8203125 408.939453125 719.8203125 c 0
 354.239257812 748.799804688 279.809570312 785.120117188 269.379882812 838.790039062 c 0
 264.479492188 864 276.409179688 878.3203125 305.44921875 878.3203125 c 0
 316.508789062 878.3203125 327.268554688 875.830078125 333.758789062 865.830078125 c 0
 365.6484375 815.580078125 382.178710938 793.530273438 446.348632812 729.129882812 c 1xe0
 432.028320312 721.330078125 l 2
192.459960938 272.9609375 m 1
 428.76953125 272.9609375 l 1
 372.099609375 593.661132812 l 1
 192.459960938 272.9609375 l 1
EndSplineSet
Substitution2: "'c2sc' Capitals to Small Capitals in Latin lookup 11 subtable" uni0200.sc
AlternateSubs2: "'aalt' Access All Alternates in Latin lookup 0 subtable" uni0200.sc
Position2: "'cpsp' Capital Spacing in Latin lookup 0 subtable" dx=5 dy=0 dh=10 dv=0
EndChar

StartChar: Adieresis
Encoding: 196 196 20
Width: 655
GlyphClass: 2
Flags: MW
HStem: 640 20G<375.291 443.791 443.791 447.291> 723 124
VStem: 270 125 475 125
AnchorPoint: "Anchor-6" 594 0 basechar 0
AnchorPoint: "Anchor-5" 444 845 basechar 0
AnchorPoint: "Anchor-4" 255 0 basechar 0
LayerCount: 2
Fore
SplineSet
561.75 97.75 m 2
 567.73046875 65.5 568.890625 38 600.890625 38 c 0
 612.890625 38 612.91015625 33 611.360351562 25 c 2
 609.030273438 13 l 2
 607.280273438 4 602.5 0 593.5 0 c 2
 376 0 l 2
 368 0 363.780273438 4 365.530273438 13 c 2
 367.860351562 25 l 2
 369.41015625 33 371.390625 38 383.390625 38 c 0
 437.390625 38 463.05078125 63.25 455.48046875 110.5 c 2
 437.020507812 226 l 1
 166.840820312 226 l 1
 98.560546875 104.5 l 2
 74.55078125 62 102.140625 38 150.890625 38 c 0
 162.890625 38 162.91015625 33 161.360351562 25 c 2
 159.030273438 13 l 2
 157.280273438 4 151.5 0 143.5 0 c 2
 -24 0 l 2
 -32 0 -36.2197265625 4 -34.4697265625 13 c 2
 -32.1396484375 25 l 2
 -30.58984375 33 -28.609375 38 -16.609375 38 c 0
 11.890625 38 28.6904296875 64 49.880859375 102.25 c 2
 358.150390625 649 l 2
 361.510742188 656 367.291015625 660 375.291015625 660 c 2
 443.791015625 660 l 2
 450.791015625 660 455.010742188 656 456.650390625 649 c 2
 561.75 97.75 l 2
343.76953125 847.209960938 m 0
 358.829101562 844.290039062 369.969726562 836.270507812 382.099609375 818.270507812 c 0
 394.229492188 800.290039062 397.689453125 787.889648438 394.759765625 772.830078125 c 0
 391.830078125 757.770507812 382.860351562 746.8203125 366 735.440429688 c 0
 348 723.310546875 334.669921875 720.041015625 319.610351562 722.970703125 c 0
 305.490234375 725.7109375 295.290039062 733.560546875 282.219726562 751.73046875 c 0
 269.899414062 768.770507812 266.629882812 782.110351562 269.559570312 797.169921875 c 0
 272.489257812 812.229492188 280.329101562 822.4296875 298.319335938 834.559570312 c 0
 316.319335938 846.689453125 329.649414062 849.959960938 343.76953125 847.209960938 c 0
548.770507812 847.220703125 m 0
 563.830078125 844.30078125 574.970703125 836.282226562 587.100585938 818.282226562 c 0
 599.23046875 800.301757812 602.690429688 787.901367188 599.760742188 772.841796875 c 0
 596.831054688 757.782226562 587.861328125 746.83203125 571.000976562 735.452148438 c 0
 553.000976562 723.322265625 539.670898438 720.052734375 524.611328125 722.982421875 c 0
 510.491210938 725.72265625 500.291015625 733.572265625 487.220703125 751.7421875 c 0
 474.900390625 768.782226562 471.630859375 782.122070312 474.560546875 797.181640625 c 0
 477.490234375 812.241210938 485.330078125 822.44140625 503.3203125 834.571289062 c 0
 521.3203125 846.701171875 534.650390625 849.970703125 548.770507812 847.220703125 c 0
192.451171875 273.022460938 m 1
 428.760742188 273.022460938 l 1
 372.090820312 593.72265625 l 1
 192.451171875 273.022460938 l 1
EndSplineSet
Substitution2: "'c2sc' Capitals to Small Capitals in Latin lookup 11 subtable" Adieresis.sc
AlternateSubs2: "'aalt' Access All Alternates in Latin lookup 0 subtable" Adieresis.sc
Position2: "'cpsp' Capital Spacing in Latin lookup 0 subtable" dx=5 dy=0 dh=10 dv=0
EndChar

StartChar: uni1EA0
Encoding: 7840 7840 21
Width: 655
GlyphClass: 2
Flags: MW
HStem: -180 124 640 20G<375.291 443.791 443.791 447.291>
VStem: 176 125
AnchorPoint: "Anchor-6" 594 0 basechar 0
AnchorPoint: "Anchor-5" 408 660 basechar 0
AnchorPoint: "Anchor-4" 255 0 basechar 0
LayerCount: 2
Fore
SplineSet
561.75 97.75 m 2
 567.73046875 65.5 568.890625 38 600.890625 38 c 0
 612.890625 38 612.91015625 33 611.360351562 25 c 2
 609.030273438 13 l 2
 607.280273438 4 602.5 0 593.5 0 c 2
 376 0 l 2
 368 0 363.780273438 4 365.530273438 13 c 2
 367.860351562 25 l 2
 369.41015625 33 371.390625 38 383.390625 38 c 0
 437.390625 38 463.05078125 63.25 455.48046875 110.5 c 2
 437.020507812 226 l 1
 166.840820312 226 l 1
 98.560546875 104.5 l 2
 74.55078125 62 102.140625 38 150.890625 38 c 0
 162.890625 38 162.91015625 33 161.360351562 25 c 2
 159.030273438 13 l 2
 157.280273438 4 151.5 0 143.5 0 c 2
 -24 0 l 2
 -32 0 -36.2197265625 4 -34.4697265625 13 c 2
 -32.1396484375 25 l 2
 -30.58984375 33 -28.609375 38 -16.609375 38 c 0
 11.890625 38 28.6904296875 64 49.880859375 102.25 c 2
 358.150390625 649 l 2
 361.510742188 656 367.291015625 660 375.291015625 660 c 2
 443.791015625 660 l 2
 450.791015625 660 455.010742188 656 456.650390625 649 c 2
 561.75 97.75 l 2
249.799804688 -55.7197265625 m 0
 264.859375 -58.6396484375 276 -66.6591796875 288.129882812 -84.6494140625 c 0
 300.26953125 -102.649414062 303.719726562 -115.0390625 300.790039062 -130.098632812 c 0
 297.860351562 -145.158203125 288.890625 -156.118164062 272.030273438 -167.48828125 c 0
 254.030273438 -179.618164062 240.700195312 -182.887695312 225.640625 -179.958007812 c 0
 211.520507812 -177.217773438 201.3203125 -169.377929688 188.25 -151.208007812 c 0
 175.9296875 -134.158203125 172.66015625 -120.828125 175.58984375 -105.768554688 c 0
 178.51953125 -90.708984375 186.359375 -80.5087890625 204.359375 -68.369140625 c 0
 222.349609375 -56.2392578125 235.6796875 -52.9697265625 249.799804688 -55.7197265625 c 0
192.451171875 273.010742188 m 1
 428.760742188 273.010742188 l 1
 372.090820312 593.7109375 l 1
 192.451171875 273.010742188 l 1
EndSplineSet
Substitution2: "'c2sc' Capitals to Small Capitals in Latin lookup 11 subtable" uni1EA0.sc
AlternateSubs2: "'aalt' Access All Alternates in Latin lookup 0 subtable" uni1EA0.sc
Position2: "'cpsp' Capital Spacing in Latin lookup 0 subtable" dx=5 dy=0 dh=10 dv=0
EndChar

StartChar: Agrave
Encoding: 192 192 22
Width: 655
GlyphClass: 2
Flags: MW
HStem: 640 20G<375.291 443.791 443.791 447.291> 717 161
VStem: 286 178
AnchorPoint: "Anchor-6" 594 0 basechar 0
AnchorPoint: "Anchor-5" 429 899 basechar 0
AnchorPoint: "Anchor-4" 255 0 basechar 0
LayerCount: 2
Fore
SplineSet
561.75 97.75 m 2
 567.73046875 65.5 568.890625 38 600.890625 38 c 0
 612.890625 38 612.91015625 33 611.360351562 25 c 2
 609.030273438 13 l 2
 607.280273438 4 602.5 0 593.5 0 c 2
 376 0 l 2
 368 0 363.780273438 4 365.530273438 13 c 2
 367.860351562 25 l 2
 369.41015625 33 371.390625 38 383.390625 38 c 0
 437.390625 38 463.05078125 63.25 455.48046875 110.5 c 2
 437.020507812 226 l 1
 166.840820312 226 l 1
 98.560546875 104.5 l 2
 74.55078125 62 102.140625 38 150.890625 38 c 0
 162.890625 38 162.91015625 33 161.360351562 25 c 2
 159.030273438 13 l 2
 157.280273438 4 151.5 0 143.5 0 c 2
 -24 0 l 2
 -32 0 -36.2197265625 4 -34.4697265625 13 c 2
 -32.1396484375 25 l 2
 -30.58984375 33 -28.609375 38 -16.609375 38 c 0
 11.890625 38 28.6904296875 64 49.880859375 102.25 c 2
 358.150390625 649 l 2
 361.510742188 656 367.291015625 660 375.291015625 660 c 2
 443.791015625 660 l 2
 450.791015625 660 455.010742188 656 456.650390625 649 c 2
 561.75 97.75 l 2
449.75 721.349609375 m 2
 444.8203125 718.629882812 440.680664062 716.73046875 437.680664062 716.48046875 c 0
 434.600585938 716.280273438 430.600585938 717.83984375 426.670898438 719.83984375 c 0
 371.970703125 748.819335938 297.541015625 785.139648438 287.111328125 838.809570312 c 0
 282.2109375 864.01953125 294.140625 878.33984375 323.180664062 878.33984375 c 0
 334.240234375 878.33984375 345 875.849609375 351.490234375 865.849609375 c 0
 383.370117188 815.599609375 399.91015625 793.549804688 464.080078125 729.149414062 c 1
 449.75 721.349609375 l 2
192.451171875 272.98046875 m 1
 428.760742188 272.98046875 l 1
 372.090820312 593.680664062 l 1
 192.451171875 272.98046875 l 1
EndSplineSet
Substitution2: "'c2sc' Capitals to Small Capitals in Latin lookup 11 subtable" Agrave.sc
AlternateSubs2: "'aalt' Access All Alternates in Latin lookup 0 subtable" Agrave.sc
Position2: "'cpsp' Capital Spacing in Latin lookup 0 subtable" dx=5 dy=0 dh=10 dv=0
EndChar

StartChar: uni1EA2
Encoding: 7842 7842 23
Width: 655
GlyphClass: 2
Flags: MW
HStem: 640 20G<375.291 443.791 443.791 447.291> 818 62
VStem: 445 56
AnchorPoint: "Anchor-6" 594 0 basechar 0
AnchorPoint: "Anchor-5" 463 946 basechar 0
AnchorPoint: "Anchor-4" 255 0 basechar 0
LayerCount: 2
Fore
SplineSet
561.75 97.75 m 2
 567.73046875 65.5 568.890625 38 600.890625 38 c 0
 612.890625 38 612.91015625 33 611.360351562 25 c 2
 609.030273438 13 l 2
 607.280273438 4 602.5 0 593.5 0 c 2
 376 0 l 2
 368 0 363.780273438 4 365.530273438 13 c 2
 367.860351562 25 l 2
 369.41015625 33 371.390625 38 383.390625 38 c 0
 437.390625 38 463.05078125 63.25 455.48046875 110.5 c 2
 437.020507812 226 l 1
 166.840820312 226 l 1
 98.560546875 104.5 l 2
 74.55078125 62 102.140625 38 150.890625 38 c 0
 162.890625 38 162.91015625 33 161.360351562 25 c 2
 159.030273438 13 l 2
 157.280273438 4 151.5 0 143.5 0 c 2
 -24 0 l 2
 -32 0 -36.2197265625 4 -34.4697265625 13 c 2
 -32.1396484375 25 l 2
 -30.58984375 33 -28.609375 38 -16.609375 38 c 0
 11.890625 38 28.6904296875 64 49.880859375 102.25 c 2
 358.150390625 649 l 2
 361.510742188 656 367.291015625 660 375.291015625 660 c 2
 443.791015625 660 l 2
 450.791015625 660 455.010742188 656 456.650390625 649 c 2
 561.75 97.75 l 2
447.309570312 719.900390625 m 0
 437.040039062 709.190429688 406.1484375 731.169921875 413.328125 739.650390625 c 0
 425.73828125 754.900390625 441.318359375 769.310546875 445.348632812 790.040039062 c 0
 449.458984375 811.200195312 437.989257812 818.3203125 423.939453125 818.3203125 c 0
 404.849609375 818.3203125 388.309570312 801.430664062 385.029296875 809.650390625 c 0
 379.869140625 822.760742188 372.359375 837.2109375 377.489257812 853.100585938 c 0
 380.5390625 863.16015625 413.958984375 880.75 444.69921875 880.75 c 0
 498.479492188 880.75 507.829101562 838.98046875 501.619140625 807.000976562 c 0
 496.399414062 780.170898438 476.659179688 749.98046875 447.309570312 719.900390625 c 0
192.447265625 272.999023438 m 1
 428.756835938 272.999023438 l 1
 372.086914062 593.69921875 l 1
 192.447265625 272.999023438 l 1
EndSplineSet
Substitution2: "'c2sc' Capitals to Small Capitals in Latin lookup 11 subtable" uni1EA2.sc
AlternateSubs2: "'aalt' Access All Alternates in Latin lookup 0 subtable" uni1EA2.sc
Position2: "'cpsp' Capital Spacing in Latin lookup 0 subtable" dx=5 dy=0 dh=10 dv=0
EndChar

StartChar: uni0202
Encoding: 514 514 24
Width: 655
GlyphClass: 2
Flags: MW
HStem: 640 20G<375.291 443.791 443.791 447.291> 825 48
VStem: 302 258
AnchorPoint: "Anchor-6" 594 0 basechar 0
AnchorPoint: "Anchor-5" 454 899 basechar 0
AnchorPoint: "Anchor-4" 255 0 basechar 0
LayerCount: 2
Fore
SplineSet
561.75 97.75 m 2
 567.73046875 65.5 568.890625 38 600.890625 38 c 0
 612.890625 38 612.91015625 33 611.360351562 25 c 2
 609.030273438 13 l 2
 607.280273438 4 602.5 0 593.5 0 c 2
 376 0 l 2
 368 0 363.780273438 4 365.530273438 13 c 2
 367.860351562 25 l 2
 369.41015625 33 371.390625 38 383.390625 38 c 0
 437.390625 38 463.05078125 63.25 455.48046875 110.5 c 2
 437.020507812 226 l 1
 166.840820312 226 l 1
 98.560546875 104.5 l 2
 74.55078125 62 102.140625 38 150.890625 38 c 0
 162.890625 38 162.91015625 33 161.360351562 25 c 2
 159.030273438 13 l 2
 157.280273438 4 151.5 0 143.5 0 c 2
 -24 0 l 2
 -32 0 -36.2197265625 4 -34.4697265625 13 c 2
 -32.1396484375 25 l 2
 -30.58984375 33 -28.609375 38 -16.609375 38 c 0
 11.890625 38 28.6904296875 64 49.880859375 102.25 c 2
 358.150390625 649 l 2
 361.510742188 656 367.291015625 660 375.291015625 660 c 2
 443.791015625 660 l 2
 450.791015625 660 455.010742188 656 456.650390625 649 c 2
 561.75 97.75 l 2
451.190429688 873 m 0
 542.190429688 873 565.76953125 803.229492188 558.799804688 767.369140625 c 0
 556.859375 757.369140625 550.889648438 753.529296875 540.889648438 752.369140625 c 0
 533.439453125 751.51953125 517.709960938 750.19921875 510.200195312 749.6796875 c 0
 498.200195312 748.6796875 494.790039062 752.049804688 496.620117188 765.009765625 c 0
 500.620117188 801.629882812 481.400390625 824.629882812 441.790039062 824.629882812 c 0
 402.440429688 824.629882812 374.280273438 801.629882812 364.049804688 765.009765625 c 0
 360.58984375 752.049804688 356.120117188 748.6796875 344.5 749.6796875 c 0
 336.940429688 750.200195312 321.970703125 751.520507812 314.610351562 752.370117188 c 0
 305.060546875 753.530273438 300.580078125 757.370117188 302.520507812 767.370117188 c 0
 309.490234375 803.23046875 360.440429688 873 451.190429688 873 c 0
192.44921875 273 m 1
 428.758789062 273 l 1
 372.088867188 593.700195312 l 1
 192.44921875 273 l 1
EndSplineSet
Substitution2: "'c2sc' Capitals to Small Capitals in Latin lookup 11 subtable" uni0202.sc
AlternateSubs2: "'aalt' Access All Alternates in Latin lookup 0 subtable" uni0202.sc
Position2: "'cpsp' Capital Spacing in Latin lookup 0 subtable" dx=5 dy=0 dh=10 dv=0
EndChar

StartChar: Amacron
Encoding: 256 256 25
Width: 655
GlyphClass: 2
Flags: MW
HStem: 640 20G<375.291 443.791 443.791 447.291>
VStem: 298 254
AnchorPoint: "Anchor-6" 594 0 basechar 0
AnchorPoint: "Anchor-5" 426 752 basechar 0
AnchorPoint: "Anchor-4" 255 0 basechar 0
LayerCount: 2
Fore
SplineSet
561.75 97.75 m 2
 567.73046875 65.5 568.890625 38 600.890625 38 c 0
 612.890625 38 612.91015625 33 611.360351562 25 c 2
 609.030273438 13 l 2
 607.280273438 4 602.5 0 593.5 0 c 2
 376 0 l 2
 368 0 363.780273438 4 365.530273438 13 c 2
 367.860351562 25 l 2
 369.41015625 33 371.390625 38 383.390625 38 c 0
 437.390625 38 463.05078125 63.25 455.48046875 110.5 c 2
 437.020507812 226 l 1
 166.840820312 226 l 1
 98.560546875 104.5 l 2
 74.55078125 62 102.140625 38 150.890625 38 c 0
 162.890625 38 162.91015625 33 161.360351562 25 c 2
 159.030273438 13 l 2
 157.280273438 4 151.5 0 143.5 0 c 2
 -24 0 l 2
 -32 0 -36.2197265625 4 -34.4697265625 13 c 2
 -32.1396484375 25 l 2
 -30.58984375 33 -28.609375 38 -16.609375 38 c 0
 11.890625 38 28.6904296875 64 49.880859375 102.25 c 2
 358.150390625 649 l 2
 361.510742188 656 367.291015625 660 375.291015625 660 c 2
 443.791015625 660 l 2
 450.791015625 660 455.010742188 656 456.650390625 649 c 2
 561.75 97.75 l 2
545.6796875 734 m 2
 544.120117188 726 539.150390625 721 530.150390625 721 c 2
 309.150390625 721 l 2
 300.150390625 721 297.120117188 726 298.6796875 734 c 2
 304.599609375 764.5 l 2
 306.349609375 773.5 311.129882812 777.5 320.129882812 777.5 c 2
 541.129882812 777.5 l 2
 550.129882812 777.5 553.349609375 773.5 551.599609375 764.5 c 2
 545.6796875 734 l 2
192.44921875 273 m 1
 428.758789062 273 l 1
 372.088867188 593.700195312 l 1
 192.44921875 273 l 1
EndSplineSet
Substitution2: "'c2sc' Capitals to Small Capitals in Latin lookup 11 subtable" Amacron.sc
AlternateSubs2: "'aalt' Access All Alternates in Latin lookup 0 subtable" Amacron.sc
Position2: "'cpsp' Capital Spacing in Latin lookup 0 subtable" dx=5 dy=0 dh=10 dv=0
EndChar

StartChar: Aogonek
Encoding: 260 260 26
Width: 655
GlyphClass: 2
Flags: MW
HStem: 640 20G<375.291 443.791 443.791 447.291>
VStem: 399 235
AnchorPoint: "Anchor-6" 594 0 basechar 0
AnchorPoint: "Anchor-5" 408 660 basechar 0
AnchorPoint: "Anchor-4" 255 0 basechar 0
LayerCount: 2
Fore
SplineSet
561.75 97.75 m 2
 567.73046875 65.5 568.87890625 38 600.87890625 38 c 0
 612.87890625 38 612.899414062 33 611.349609375 25 c 2
 609.01953125 13 l 2
 608.1796875 8.7099609375 606.66015625 5.5595703125 604.3203125 3.4296875 c 0
 603.060546875 2.0595703125 601.060546875 1.099609375 598.670898438 0.5498046875 c 0
 597.130859375 0.1796875 595.411132812 0 593.500976562 0 c 0
 582.500976562 -0 477.361328125 -13.900390625 461.201171875 -97.0205078125 c 0
 451.010742188 -149.4609375 478.190429688 -174.100585938 535.740234375 -174.100585938 c 0
 576.66015625 -174.100585938 617.9296875 -147.000976562 626.9296875 -147.000976562 c 0
 630.9296875 -147.000976562 634.149414062 -151.000976562 632.7890625 -158.000976562 c 2
 628.899414062 -178.000976562 l 2
 627.729492188 -184.000976562 624.759765625 -189.000976562 619.1796875 -192.000976562 c 0
 582.290039062 -212.000976562 547.150390625 -223.000976562 517.150390625 -223.000976562 c 0
 421.150390625 -223.000976562 390.200195312 -161.000976562 400.700195312 -107.000976562 c 0
 410.799804688 -55.060546875 448.83984375 -21.150390625 488.299804688 0 c 1
 376 0 l 2
 368 0 363.780273438 4 365.530273438 13 c 2
 367.860351562 25 l 2
 369.41015625 33 371.390625 38 383.390625 38 c 0
 437.390625 38 463.05078125 63.25 455.48046875 110.5 c 2
 437.020507812 226 l 1
 166.840820312 226 l 1
 98.560546875 104.5 l 2
 74.55078125 62 102.140625 38 150.890625 38 c 0
 162.890625 38 162.91015625 33 161.360351562 25 c 2
 159.030273438 13 l 2
 157.280273438 4 151.5 0 143.5 0 c 2
 -24 0 l 2
 -32 0 -36.2197265625 4 -34.4697265625 13 c 2
 -32.1396484375 25 l 2
 -30.58984375 33 -28.609375 38 -16.609375 38 c 0
 11.890625 38 28.6904296875 64 49.880859375 102.25 c 2
 358.150390625 649 l 2
 361.510742188 656 367.291015625 660 375.291015625 660 c 2
 443.791015625 660 l 2
 450.791015625 660 455.010742188 656 456.650390625 649 c 2
 561.75 97.75 l 2
192.438476562 273 m 1
 428.748046875 273 l 1
 372.078125 593.700195312 l 1
 192.438476562 273 l 1
EndSplineSet
Substitution2: "'c2sc' Capitals to Small Capitals in Latin lookup 11 subtable" Aogonek.sc
AlternateSubs2: "'aalt' Access All Alternates in Latin lookup 0 subtable" Aogonek.sc
Position2: "'cpsp' Capital Spacing in Latin lookup 0 subtable" dx=5 dy=0 dh=10 dv=0
EndChar

StartChar: Aring
Encoding: 197 197 27
Width: 655
GlyphClass: 2
Flags: MW
HStem: 639 20G 687 20G 763 49
VStem: 325 197
AnchorPoint: "Anchor-6" 594 0 basechar 0
AnchorPoint: "Anchor-5" 433 772 basechar 0
AnchorPoint: "Anchor-4" 255 0 basechar 0
LayerCount: 2
Fore
SplineSet
561.75 97.75 m 2
 567.73046875 65.5 568.888671875 38 600.888671875 38 c 0
 612.888671875 38 612.908203125 33 611.358398438 25 c 2
 609.028320312 13 l 2
 607.278320312 4 602.498046875 0 593.498046875 0 c 2
 375.998046875 0 l 2
 367.998046875 0 363.778320312 4 365.528320312 13 c 2
 367.858398438 25 l 2
 369.408203125 33 371.388671875 38 383.388671875 38 c 0
 437.388671875 38 463.048828125 63.25 455.478515625 110.5 c 2
 437.018554688 226 l 1
 166.838867188 226 l 1
 98.55859375 104.5 l 2
 74.548828125 62 102.138671875 38 150.888671875 38 c 0
 162.888671875 38 162.908203125 33 161.358398438 25 c 2
 159.028320312 13 l 2
 157.278320312 4 151.498046875 0 143.498046875 0 c 2
 -24.001953125 0 l 2
 -32.001953125 0 -36.2216796875 4 -34.4716796875 13 c 2
 -32.1416015625 25 l 2
 -30.591796875 33 -28.611328125 38 -16.611328125 38 c 0
 11.888671875 38 28.6884765625 64 49.87890625 102.25 c 2
 355.758789062 644.759765625 l 1
 332.37890625 660.979492188 320.489257812 689.009765625 326.6796875 720.889648438 c 0
 336.599609375 771.909179688 387.559570312 812.569335938 441.76953125 812.569335938 c 0
 495.189453125 812.569335938 530.33984375 771.909179688 520.419921875 720.889648438 c 0
 513.940429688 687.549804688 489.310546875 658.4296875 457.870117188 642.620117188 c 1
 561.75 97.75 l 2
380.8984375 720.889648438 m 0
 376.088867188 696.169921875 389.588867188 679.4296875 415.8984375 679.4296875 c 0
 441.408203125 679.4296875 461.408203125 696.169921875 466.208007812 720.889648438 c 0
 471.16796875 746.399414062 457.6875 763.139648438 432.16796875 763.139648438 c 0
 405.858398438 763.139648438 385.858398438 746.399414062 380.8984375 720.889648438 c 0
192.458007812 273 m 1
 428.767578125 273 l 1
 372.09765625 593.700195312 l 1
 192.458007812 273 l 1
EndSplineSet
Substitution2: "'c2sc' Capitals to Small Capitals in Latin lookup 11 subtable" Aring.sc
AlternateSubs2: "'aalt' Access All Alternates in Latin lookup 0 subtable" Aring.sc
Position2: "'cpsp' Capital Spacing in Latin lookup 0 subtable" dx=5 dy=0 dh=10 dv=0
EndChar

StartChar: Aringacute
Encoding: 506 506 28
Width: 655
GlyphClass: 2
Flags: MW
HStem: 640 20G 687 20G 763 49 829 161
VStem: 325 197 385 178
AnchorPoint: "Anchor-6" 594 0 basechar 0
AnchorPoint: "Anchor-5" 512 1011 basechar 0
AnchorPoint: "Anchor-4" 255 0 basechar 0
LayerCount: 2
Fore
SplineSet
561.75 97.75 m 2xf8
 567.73046875 65.5 568.888671875 38 600.888671875 38 c 0
 612.888671875 38 612.908203125 33 611.358398438 25 c 2
 609.028320312 13 l 2
 607.278320312 4 602.498046875 0 593.498046875 0 c 2
 375.998046875 0 l 2
 367.998046875 0 363.778320312 4 365.528320312 13 c 2
 367.858398438 25 l 2
 369.408203125 33 371.388671875 38 383.388671875 38 c 0
 437.388671875 38 463.048828125 63.25 455.478515625 110.5 c 2
 437.018554688 226 l 1
 166.838867188 226 l 1
 98.55859375 104.5 l 2
 74.548828125 62 102.138671875 38 150.888671875 38 c 0
 162.888671875 38 162.908203125 33 161.358398438 25 c 2
 159.028320312 13 l 2
 157.278320312 4 151.498046875 0 143.498046875 0 c 2
 -24.001953125 0 l 2
 -32.001953125 0 -36.2216796875 4 -34.4716796875 13 c 2
 -32.1416015625 25 l 2
 -30.591796875 33 -28.611328125 38 -16.611328125 38 c 0
 11.888671875 38 28.6884765625 64 49.87890625 102.25 c 2
 355.758789062 644.759765625 l 1
 332.37890625 660.979492188 320.489257812 689.009765625 326.6796875 720.889648438 c 0
 336.599609375 771.909179688 387.559570312 812.569335938 441.76953125 812.569335938 c 0
 495.189453125 812.569335938 530.33984375 771.909179688 520.419921875 720.889648438 c 0
 513.940429688 687.549804688 489.310546875 658.4296875 457.870117188 642.620117188 c 1
 561.75 97.75 l 2xf8
380.8984375 720.889648438 m 0
 376.088867188 696.169921875 389.588867188 679.4296875 415.8984375 679.4296875 c 0
 441.408203125 679.4296875 461.408203125 696.169921875 466.208007812 720.889648438 c 0
 471.16796875 746.399414062 457.6875 763.139648438 432.16796875 763.139648438 c 0
 405.858398438 763.139648438 385.858398438 746.399414062 380.8984375 720.889648438 c 0
384.797851562 841.040039062 m 1xf4
 448.967773438 905.450195312 465.5078125 927.509765625 497.387695312 977.759765625 c 0
 503.887695312 987.759765625 514.637695312 990.239257812 525.708007812 990.239257812 c 0
 554.73828125 990.239257812 566.678710938 975.9296875 561.778320312 950.719726562 c 0
 551.337890625 897.040039062 476.908203125 860.73046875 422.208007812 831.75 c 0
 418.278320312 829.75 414.288085938 828.190429688 411.208007812 828.400390625 c 0
 408.208007812 828.650390625 404.068359375 830.520507812 399.127929688 833.240234375 c 2
 384.797851562 841.040039062 l 1xf4
192.458007812 273.009765625 m 1
 428.767578125 273.009765625 l 1
 372.09765625 593.709960938 l 1
 192.458007812 273.009765625 l 1
EndSplineSet
Substitution2: "'c2sc' Capitals to Small Capitals in Latin lookup 11 subtable" Aringacute.sc
AlternateSubs2: "'aalt' Access All Alternates in Latin lookup 0 subtable" Aringacute.sc
Position2: "'cpsp' Capital Spacing in Latin lookup 0 subtable" dx=5 dy=0 dh=10 dv=0
EndChar

StartChar: Atilde
Encoding: 195 195 29
Width: 655
GlyphClass: 2
Flags: MW
HStem: 640 20G<375.291 443.791 443.791 447.291> 725 51 809 50
VStem: 289 57 521 56
AnchorPoint: "Anchor-6" 594 0 basechar 0
AnchorPoint: "Anchor-5" 444 845 basechar 0
AnchorPoint: "Anchor-4" 255 0 basechar 0
LayerCount: 2
Fore
SplineSet
561.75 97.75 m 2
 567.73046875 65.5 568.890625 38 600.890625 38 c 0
 612.890625 38 612.91015625 33 611.360351562 25 c 2
 609.030273438 13 l 2
 607.280273438 4 602.5 0 593.5 0 c 2
 376 0 l 2
 368 0 363.780273438 4 365.530273438 13 c 2
 367.860351562 25 l 2
 369.41015625 33 371.390625 38 383.390625 38 c 0
 437.390625 38 463.05078125 63.25 455.48046875 110.5 c 2
 437.020507812 226 l 1
 166.840820312 226 l 1
 98.560546875 104.5 l 2
 74.55078125 62 102.140625 38 150.890625 38 c 0
 162.890625 38 162.91015625 33 161.360351562 25 c 2
 159.030273438 13 l 2
 157.280273438 4 151.5 0 143.5 0 c 2
 -24 0 l 2
 -32 0 -36.2197265625 4 -34.4697265625 13 c 2
 -32.1396484375 25 l 2
 -30.58984375 33 -28.609375 38 -16.609375 38 c 0
 11.890625 38 28.6904296875 64 49.880859375 102.25 c 2
 358.150390625 649 l 2
 361.510742188 656 367.291015625 660 375.291015625 660 c 2
 443.791015625 660 l 2
 450.791015625 660 455.010742188 656 456.650390625 649 c 2
 561.75 97.75 l 2
454.190429688 805.290039062 m 0
 464.190429688 783.1796875 474.140625 775.258789062 488.190429688 775.258789062 c 0
 506.190429688 775.258789062 519.720703125 789.548828125 523.310546875 808.008789062 c 0
 525.4609375 819.068359375 525.390625 830.80859375 520.7109375 842.958984375 c 1
 530.970703125 850.80859375 545.3203125 859.258789062 556.520507812 859.258789062 c 0
 570.220703125 859.258789062 582.78125 833.588867188 577.03125 804.008789062 c 0
 567.431640625 754.62890625 526.111328125 724.758789062 488.381835938 724.758789062 c 0
 434.721679688 724.758789062 421.791992188 753.87890625 412.671875 777.319335938 c 0
 404.2421875 800.6796875 393.76171875 808.759765625 379.711914062 808.759765625 c 0
 361.711914062 808.759765625 346.811523438 792.559570312 343.401367188 775.009765625 c 0
 341.19140625 763.639648438 342.051757812 751.919921875 346.881835938 740 c 1
 336.591796875 732.1796875 322.131835938 723.759765625 310.181640625 723.759765625 c 0
 297.202148438 723.759765625 283.921875 749.419921875 289.481445312 778.009765625 c 0
 299.250976562 828.299804688 341.510742188 858.259765625 379.331054688 858.259765625 c 0
 432.090820312 858.259765625 445.48046875 827.259765625 454.190429688 805.290039062 c 0
192.459960938 273.008789062 m 1
 428.76953125 273.008789062 l 1
 372.099609375 593.708984375 l 1
 192.459960938 273.008789062 l 1
EndSplineSet
Substitution2: "'c2sc' Capitals to Small Capitals in Latin lookup 11 subtable" Atilde.sc
AlternateSubs2: "'aalt' Access All Alternates in Latin lookup 0 subtable" Atilde.sc
Position2: "'cpsp' Capital Spacing in Latin lookup 0 subtable" dx=5 dy=0 dh=10 dv=0
EndChar

StartChar: AE
Encoding: 198 198 30
Width: 960
GlyphClass: 2
Flags: MW
HStem: -11.85 21G 0 39 0.149994 39.75 0.149994 47 225.75 47 327.65 48.5 613.15 47 621.15 39 651.15 20G
VStem: 458 45.24 745.13 37.59
AnchorPoint: "Anchor-6" 788 0 basechar 0
AnchorPoint: "Anchor-5" 679 660 basechar 0
AnchorPoint: "Anchor-4" 596 0 basechar 0
LayerCount: 2
Fore
SplineSet
802.66015625 -11.83984375 m 0x8e60
 799.66015625 -11.83984375 796.958984375 -11.66796875 795.268554688 -8.8681640625 c 2
 792.23828125 -3.8681640625 l 2
 789.888671875 0.0322265625 786.0390625 0.1123046875 775.0390625 0.1123046875 c 2
 324.2890625 0.1123046875 l 2
 315.5390625 0.1123046875 311.319335938 4.1123046875 313.069335938 13.1123046875 c 2x1e60
 315.739257812 26.8623046875 l 2
 317.2890625 34.8623046875 323.499023438 39.8623046875 331.999023438 39.8623046875 c 0
 373.749023438 39.8623046875 401.94921875 66.6123046875 412.529296875 121.112304688 c 2x2e60
 432.859375 225.711914062 l 1
 232.189453125 225.711914062 l 1
 142.119140625 104.461914062 l 2
 101.159179688 49.7919921875 104.668945312 38.9716796875 151.079101562 38.9716796875 c 0
 163.329101562 38.9716796875 163.119140625 33.9716796875 161.559570312 25.9716796875 c 2
 159.049804688 12.9716796875 l 2
 157.299804688 3.9716796875 151.530273438 -0.0283203125 143.530273438 -0.0283203125 c 2
 -23.7197265625 -0.0283203125 l 2
 -31.9697265625 -0.0283203125 -36.1796875 3.9716796875 -34.4296875 12.9716796875 c 2
 -31.919921875 25.9716796875 l 2
 -30.3603515625 33.9716796875 -27.900390625 38.9716796875 -16.150390625 38.9716796875 c 0
 15.83984375 38.9716796875 47.2998046875 51.6513671875 85.490234375 102.2109375 c 2
 445.790039062 581.4609375 l 2
 470.75 614.62109375 453.950195312 621.1015625 429.709960938 621.1015625 c 0x4d60
 421.459960938 621.1015625 416.889648438 627.1015625 418.439453125 635.1015625 c 2
 420.569335938 646.1015625 l 2
 422.319335938 655.1015625 428.2890625 660.1015625 437.2890625 660.1015625 c 2
 862.2890625 660.1015625 l 2x1e60
 871.2890625 660.1015625 875.55859375 660.971679688 880.05859375 664.091796875 c 2
 886.028320312 669.091796875 l 2
 888.41796875 671.091796875 891.41796875 671.091796875 894.41796875 671.091796875 c 0
 898.41796875 671.091796875 902.038085938 669.1015625 904.038085938 664.1015625 c 2x1ce0
 949.908203125 545.1015625 l 2
 951.2578125 542.071289062 951.727539062 539.111328125 951.337890625 537.111328125 c 0
 950.368164062 532.111328125 946.858398438 528.971679688 942.21875 526.122070312 c 2
 919.989257812 514.622070312 l 2
 914.389648438 511.681640625 912.219726562 510.631835938 909.219726562 510.631835938 c 0
 905.219726562 510.631835938 902.76953125 513.731445312 900.779296875 518.62109375 c 2
 898.76953125 523.62109375 l 2
 869.719726562 594.12109375 843.169921875 613.12109375 775.169921875 613.12109375 c 2
 605.419921875 613.12109375 l 1
 559.349609375 376.12109375 l 1
 664.099609375 376.12109375 l 2
 709.599609375 376.12109375 736.989257812 396.12109375 744.559570312 435.12109375 c 2
 745.729492188 441.12109375 l 2
 747.479492188 450.12109375 752.259765625 454.12109375 761.259765625 454.12109375 c 2
 772.259765625 454.12109375 l 2
 781.259765625 454.12109375 784.469726562 450.12109375 782.719726562 441.12109375 c 2
 748.219726562 263.62109375 l 2
 746.469726562 254.62109375 741.689453125 250.62109375 732.689453125 250.62109375 c 2
 721.689453125 250.62109375 l 2
 712.689453125 250.62109375 709.479492188 254.62109375 711.229492188 263.62109375 c 2
 712.189453125 268.62109375 l 2
 719.94921875 308.62109375 701.149414062 327.62109375 654.649414062 327.62109375 c 2
 549.899414062 327.62109375 l 1
 511.708984375 131.12109375 l 2
 501.229492188 77.12109375 523.889648438 47.12109375 562.889648438 47.12109375 c 2
 633.639648438 47.12109375 l 2x1e60
 762.639648438 47.12109375 812.439453125 74.37109375 890.009765625 186.62109375 c 2
 894.169921875 192.62109375 l 2
 898.469726562 199.37109375 906.299804688 202.37109375 913.870117188 197.62109375 c 2
 929.5703125 188.37109375 l 2
 937.709960938 184.090820312 936.75 179.010742188 931.020507812 170.140625 c 2
 814.200195312 -3.849609375 l 2
 810.370117188 -9.5595703125 806.66015625 -11.83984375 802.66015625 -11.83984375 c 0x8e60
267.689453125 272.731445312 m 1x1e60
 441.989257812 272.731445312 l 1
 503.239257812 587.831054688 l 1
 267.689453125 272.731445312 l 1x1e60
EndSplineSet
Substitution2: "'c2sc' Capitals to Small Capitals in Latin lookup 11 subtable" AE.sc
AlternateSubs2: "'aalt' Access All Alternates in Latin lookup 0 subtable" AE.sc
Position2: "'cpsp' Capital Spacing in Latin lookup 0 subtable" dx=5 dy=0 dh=10 dv=0
EndChar

StartChar: AEacute
Encoding: 508 508 31
Width: 960
GlyphClass: 2
Flags: MW
HStem: -11.85 21G 0 39 0.149994 39.75 0.149994 47 225.75 47 327.65 48.5 613.15 47 621.15 39 651.15 20G
VStem: 458 45.24 745.13 37.59
AnchorPoint: "Anchor-6" 788 0 basechar 0
AnchorPoint: "Anchor-5" 758 899 basechar 0
AnchorPoint: "Anchor-4" 596 0 basechar 0
LayerCount: 2
Fore
SplineSet
802.66015625 -11.83984375 m 0x8e60
 799.66015625 -11.83984375 796.958984375 -11.66796875 795.268554688 -8.8681640625 c 2
 792.23828125 -3.8681640625 l 2
 789.888671875 0.0322265625 786.0390625 0.1123046875 775.0390625 0.1123046875 c 2
 324.2890625 0.1123046875 l 2
 315.5390625 0.1123046875 311.319335938 4.1123046875 313.069335938 13.1123046875 c 2x1e60
 315.739257812 26.8623046875 l 2
 317.2890625 34.8623046875 323.499023438 39.8623046875 331.999023438 39.8623046875 c 0
 373.749023438 39.8623046875 401.94921875 66.6123046875 412.529296875 121.112304688 c 2x2e60
 432.859375 225.711914062 l 1
 232.189453125 225.711914062 l 1
 142.119140625 104.461914062 l 2
 101.159179688 49.7919921875 104.668945312 38.9716796875 151.079101562 38.9716796875 c 0
 163.329101562 38.9716796875 163.119140625 33.9716796875 161.559570312 25.9716796875 c 2
 159.049804688 12.9716796875 l 2
 157.299804688 3.9716796875 151.530273438 -0.0283203125 143.530273438 -0.0283203125 c 2
 -23.7197265625 -0.0283203125 l 2
 -31.9697265625 -0.0283203125 -36.1796875 3.9716796875 -34.4296875 12.9716796875 c 2
 -31.919921875 25.9716796875 l 2
 -30.3603515625 33.9716796875 -27.900390625 38.9716796875 -16.150390625 38.9716796875 c 0
 15.83984375 38.9716796875 47.2998046875 51.6513671875 85.490234375 102.2109375 c 2
 445.790039062 581.4609375 l 2
 470.75 614.62109375 453.950195312 621.1015625 429.709960938 621.1015625 c 0x4d60
 421.459960938 621.1015625 416.889648438 627.1015625 418.439453125 635.1015625 c 2
 420.569335938 646.1015625 l 2
 422.319335938 655.1015625 428.2890625 660.1015625 437.2890625 660.1015625 c 2
 862.2890625 660.1015625 l 2x1e60
 871.2890625 660.1015625 875.55859375 660.971679688 880.05859375 664.091796875 c 2
 886.028320312 669.091796875 l 2
 888.41796875 671.091796875 891.41796875 671.091796875 894.41796875 671.091796875 c 0
 898.41796875 671.091796875 902.038085938 669.1015625 904.038085938 664.1015625 c 2x1ce0
 949.908203125 545.1015625 l 2
 951.2578125 542.071289062 951.727539062 539.111328125 951.337890625 537.111328125 c 0
 950.368164062 532.111328125 946.858398438 528.971679688 942.21875 526.122070312 c 2
 919.989257812 514.622070312 l 2
 914.389648438 511.681640625 912.219726562 510.631835938 909.219726562 510.631835938 c 0
 905.219726562 510.631835938 902.76953125 513.731445312 900.779296875 518.62109375 c 2
 898.76953125 523.62109375 l 2
 869.719726562 594.12109375 843.169921875 613.12109375 775.169921875 613.12109375 c 2
 605.419921875 613.12109375 l 1
 559.349609375 376.12109375 l 1
 664.099609375 376.12109375 l 2
 709.599609375 376.12109375 736.989257812 396.12109375 744.559570312 435.12109375 c 2
 745.729492188 441.12109375 l 2
 747.479492188 450.12109375 752.259765625 454.12109375 761.259765625 454.12109375 c 2
 772.259765625 454.12109375 l 2
 781.259765625 454.12109375 784.469726562 450.12109375 782.719726562 441.12109375 c 2
 748.219726562 263.62109375 l 2
 746.469726562 254.62109375 741.689453125 250.62109375 732.689453125 250.62109375 c 2
 721.689453125 250.62109375 l 2
 712.689453125 250.62109375 709.479492188 254.62109375 711.229492188 263.62109375 c 2
 712.189453125 268.62109375 l 2
 719.94921875 308.62109375 701.149414062 327.62109375 654.649414062 327.62109375 c 2
 549.899414062 327.62109375 l 1
 511.708984375 131.12109375 l 2
 501.229492188 77.12109375 523.889648438 47.12109375 562.889648438 47.12109375 c 2
 633.639648438 47.12109375 l 2x1e60
 762.639648438 47.12109375 812.439453125 74.37109375 890.009765625 186.62109375 c 2
 894.169921875 192.62109375 l 2
 898.469726562 199.37109375 906.299804688 202.37109375 913.870117188 197.62109375 c 2
 929.5703125 188.37109375 l 2
 937.709960938 184.090820312 936.75 179.010742188 931.020507812 170.140625 c 2
 814.200195312 -3.849609375 l 2
 810.370117188 -9.5595703125 806.66015625 -11.83984375 802.66015625 -11.83984375 c 0x8e60
267.689453125 272.731445312 m 1x1e60
 441.989257812 272.731445312 l 1
 503.239257812 587.831054688 l 1
 267.689453125 272.731445312 l 1x1e60
630.69921875 729.12109375 m 1
 694.859375 793.510742188 711.360351562 815.58203125 743.240234375 865.83203125 c 0
 749.740234375 875.841796875 760.490234375 878.321289062 771.560546875 878.321289062 c 0
 800.580078125 878.321289062 812.520507812 864.000976562 807.630859375 838.791015625 c 0
 797.190429688 785.130859375 722.770507812 748.810546875 668.080078125 719.831054688 c 0
 664.16015625 717.850585938 660.1796875 716.291015625 657.099609375 716.500976562 c 0
 654.099609375 716.741210938 649.959960938 718.611328125 645.01953125 721.321289062 c 2
 630.69921875 729.12109375 l 1
EndSplineSet
Substitution2: "'c2sc' Capitals to Small Capitals in Latin lookup 11 subtable" AEacute.sc
AlternateSubs2: "'aalt' Access All Alternates in Latin lookup 0 subtable" AEacute.sc
Position2: "'cpsp' Capital Spacing in Latin lookup 0 subtable" dx=5 dy=0 dh=10 dv=0
EndChar

StartChar: B
Encoding: 66 66 32
Width: 633
GlyphClass: 2
Flags: MW
HStem: 0 32.75<267.349 289.349 289.349 321> 0 38<16 49.3584 23.3584 49.3584 23.3584 321> 341.75 40.25<256.988 320.418 249.168 327.238> 622 38<148.76 162.869> 627.25 32.75<304.648 377.908 304.648 304.648>
VStem: 495 102
AnchorPoint: "Anchor-5" 403 660 basechar 0
AnchorPoint: "Anchor-4" 274 0 basechar 0
LayerCount: 2
Fore
SplineSet
20.5 0 m 2xac
 11.5 0 7.2685546875 4 9.0185546875 13 c 2xac
 11.3486328125 25 l 2
 12.8984375 33 18.8583984375 38 27.8583984375 38 c 0
 70.8583984375 38 98.298828125 66 108.989257812 121 c 2
 190.239257812 539 l 2
 200.918945312 594 184.369140625 622 141.369140625 622 c 0
 132.369140625 622 128.359375 627 129.909179688 635 c 2x74
 132.229492188 647 l 2
 133.979492188 656 139.759765625 660 148.759765625 660 c 2
 409.259765625 660 l 2
 531.259765625 660 612.649414062 590 595.359375 501 c 0
 585.44921875 450 546.099609375 407 482.469726562 378 c 1
 569.219726562 351 610.799804688 282 593.700195312 194 c 0
 571.540039062 80 459 0 321 0 c 2
 20.5 0 l 2xac
289.348632812 32.75 m 2
 400.098632812 32.75 472.708007812 92.5 491.41796875 188.75 c 0
 510.948242188 289.25 456.91796875 341.75 320.41796875 341.75 c 2
 249.16796875 341.75 l 1
 205.528320312 117.25 l 2
 193.478515625 55.25 217.348632812 32.75 267.348632812 32.75 c 2
 289.348632812 32.75 l 2
327.23828125 382 m 2
 420.98828125 382 480.21875 429.5 494.838867188 504.75 c 0
 509.608398438 580.75 469.658203125 627.25 377.908203125 627.25 c 2
 304.6484375 627.25 l 1
 256.98828125 382 l 1
 327.23828125 382 l 2
EndSplineSet
Substitution2: "'ss04' Style Set 4 in Latin lookup 33 subtable" u1F151
Substitution2: "'ss03' Style Set 3 in Latin lookup 31 subtable" uni24B7
Substitution2: "'c2sc' Capitals to Small Capitals in Latin lookup 11 subtable" B.sc
AlternateSubs2: "'aalt' Access All Alternates in Latin lookup 0 subtable" B.sc uni24B7 u1F151
Position2: "'cpsp' Capital Spacing in Latin lookup 0 subtable" dx=5 dy=0 dh=10 dv=0
EndChar

StartChar: uni1E04
Encoding: 7684 7684 33
Width: 633
GlyphClass: 2
Flags: MW
HStem: 0 32.75<267.349 289.349 289.349 321> 0 38<16 49.3584 23.3584 49.3584 23.3584 321> 341.75 40.25<256.988 320.418 249.168 327.238> 622 38<148.76 162.869> 627.25 32.75<304.648 377.908 304.648 304.648>
VStem: 194.85 125.19 495 102
AnchorPoint: "Anchor-5" 403 660 basechar 0
AnchorPoint: "Anchor-4" 274 0 basechar 0
LayerCount: 2
Fore
SplineSet
20.5 0 m 2xaa
 11.5 0 7.2685546875 4 9.0185546875 13 c 2xaa
 11.3486328125 25 l 2
 12.8984375 33 18.8583984375 38 27.8583984375 38 c 0
 70.8583984375 38 98.298828125 66 108.989257812 121 c 2
 190.239257812 539 l 2
 200.918945312 594 184.369140625 622 141.369140625 622 c 0
 132.369140625 622 128.359375 627 129.909179688 635 c 2x72
 132.229492188 647 l 2
 133.979492188 656 139.759765625 660 148.759765625 660 c 2
 409.259765625 660 l 2
 531.259765625 660 612.649414062 590 595.359375 501 c 0
 585.44921875 450 546.099609375 407 482.469726562 378 c 1
 569.219726562 351 610.799804688 282 593.700195312 194 c 0
 571.540039062 80 459 0 321 0 c 2
 20.5 0 l 2xaa
289.348632812 32.75 m 2
 400.098632812 32.75 472.708007812 92.5 491.41796875 188.75 c 0
 510.948242188 289.25 456.91796875 341.75 320.41796875 341.75 c 2
 249.16796875 341.75 l 1
 205.528320312 117.25 l 2
 193.478515625 55.25 217.348632812 32.75 267.348632812 32.75 c 2
 289.348632812 32.75 l 2
327.23828125 382 m 2
 420.98828125 382 480.21875 429.5 494.838867188 504.75 c 0
 509.608398438 580.75 469.658203125 627.25 377.908203125 627.25 c 2
 304.6484375 627.25 l 1
 256.98828125 382 l 1
 327.23828125 382 l 2
269.038085938 -55.7099609375 m 0xae
 284.09765625 -58.6201171875 295.237304688 -66.6298828125 307.357421875 -84.6103515625 c 0
 319.497070312 -102.600585938 322.9375 -114.990234375 320.017578125 -130.040039062 c 0
 317.09765625 -145.08984375 308.127929688 -156.049804688 291.278320312 -167.419921875 c 0
 273.297851562 -179.540039062 259.967773438 -182.799804688 244.91796875 -179.879882812 c 0
 230.797851562 -177.149414062 220.607421875 -169.319335938 207.537109375 -151.149414062 c 0
 195.216796875 -134.099609375 191.95703125 -120.779296875 194.876953125 -105.729492188 c 0
 197.796875 -90.669921875 205.626953125 -80.4794921875 223.6171875 -68.359375 c 0
 241.59765625 -56.2197265625 254.927734375 -52.9599609375 269.038085938 -55.7099609375 c 0xae
EndSplineSet
Substitution2: "'c2sc' Capitals to Small Capitals in Latin lookup 11 subtable" uni1E04.sc
AlternateSubs2: "'aalt' Access All Alternates in Latin lookup 0 subtable" uni1E04.sc
Position2: "'cpsp' Capital Spacing in Latin lookup 0 subtable" dx=5 dy=0 dh=10 dv=0
EndChar

StartChar: C
Encoding: 67 67 34
Width: 644
GlyphClass: 2
Flags: MW
HStem: -11 43.75<255.13 387.617> 631 40<361.284 491.909>
VStem: 44 116 567 94.3
AnchorPoint: "Anchor-5" 432 660 basechar 0
AnchorPoint: "Anchor-4" 309 0 basechar 0
LayerCount: 2
Fore
SplineSet
625.5703125 208.75 m 2
 630.919921875 206.75 632.356445312 203.75 628.38671875 197.5 c 0
 573.6171875 95.75 468.8671875 -11 306.3671875 -11 c 0
 102.8671875 -11 15.0576171875 134 51.7978515625 323 c 0
 80.3681640625 470 197.938476562 671 444.438476562 671 c 0
 635.688476562 671 668.87890625 519 661.298828125 480 c 0
 659.369140625 470 655.989257812 466.75 647.809570312 464.5 c 2
 574.239257812 441 l 2
 558.319335938 436.25 554.809570312 440 556.219726562 447.25 c 0
 557.290039062 452.75 561.370117188 463.5 564.129882812 477.75 c 0
 577.979492188 549 549.159179688 631 434.659179688 631 c 0
 287.909179688 631 193.71875 470.5 172.19921875 359.75 c 0
 134.439453125 165.5 184.379882812 32.75 325.879882812 32.75 c 0
 465.629882812 32.75 548.4296875 121.75 594.83984375 208.75 c 0
 599.639648438 216.75 603.580078125 217.75 608.83984375 215.25 c 2
 625.5703125 208.75 l 2
EndSplineSet
Substitution2: "'ss04' Style Set 4 in Latin lookup 33 subtable" u1F152
Substitution2: "'ss03' Style Set 3 in Latin lookup 31 subtable" uni24B8
Substitution2: "'c2sc' Capitals to Small Capitals in Latin lookup 11 subtable" C.sc
AlternateSubs2: "'aalt' Access All Alternates in Latin lookup 0 subtable" C.sc uni24B8 u1F152
Position2: "'cpsp' Capital Spacing in Latin lookup 0 subtable" dx=5 dy=0 dh=10 dv=0
EndChar

StartChar: Cacute
Encoding: 262 262 35
Width: 644
GlyphClass: 2
Flags: MW
HStem: -11 43.75<255.13 387.617> 631 40<361.284 491.909>
VStem: 44 116 567 94.3
AnchorPoint: "Anchor-5" 510 899 basechar 0
AnchorPoint: "Anchor-4" 309 0 basechar 0
LayerCount: 2
Fore
SplineSet
625.5703125 208.75 m 2
 630.919921875 206.75 632.356445312 203.75 628.38671875 197.5 c 0
 573.6171875 95.75 468.8671875 -11 306.3671875 -11 c 0
 102.8671875 -11 15.0576171875 134 51.7978515625 323 c 0
 80.3681640625 470 197.938476562 671 444.438476562 671 c 0
 635.688476562 671 668.87890625 519 661.298828125 480 c 0
 659.369140625 470 655.989257812 466.75 647.809570312 464.5 c 2
 574.239257812 441 l 2
 558.319335938 436.25 554.809570312 440 556.219726562 447.25 c 0
 557.290039062 452.75 561.370117188 463.5 564.129882812 477.75 c 0
 577.979492188 549 549.159179688 631 434.659179688 631 c 0
 287.909179688 631 193.71875 470.5 172.19921875 359.75 c 0
 134.439453125 165.5 184.379882812 32.75 325.879882812 32.75 c 0
 465.629882812 32.75 548.4296875 121.75 594.83984375 208.75 c 0
 599.639648438 216.75 603.580078125 217.75 608.83984375 215.25 c 2
 625.5703125 208.75 l 2
383.237304688 729.139648438 m 1
 447.397460938 793.529296875 463.899414062 815.600585938 495.76953125 865.850585938 c 0
 502.26953125 875.860351562 513.01953125 878.340820312 524.08984375 878.340820312 c 0
 553.109375 878.340820312 565.0390625 864.020507812 560.138671875 838.810546875 c 0
 549.71875 785.150390625 475.298828125 748.830078125 420.608398438 719.849609375 c 0
 416.688476562 717.869140625 412.698242188 716.309570312 409.627929688 716.51953125 c 0
 406.627929688 716.759765625 402.477539062 718.629882812 397.557617188 721.33984375 c 2
 383.237304688 729.139648438 l 1
EndSplineSet
Substitution2: "'c2sc' Capitals to Small Capitals in Latin lookup 11 subtable" Cacute.sc
AlternateSubs2: "'aalt' Access All Alternates in Latin lookup 0 subtable" Cacute.sc
Position2: "'cpsp' Capital Spacing in Latin lookup 0 subtable" dx=5 dy=0 dh=10 dv=0
EndChar

StartChar: Ccaron
Encoding: 268 268 36
Width: 644
GlyphClass: 2
Flags: MW
HStem: -11 43.75<255.13 387.617> 631 40<361.284 491.909>
VStem: 44 116 567 94.3
AnchorPoint: "Anchor-5" 474 845 basechar 0
AnchorPoint: "Anchor-4" 309 0 basechar 0
LayerCount: 2
Fore
SplineSet
625.5703125 208.75 m 2
 630.919921875 206.75 632.356445312 203.75 628.38671875 197.5 c 0
 573.6171875 95.75 468.8671875 -11 306.3671875 -11 c 0
 102.8671875 -11 15.0576171875 134 51.7978515625 323 c 0
 80.3681640625 470 197.938476562 671 444.438476562 671 c 0
 635.688476562 671 668.87890625 519 661.298828125 480 c 0
 659.369140625 470 655.989257812 466.75 647.809570312 464.5 c 2
 574.239257812 441 l 2
 558.319335938 436.25 554.809570312 440 556.219726562 447.25 c 0
 557.290039062 452.75 561.370117188 463.5 564.129882812 477.75 c 0
 577.979492188 549 549.159179688 631 434.659179688 631 c 0
 287.909179688 631 193.71875 470.5 172.19921875 359.75 c 0
 134.439453125 165.5 184.379882812 32.75 325.879882812 32.75 c 0
 465.629882812 32.75 548.4296875 121.75 594.83984375 208.75 c 0
 599.639648438 216.75 603.580078125 217.75 608.83984375 215.25 c 2
 625.5703125 208.75 l 2
456.306640625 787.049804688 m 1
 483.696289062 824.830078125 525.876953125 867.240234375 569.827148438 867.240234375 c 0
 592.95703125 867.240234375 599.397460938 844.879882812 594.45703125 819.439453125 c 0
 592.20703125 807.889648438 589.487304688 797.859375 580.267578125 794.01953125 c 0
 532.247070312 777.049804688 506.876953125 765.5 443.596679688 721.540039062 c 1
 397.38671875 765.5 376.497070312 777.049804688 335.086914062 794.01953125 c 0
 327.346679688 797.859375 328.516601562 807.889648438 330.766601562 819.439453125 c 0
 335.716796875 844.879882812 350.846679688 867.240234375 373.9765625 867.240234375 c 0
 417.926757812 867.240234375 443.606445312 824.830078125 456.306640625 787.049804688 c 1
EndSplineSet
Substitution2: "'c2sc' Capitals to Small Capitals in Latin lookup 11 subtable" Ccaron.sc
AlternateSubs2: "'aalt' Access All Alternates in Latin lookup 0 subtable" Ccaron.sc
Position2: "'cpsp' Capital Spacing in Latin lookup 0 subtable" dx=5 dy=0 dh=10 dv=0
EndChar

StartChar: Ccedilla
Encoding: 199 199 37
Width: 644
GlyphClass: 2
Flags: MW
HStem: -6 21G
AnchorPoint: "Anchor-5" 432 660 basechar 0
AnchorPoint: "Anchor-4" 309 0 basechar 0
LayerCount: 2
Fore
SplineSet
625.580078125 208.75 m 2
 630.940429688 206.75 632.358398438 203.739257812 628.388671875 197.489257812 c 0
 574.818359375 97.9794921875 473.448242188 -6.310546875 317.0078125 -10.8603515625 c 1
 273.198242188 -53.0107421875 l 1
 287.16796875 -48.0107421875 301.557617188 -46.0107421875 315.557617188 -46.0107421875 c 0
 361.557617188 -46.0107421875 409.5078125 -72.0107421875 397.2578125 -135.010742188 c 0
 387.147460938 -187.010742188 333.7578125 -225.010742188 265.7578125 -225.010742188 c 0
 238.7578125 -225.010742188 209.73828125 -220.010742188 181.2578125 -207.010742188 c 0
 165.618164062 -200.010742188 165.978515625 -193.060546875 170.098632812 -171.840820312 c 0
 171.55859375 -164.350585938 175.018554688 -159.350585938 180.018554688 -159.350585938 c 0
 183.758789062 -159.350585938 187.088867188 -160.890625 189.518554688 -161.850585938 c 0
 214.038085938 -170.590820312 241.038085938 -179.331054688 272.248046875 -179.331054688 c 0
 309.708007812 -179.331054688 335.337890625 -163.090820312 340.4375 -136.87109375 c 0
 347.717773438 -99.4208984375 315.66796875 -84.4404296875 266.98828125 -84.4404296875 c 0
 252.018554688 -84.4404296875 230.05859375 -88.1904296875 217.588867188 -88.1904296875 c 0
 211.348632812 -88.1904296875 208.329101562 -84.4404296875 209.298828125 -79.4404296875 c 0
 210.029296875 -75.6904296875 210.159179688 -72.8701171875 213.739257812 -69.4501953125 c 2
 273.418945312 -9.669921875 l 1
 93.458984375 5.2998046875 17.0888671875 144.530273438 51.7890625 323 c 0
 80.359375 470 197.9296875 671 444.4296875 671 c 0
 635.6796875 671 668.879882812 519 661.299804688 480 c 0
 659.359375 470 655.979492188 466.75 647.7890625 464.5 c 2
 574.21875 441 l 2
 558.298828125 436.25 554.779296875 440 556.189453125 447.25 c 0
 557.259765625 452.75 561.349609375 463.5 564.120117188 477.75 c 0
 577.959960938 549 549.150390625 631 434.650390625 631 c 0
 287.900390625 631 193.709960938 470.5 172.1796875 359.75 c 0
 134.419921875 165.5 184.370117188 32.75 325.870117188 32.75 c 0
 465.620117188 32.75 548.419921875 121.75 594.830078125 208.75 c 0
 599.629882812 216.75 603.580078125 217.75 608.83984375 215.25 c 2
 625.580078125 208.75 l 2
EndSplineSet
Substitution2: "'c2sc' Capitals to Small Capitals in Latin lookup 11 subtable" Ccedilla.sc
AlternateSubs2: "'aalt' Access All Alternates in Latin lookup 0 subtable" Ccedilla.sc
Position2: "'cpsp' Capital Spacing in Latin lookup 0 subtable" dx=5 dy=0 dh=10 dv=0
EndChar

StartChar: uni1E08
Encoding: 7688 7688 38
Width: 644
GlyphClass: 2
Flags: MW
HStem: -225 45.68 -84.42 38.43 -9.66002 42.42 631 40
VStem: 44 116 567 94.3
AnchorPoint: "Anchor-5" 510 899 basechar 0
AnchorPoint: "Anchor-4" 309 0 basechar 0
LayerCount: 2
Fore
SplineSet
625.5703125 208.75 m 1
 625.626953125 208.779296875 l 1
 630.9765625 206.779296875 632.396484375 203.779296875 628.426757812 197.529296875 c 0
 574.856445312 98.01953125 473.49609375 -6.2607421875 317.055664062 -10.810546875 c 1
 273.255859375 -52.9609375 l 1
 287.215820312 -47.9609375 301.60546875 -45.9609375 315.60546875 -45.9609375 c 0
 361.60546875 -45.9609375 409.545898438 -71.9609375 397.295898438 -134.9609375 c 0
 387.196289062 -186.9609375 333.806640625 -224.9609375 265.806640625 -224.9609375 c 0
 238.806640625 -224.9609375 209.796875 -219.9609375 181.31640625 -206.9609375 c 0
 165.676757812 -199.9609375 166.026367188 -193.010742188 170.146484375 -171.80078125 c 0
 171.606445312 -164.3203125 175.06640625 -159.3203125 180.06640625 -159.3203125 c 0
 183.796875 -159.3203125 187.126953125 -160.850585938 189.546875 -161.810546875 c 0
 214.056640625 -170.541015625 241.056640625 -179.271484375 272.266601562 -179.271484375 c 0
 309.716796875 -179.271484375 335.346679688 -163.041015625 340.436523438 -136.831054688 c 0
 347.716796875 -99.380859375 315.666992188 -84.4111328125 266.997070312 -84.4111328125 c 0
 252.037109375 -84.4111328125 230.077148438 -88.1611328125 217.6171875 -88.1611328125 c 0
 211.376953125 -88.1611328125 208.3671875 -84.4111328125 209.327148438 -79.4208984375 c 0
 210.057617188 -75.6708984375 210.177734375 -72.8505859375 213.7578125 -69.4404296875 c 2
 273.427734375 -9.66015625 l 1
 93.4677734375 5.2998046875 17.107421875 144.530273438 51.7978515625 323 c 0
 80.3681640625 470 197.938476562 671 444.438476562 671 c 0
 635.688476562 671 668.87890625 519 661.298828125 480 c 0
 659.369140625 470 655.989257812 466.75 647.809570312 464.5 c 2
 574.239257812 441 l 2
 558.319335938 436.25 554.809570312 440 556.219726562 447.25 c 0
 557.290039062 452.75 561.370117188 463.5 564.129882812 477.75 c 0
 577.979492188 549 549.159179688 631 434.659179688 631 c 0
 287.909179688 631 193.71875 470.5 172.19921875 359.75 c 0
 134.439453125 165.5 184.379882812 32.75 325.879882812 32.75 c 0
 465.629882812 32.75 548.4296875 121.75 594.83984375 208.75 c 0
 599.639648438 216.75 603.580078125 217.75 608.83984375 215.25 c 2
 625.5703125 208.75 l 1
383.27734375 729.168945312 m 1
 447.4375 793.55859375 463.938476562 815.630859375 495.80859375 865.880859375 c 0
 502.30859375 875.890625 513.05859375 878.370117188 524.12890625 878.370117188 c 0
 553.149414062 878.370117188 565.079101562 864.049804688 560.178710938 838.83984375 c 0
 549.758789062 785.1796875 475.338867188 748.859375 420.6484375 719.87890625 c 0
 416.728515625 717.8984375 412.73828125 716.338867188 409.66796875 716.548828125 c 0
 406.66796875 716.7890625 402.517578125 718.659179688 397.59765625 721.369140625 c 2
 383.27734375 729.168945312 l 1
EndSplineSet
Substitution2: "'c2sc' Capitals to Small Capitals in Latin lookup 11 subtable" uni1E08.sc
AlternateSubs2: "'aalt' Access All Alternates in Latin lookup 0 subtable" uni1E08.sc
Position2: "'cpsp' Capital Spacing in Latin lookup 0 subtable" dx=5 dy=0 dh=10 dv=0
EndChar

StartChar: Ccircumflex
Encoding: 264 264 39
Width: 644
GlyphClass: 2
Flags: MW
HStem: -11 43.75<255.13 387.617> 631 40<361.284 491.909>
VStem: 44 116 567 94.3
AnchorPoint: "Anchor-7" 451 759 basechar 0
AnchorPoint: "Anchor-5" 462 816 basechar 0
AnchorPoint: "Anchor-4" 309 0 basechar 0
LayerCount: 2
Fore
SplineSet
625.5703125 208.75 m 2
 630.919921875 206.75 632.356445312 203.75 628.38671875 197.5 c 0
 573.6171875 95.75 468.8671875 -11 306.3671875 -11 c 0
 102.8671875 -11 15.0576171875 134 51.7978515625 323 c 0
 80.3681640625 470 197.938476562 671 444.438476562 671 c 0
 635.688476562 671 668.87890625 519 661.298828125 480 c 0
 659.369140625 470 655.989257812 466.75 647.809570312 464.5 c 2
 574.239257812 441 l 2
 558.319335938 436.25 554.809570312 440 556.219726562 447.25 c 0
 557.290039062 452.75 561.370117188 463.5 564.129882812 477.75 c 0
 577.979492188 549 549.159179688 631 434.659179688 631 c 0
 287.909179688 631 193.71875 470.5 172.19921875 359.75 c 0
 134.439453125 165.5 184.379882812 32.75 325.879882812 32.75 c 0
 465.629882812 32.75 548.4296875 121.75 594.83984375 208.75 c 0
 599.639648438 216.75 603.580078125 217.75 608.83984375 215.25 c 2
 625.5703125 208.75 l 2
458.126953125 795.4296875 m 1
 430.737304688 757.649414062 388.548828125 715.249023438 344.608398438 715.249023438 c 0
 321.48828125 715.249023438 315.047851562 737.598632812 319.977539062 763.0390625 c 0
 322.227539062 774.588867188 324.947265625 784.619140625 334.166992188 788.46875 c 0
 382.197265625 805.428710938 407.567382812 816.978515625 470.857421875 860.938476562 c 1
 517.047851562 816.978515625 537.9375 805.428710938 579.357421875 788.46875 c 0
 587.087890625 784.619140625 585.91796875 774.588867188 583.66796875 763.0390625 c 0
 578.727539062 737.598632812 563.587890625 715.249023438 540.448242188 715.249023438 c 0
 496.5078125 715.249023438 470.817382812 757.649414062 458.126953125 795.4296875 c 1
EndSplineSet
Substitution2: "'c2sc' Capitals to Small Capitals in Latin lookup 11 subtable" Ccircumflex.sc
AlternateSubs2: "'aalt' Access All Alternates in Latin lookup 0 subtable" Ccircumflex.sc
Position2: "'cpsp' Capital Spacing in Latin lookup 0 subtable" dx=5 dy=0 dh=10 dv=0
EndChar

StartChar: Cdotaccent
Encoding: 266 266 40
Width: 644
GlyphClass: 2
Flags: MW
HStem: -11 43.75<255.13 387.617> 631 40<361.284 491.909>
VStem: 44 116 396.17 125.19 567 94.3
AnchorPoint: "Anchor-5" 468 845 basechar 0
AnchorPoint: "Anchor-4" 309 0 basechar 0
LayerCount: 2
Fore
SplineSet
625.5703125 208.75 m 2
 630.919921875 206.75 632.356445312 203.75 628.38671875 197.5 c 0
 573.6171875 95.75 468.8671875 -11 306.3671875 -11 c 0
 102.8671875 -11 15.0576171875 134 51.7978515625 323 c 0
 80.3681640625 470 197.938476562 671 444.438476562 671 c 0
 635.688476562 671 668.87890625 519 661.298828125 480 c 0
 659.369140625 470 655.989257812 466.75 647.809570312 464.5 c 2
 574.239257812 441 l 2
 558.319335938 436.25 554.809570312 440 556.219726562 447.25 c 0
 557.290039062 452.75 561.370117188 463.5 564.129882812 477.75 c 0
 577.979492188 549 549.159179688 631 434.659179688 631 c 0
 287.909179688 631 193.71875 470.5 172.19921875 359.75 c 0
 134.439453125 165.5 184.379882812 32.75 325.879882812 32.75 c 0
 465.629882812 32.75 548.4296875 121.75 594.83984375 208.75 c 0
 599.639648438 216.75 603.580078125 217.75 608.83984375 215.25 c 2
 625.5703125 208.75 l 2
470.376953125 847.209960938 m 0
 485.436523438 844.290039062 496.576171875 836.26953125 508.706054688 818.2890625 c 0
 520.826171875 800.309570312 524.266601562 787.909179688 521.356445312 772.859375 c 0
 518.436523438 757.809570312 509.466796875 746.859375 492.6171875 735.489257812 c 0
 474.63671875 723.369140625 461.306640625 720.109375 446.256835938 723.029296875 c 0
 432.13671875 725.759765625 421.946289062 733.609375 408.875976562 751.76953125 c 0
 396.555664062 768.809570312 393.295898438 782.139648438 396.215820312 797.189453125 c 0
 399.135742188 812.239257812 406.965820312 822.439453125 424.956054688 834.559570312 c 0
 442.936523438 846.6796875 456.266601562 849.939453125 470.376953125 847.209960938 c 0
EndSplineSet
Substitution2: "'c2sc' Capitals to Small Capitals in Latin lookup 11 subtable" Cdotaccent.sc
AlternateSubs2: "'aalt' Access All Alternates in Latin lookup 0 subtable" Cdotaccent.sc
Position2: "'cpsp' Capital Spacing in Latin lookup 0 subtable" dx=5 dy=0 dh=10 dv=0
EndChar

StartChar: D
Encoding: 68 68 41
Width: 643
GlyphClass: 2
Flags: MW
HStem: 0 38<-6.49121 11.3896 5.38965 11.3896 11.3896 30.3896 5.38965 240.509> 0 42<204.909 240.509> 622 38<126.28 140.39 281.148 281.148 281.148 322.148>
VStem: 539 102
AnchorPoint: "Anchor-5" 365 660 basechar 0
AnchorPoint: "Anchor-4" 249 0 basechar 0
LayerCount: 2
Fore
SplineSet
344.780273438 660 m 2x70
 554.780273438 660 673.478515625 535 633.838867188 331 c 0
 593.018554688 121 441.508789062 0 240.508789062 0 c 2
 -1.9912109375 0 l 2
 -10.9912109375 0 -15.201171875 4 -13.451171875 13 c 2x70
 -11.12109375 25 l 2
 -9.5810546875 33 -3.6005859375 38 5.3896484375 38 c 2
 11.3896484375 38 l 2
 49.3896484375 38 76.3994140625 69 86.509765625 121 c 2xb0
 167.759765625 539 l 2
 178.439453125 594 161.889648438 622 118.889648438 622 c 0
 109.889648438 622 105.879882812 627 107.4296875 635 c 2
 109.75 647 l 2
 111.5 656 117.280273438 660 126.280273438 660 c 2
 344.780273438 660 l 2x70
182.98828125 117 m 2
 174.047851562 71 176.409179688 42 233.409179688 42 c 0
 380.909179688 42 493.708984375 140 530.838867188 331 c 0
 563.87890625 501 495.6484375 622 322.1484375 622 c 2
 281.1484375 622 l 1
 182.98828125 117 l 2
EndSplineSet
Substitution2: "'ss04' Style Set 4 in Latin lookup 33 subtable" u1F153
Substitution2: "'ss03' Style Set 3 in Latin lookup 31 subtable" uni24B9
Substitution2: "'c2sc' Capitals to Small Capitals in Latin lookup 11 subtable" D.sc
AlternateSubs2: "'aalt' Access All Alternates in Latin lookup 0 subtable" D.sc uni24B9 u1F153
Position2: "'cpsp' Capital Spacing in Latin lookup 0 subtable" dx=5 dy=0 dh=10 dv=0
EndChar

StartChar: uni01C4
Encoding: 452 452 42
Width: 1290
GlyphClass: 2
Flags: MW
HStem: -12 21G -3 21G 0 38<-6.50195 11.3887 5.38867 11.3887 11.3887 30.3887 5.38867 240.498> 0 42<204.909 240.498> 622 38<126.29 140.399 281.148 281.148 281.148 322.148> 722 146
VStem: 539 102 985 267
AnchorPoint: "Anchor-5" 1130 845 basechar 0
AnchorPoint: "Anchor-4" 892 0 basechar 0
LayerCount: 2
Fore
SplineSet
344.790039062 660 m 2x8f
 554.790039062 660 673.48828125 535 633.837890625 331 c 0
 593.017578125 121 441.498046875 0 240.498046875 0 c 2
 -2.001953125 0 l 2x1f
 -11.001953125 0 -15.2216796875 4 -13.4716796875 13 c 2
 -11.1416015625 25 l 2
 -9.591796875 33 -3.611328125 38 5.388671875 38 c 2
 11.388671875 38 l 2x2f
 49.388671875 38 76.408203125 69 86.5185546875 121 c 2
 167.768554688 539 l 2
 178.458984375 594 161.899414062 622 118.899414062 622 c 0
 109.899414062 622 105.879882812 627 107.4296875 635 c 2
 109.759765625 647 l 2
 111.509765625 656 117.290039062 660 126.290039062 660 c 2
 344.790039062 660 l 2x8f
182.98828125 117 m 2
 174.047851562 71 176.409179688 42 233.409179688 42 c 0
 380.909179688 42 493.708984375 140 530.838867188 331 c 0
 563.888671875 501 495.6484375 622 322.1484375 622 c 2
 281.1484375 622 l 1
 182.98828125 117 l 2
1252.84960938 151 m 2
 1258.12011719 147.25 1258.48828125 144 1257.90820312 141 c 0
 1257.31835938 138 1255.93847656 136 1253.34863281 133 c 2
 1156.71875 -4 l 2x4f
 1152.74902344 -9 1149.359375 -11 1144.359375 -11 c 0x8f
 1142.359375 -11 1139.359375 -11 1136.74902344 -9 c 2
 1133.71875 -4 l 2x4f
 1130.49902344 0 1123.49902344 0 1117.49902344 0 c 2
 617.499023438 0 l 2
 609.499023438 0 605.279296875 4 607.029296875 13 c 2
 612.1796875 39.5 l 2
 613.33984375 45.5 616.759765625 51.5 621.479492188 56.5 c 2
 1175.609375 611.5 l 1
 953.859375 611.5 l 2
 873.859375 611.5 831.109375 576.75 779.19921875 525.75 c 2
 775.418945312 521.75 l 2
 770.44921875 516.75 766.859375 513.75 762.859375 513.75 c 0
 760.859375 513.75 757.909179688 514 755.249023438 515.75 c 2
 742.359375 524 l 2
 738.139648438 526.75 736.51953125 530 737.299804688 534 c 0
 737.879882812 537 739.26953125 539 741.849609375 542 c 2
 834.569335938 664 l 2
 838.739257812 670 842.9296875 671 847.9296875 671 c 0
 850.9296875 671 852.9296875 671 858.569335938 664 c 0
 862.7890625 660 868.7890625 660 874.7890625 660 c 2
 1330.7890625 660 l 2
 1334.7890625 660 1335.39941406 658 1335.00976562 656 c 2
 1334.04003906 651 l 2
 1333.45996094 648 1329.6796875 644 1327.09960938 641 c 2
 744.1796875 57.5 l 1
 914.6796875 57.5 l 2
 1078.6796875 57.5 1152.70996094 78.25 1211.15039062 151.25 c 2
 1215.12011719 156.25 l 2
 1219.08984375 161.25 1223.6796875 164.25 1227.6796875 164.25 c 0
 1230.6796875 164.25 1232.62988281 164 1235.29003906 162.25 c 2
 1252.84960938 151 l 2
1112.29785156 787.059570312 m 1
 1139.6875 824.83984375 1181.85839844 867.250976562 1225.81835938 867.250976562 c 0
 1248.94824219 867.250976562 1255.3984375 844.890625 1250.44824219 819.440429688 c 0
 1248.19824219 807.880859375 1245.47851562 797.850585938 1236.24804688 794.000976562 c 0
 1188.22851562 777.03125 1162.84863281 765.470703125 1099.55859375 721.510742188 c 1
 1053.34863281 765.470703125 1032.45898438 777.030273438 991.0390625 794 c 0
 983.298828125 797.849609375 984.478515625 807.879882812 986.728515625 819.439453125 c 0
 991.678710938 844.889648438 1006.81835938 867.25 1029.94824219 867.25 c 0
 1073.90820312 867.25 1099.58789062 824.83984375 1112.29785156 787.059570312 c 1
EndSplineSet
Substitution2: "'c2sc' Capitals to Small Capitals in Latin lookup 11 subtable" uni01C4.sc
AlternateSubs2: "'aalt' Access All Alternates in Latin lookup 0 subtable" uni01C4.sc
Position2: "'cpsp' Capital Spacing in Latin lookup 0 subtable" dx=5 dy=0 dh=10 dv=0
EndChar

StartChar: Dcaron
Encoding: 270 270 43
Width: 643
GlyphClass: 2
Flags: MW
HStem: 0 38<-6.49121 11.3896 5.38965 11.3896 11.3896 30.3896 5.38965 240.509> 0 42<204.909 240.509> 622 38<126.28 140.39 281.148 281.148 281.148 322.148>
VStem: 539 102
AnchorPoint: "Anchor-5" 408 845 basechar 0
AnchorPoint: "Anchor-4" 249 0 basechar 0
LayerCount: 2
Fore
SplineSet
344.780273438 660 m 2x70
 554.780273438 660 673.478515625 535 633.838867188 331 c 0
 593.018554688 121 441.508789062 0 240.508789062 0 c 2
 -1.9912109375 0 l 2
 -10.9912109375 0 -15.201171875 4 -13.451171875 13 c 2x70
 -11.12109375 25 l 2
 -9.5810546875 33 -3.6005859375 38 5.3896484375 38 c 2
 11.3896484375 38 l 2
 49.3896484375 38 76.3994140625 69 86.509765625 121 c 2xb0
 167.759765625 539 l 2
 178.439453125 594 161.889648438 622 118.889648438 622 c 0
 109.889648438 622 105.879882812 627 107.4296875 635 c 2
 109.75 647 l 2
 111.5 656 117.280273438 660 126.280273438 660 c 2
 344.780273438 660 l 2x70
182.98828125 117 m 2
 174.047851562 71 176.409179688 42 233.409179688 42 c 0
 380.909179688 42 493.708984375 140 530.838867188 331 c 0
 563.87890625 501 495.6484375 622 322.1484375 622 c 2
 281.1484375 622 l 1
 182.98828125 117 l 2
389.799804688 787.049804688 m 1
 417.189453125 824.830078125 459.369140625 867.240234375 503.319335938 867.240234375 c 0
 526.44921875 867.240234375 532.889648438 844.879882812 527.94921875 819.439453125 c 0
 525.69921875 807.889648438 522.979492188 797.859375 513.759765625 794.01953125 c 0
 465.740234375 777.049804688 440.370117188 765.5 377.08984375 721.540039062 c 1
 330.879882812 765.5 309.990234375 777.049804688 268.580078125 794.01953125 c 0
 260.83984375 797.859375 262.009765625 807.889648438 264.259765625 819.439453125 c 0
 269.209960938 844.879882812 284.33984375 867.240234375 307.469726562 867.240234375 c 0
 351.419921875 867.240234375 377.099609375 824.830078125 389.799804688 787.049804688 c 1
EndSplineSet
Substitution2: "'c2sc' Capitals to Small Capitals in Latin lookup 11 subtable" Dcaron.sc
AlternateSubs2: "'aalt' Access All Alternates in Latin lookup 0 subtable" Dcaron.sc
Position2: "'cpsp' Capital Spacing in Latin lookup 0 subtable" dx=5 dy=0 dh=10 dv=0
EndChar

StartChar: Dcroat
Encoding: 272 272 44
Width: 695
GlyphClass: 2
Flags: MW
HStem: 0 38<-6.48145 11.3994 5.39941 11.3994 11.3994 30.3994 5.39941 240.519> 0 42<204.908 240.519> 297 58<35.5 132.018 40.0176 120.72 229.258 395.998> 622 38<126.298 140.407 281.147 281.147 281.147 322.147>
VStem: 539 102
AnchorPoint: "Anchor-5" 365 660 basechar 0
AnchorPoint: "Anchor-4" 249 0 basechar 0
LayerCount: 2
Fore
SplineSet
40 297 m 2x78
 31 297 26.017578125 302 26.017578125 310 c 2
 26.017578125 341 l 2
 26.017578125 350 31.017578125 355 40.017578125 355 c 2
 132.017578125 355 l 1
 167.77734375 539 l 2
 178.45703125 594 161.907226562 622 118.907226562 622 c 0
 109.907226562 622 105.897460938 627 107.447265625 635 c 2
 109.767578125 647 l 2
 111.517578125 656 117.297851562 660 126.297851562 660 c 2
 344.797851562 660 l 2
 554.797851562 660 673.48828125 535 633.848632812 331 c 0
 593.028320312 121 441.518554688 0 240.518554688 0 c 2
 -1.9814453125 0 l 2
 -10.9814453125 0 -15.19140625 4 -13.44140625 13 c 2x78
 -11.111328125 25 l 2
 -9.5712890625 33 -3.5908203125 38 5.3994140625 38 c 2
 11.3994140625 38 l 2
 49.3994140625 38 76.4091796875 69 86.51953125 121 c 2xb8
 120.719726562 297 l 1
 40 297 l 2x78
182.998046875 117 m 2
 174.057617188 71 176.408203125 42 233.408203125 42 c 0
 380.908203125 42 493.708007812 140 530.837890625 331 c 0
 563.877929688 501 495.647460938 622 322.147460938 622 c 2
 281.147460938 622 l 1
 229.2578125 355 l 1
 395.998046875 355 l 2
 404.998046875 355 408.998046875 350 408.998046875 341 c 2
 408.998046875 310 l 2
 408.998046875 302 404.998046875 297 395.998046875 297 c 2
 217.978515625 297 l 1
 182.998046875 117 l 2
EndSplineSet
Substitution2: "'c2sc' Capitals to Small Capitals in Latin lookup 11 subtable" Dcroat.sc
AlternateSubs2: "'aalt' Access All Alternates in Latin lookup 0 subtable" Dcroat.sc
Position2: "'cpsp' Capital Spacing in Latin lookup 0 subtable" dx=5 dy=0 dh=10 dv=0
EndChar

StartChar: uni1E0C
Encoding: 7692 7692 45
Width: 643
GlyphClass: 2
Flags: MW
HStem: 0 38<-6.49121 11.3896 5.38965 11.3896 11.3896 30.3896 5.38965 240.509> 0 42<204.909 240.509> 622 38<126.28 140.39 281.148 281.148 281.148 322.148>
VStem: 169.85 125.19 539 102
AnchorPoint: "Anchor-5" 365 660 basechar 0
AnchorPoint: "Anchor-4" 249 0 basechar 0
LayerCount: 2
Fore
SplineSet
344.780273438 660 m 2x68
 554.780273438 660 673.478515625 535 633.838867188 331 c 0
 593.018554688 121 441.508789062 0 240.508789062 0 c 2
 -1.9912109375 0 l 2
 -10.9912109375 0 -15.201171875 4 -13.451171875 13 c 2x68
 -11.12109375 25 l 2
 -9.5810546875 33 -3.6005859375 38 5.3896484375 38 c 2
 11.3896484375 38 l 2
 49.3896484375 38 76.3994140625 69 86.509765625 121 c 2xa8
 167.759765625 539 l 2
 178.439453125 594 161.889648438 622 118.889648438 622 c 0
 109.889648438 622 105.879882812 627 107.4296875 635 c 2
 109.75 647 l 2
 111.5 656 117.280273438 660 126.280273438 660 c 2
 344.780273438 660 l 2x68
182.98828125 117 m 2
 174.047851562 71 176.409179688 42 233.409179688 42 c 0
 380.909179688 42 493.708984375 140 530.838867188 331 c 0
 563.87890625 501 495.6484375 622 322.1484375 622 c 2
 281.1484375 622 l 1
 182.98828125 117 l 2
244.049804688 -55.7099609375 m 0x78
 259.109375 -58.6201171875 270.249023438 -66.6298828125 282.369140625 -84.6103515625 c 0
 294.508789062 -102.600585938 297.94921875 -114.990234375 295.029296875 -130.040039062 c 0
 292.109375 -145.08984375 283.139648438 -156.049804688 266.290039062 -167.419921875 c 0
 248.309570312 -179.540039062 234.979492188 -182.799804688 219.9296875 -179.879882812 c 0
 205.809570312 -177.149414062 195.619140625 -169.319335938 182.548828125 -151.149414062 c 0
 170.228515625 -134.099609375 166.96875 -120.779296875 169.888671875 -105.729492188 c 0
 172.80859375 -90.669921875 180.638671875 -80.4794921875 198.62890625 -68.359375 c 0
 216.609375 -56.2197265625 229.939453125 -52.9599609375 244.049804688 -55.7099609375 c 0x78
EndSplineSet
Substitution2: "'c2sc' Capitals to Small Capitals in Latin lookup 11 subtable" uni1E0C.sc
AlternateSubs2: "'aalt' Access All Alternates in Latin lookup 0 subtable" uni1E0C.sc
Position2: "'cpsp' Capital Spacing in Latin lookup 0 subtable" dx=5 dy=0 dh=10 dv=0
EndChar

StartChar: uni1E0E
Encoding: 7694 7694 46
Width: 643
GlyphClass: 2
Flags: MW
HStem: -130.49 56.5 0 38<-6.49121 11.3896 5.38965 11.3896 11.3896 30.3896 5.38965 240.509> 0 42<204.909 240.509> 622 38<126.28 140.39 281.148 281.148 281.148 322.148>
VStem: 539 102
AnchorPoint: "Anchor-5" 365 660 basechar 0
AnchorPoint: "Anchor-4" 249 0 basechar 0
LayerCount: 2
Fore
SplineSet
344.780273438 660 m 2xb8
 554.780273438 660 673.478515625 535 633.838867188 331 c 0
 593.018554688 121 441.508789062 0 240.508789062 0 c 2
 -1.9912109375 0 l 2
 -10.9912109375 0 -15.201171875 4 -13.451171875 13 c 2xb8
 -11.12109375 25 l 2
 -9.5810546875 33 -3.6005859375 38 5.3896484375 38 c 2
 11.3896484375 38 l 2
 49.3896484375 38 76.3994140625 69 86.509765625 121 c 2xd8
 167.759765625 539 l 2
 178.439453125 594 161.889648438 622 118.889648438 622 c 0
 109.889648438 622 105.879882812 627 107.4296875 635 c 2
 109.75 647 l 2
 111.5 656 117.280273438 660 126.280273438 660 c 2
 344.780273438 660 l 2xb8
182.98828125 117 m 2
 174.047851562 71 176.409179688 42 233.409179688 42 c 0
 380.909179688 42 493.708984375 140 530.838867188 331 c 0
 563.87890625 501 495.6484375 622 322.1484375 622 c 2
 281.1484375 622 l 1
 182.98828125 117 l 2
356.330078125 -117.5 m 2
 354.780273438 -125.5 349.809570312 -130.5 340.809570312 -130.5 c 2
 119.809570312 -130.5 l 2
 110.809570312 -130.5 107.790039062 -125.5 109.33984375 -117.5 c 2
 115.259765625 -87 l 2
 117.009765625 -78 121.76953125 -74 130.76953125 -74 c 2
 351.76953125 -74 l 2
 360.76953125 -74 364 -78 362.25 -87 c 2
 356.330078125 -117.5 l 2
EndSplineSet
Substitution2: "'c2sc' Capitals to Small Capitals in Latin lookup 11 subtable" uni1E0E.sc
AlternateSubs2: "'aalt' Access All Alternates in Latin lookup 0 subtable" uni1E0E.sc
Position2: "'cpsp' Capital Spacing in Latin lookup 0 subtable" dx=5 dy=0 dh=10 dv=0
EndChar

StartChar: uni01C5
Encoding: 453 453 47
Width: 1105
GlyphClass: 2
Flags: MW
HStem: -12 21G 0 38<-6.50195 11.3887 5.38867 11.3887 11.3887 30.3887 5.38867 240.498> 0 42<204.909 240.498> 431 20G 502 146 622 38<126.29 140.399 281.148 281.148 281.148 322.148>
VStem: 539 102 827 267
AnchorPoint: "Anchor-5" 973 625 basechar 0
AnchorPoint: "Anchor-4" 826 0 basechar 0
LayerCount: 2
Fore
SplineSet
344.790039062 660 m 2x97
 554.790039062 660 673.48828125 535 633.837890625 331 c 0
 593.017578125 121 441.498046875 0 240.498046875 0 c 2
 -2.001953125 0 l 2x37
 -11.001953125 0 -15.2216796875 4 -13.4716796875 13 c 2
 -11.1416015625 25 l 2
 -9.591796875 33 -3.611328125 38 5.388671875 38 c 2
 11.388671875 38 l 2x57
 49.388671875 38 76.408203125 69 86.5185546875 121 c 2
 167.768554688 539 l 2
 178.458984375 594 161.899414062 622 118.899414062 622 c 0x97
 109.899414062 622 105.879882812 627 107.4296875 635 c 2
 109.759765625 647 l 2x9b
 111.509765625 656 117.290039062 660 126.290039062 660 c 2
 344.790039062 660 l 2x97
182.98828125 117 m 2
 174.047851562 71 176.409179688 42 233.409179688 42 c 0
 380.909179688 42 493.708984375 140 530.838867188 331 c 0
 563.888671875 501 495.6484375 622 322.1484375 622 c 2
 281.1484375 622 l 1
 182.98828125 117 l 2
1072.26953125 130 m 2
 1078.66992188 125.83984375 1079.37988281 119.202148438 1073.76953125 112.01171875 c 2
 983.219726562 -3.98828125 l 2
 979.299804688 -9.0185546875 974.859375 -10.98828125 970.859375 -10.98828125 c 0x97
 966.859375 -10.98828125 966.999023438 -10.8583984375 960.21875 -3.98828125 c 0
 956.138671875 0.1513671875 950.999023438 0.01171875 944.999023438 0.01171875 c 2
 613.499023438 0.01171875 l 2
 604.499023438 0.01171875 601.279296875 4.01171875 603.029296875 13.01171875 c 2
 607.499023438 36.01171875 l 2
 608.279296875 40.01171875 608.889648438 43.6416015625 611.439453125 46.01171875 c 2
 987.08984375 394.01171875 l 1
 851.330078125 394.01171875 l 2
 794.08984375 394.01171875 752.3203125 368.151367188 712.400390625 316.03125 c 2
 707.040039062 309.03125 l 2
 699.440429688 299.1015625 696.73046875 298.151367188 688.0703125 304.03125 c 2
 679.260742188 310.01171875 l 2
 672.041015625 314.912109375 672.161132812 319.912109375 678.760742188 328.001953125 c 2
 773.310546875 444.001953125 l 2
 776.770507812 448.251953125 780.670898438 451.001953125 785.670898438 451.001953125 c 0
 788.670898438 451.001953125 790.430664062 450.822265625 795.310546875 444.001953125 c 0
 798.310546875 439.811523438 804.540039062 440.001953125 810.540039062 440.001953125 c 2
 1111.59960938 440.001953125 l 2
 1116.75 440.001953125 1116.98046875 437.131835938 1116.20019531 433.131835938 c 0
 1115.62011719 430.131835938 1113.83984375 427.19140625 1110.4296875 424.000976562 c 2
 705.44921875 46.0009765625 l 1
 854.369140625 46.0009765625 l 2
 915.369140625 46.0009765625 982.0390625 53.390625 1040.09863281 126.48046875 c 2
 1044.06835938 131.48046875 l 2
 1054.06835938 144.080078125 1061.75878906 136.830078125 1063.82910156 135.48046875 c 2
 1072.26953125 130 l 2
954.529296875 567.072265625 m 1
 981.918945312 604.852539062 1024.09863281 647.262695312 1068.04882812 647.262695312 c 0
 1091.18847656 647.262695312 1097.62890625 624.90234375 1092.68847656 599.452148438 c 0
 1090.43847656 587.892578125 1087.71875 577.862304688 1078.48828125 574.012695312 c 0
 1030.46875 557.04296875 1005.07910156 545.483398438 941.7890625 501.5234375 c 1
 895.588867188 545.483398438 874.69921875 557.04296875 833.26953125 574.012695312 c 0
 825.5390625 577.862304688 826.71875 587.892578125 828.96875 599.452148438 c 0
 833.909179688 624.90234375 849.048828125 647.262695312 872.188476562 647.262695312 c 0x9b
 916.138671875 647.262695312 941.829101562 604.852539062 954.529296875 567.072265625 c 1
EndSplineSet
Substitution2: "'c2sc' Capitals to Small Capitals in Latin lookup 11 subtable" uni01C5.sc
AlternateSubs2: "'aalt' Access All Alternates in Latin lookup 0 subtable" uni01C5.sc
Position2: "'cpsp' Capital Spacing in Latin lookup 0 subtable" dx=5 dy=0 dh=10 dv=0
EndChar

StartChar: Eth
Encoding: 208 208 48
Width: 695
GlyphClass: 2
Flags: MW
HStem: 0 38<-6.48145 11.3994 5.39941 11.3994 11.3994 30.3994 5.39941 240.519> 0 42<204.908 240.519> 297 58<35.5 132.018 40.0176 120.72 229.258 395.998> 622 38<126.298 140.407 281.147 281.147 281.147 322.147>
VStem: 539 102
AnchorPoint: "Anchor-5" 365 660 basechar 0
AnchorPoint: "Anchor-4" 249 0 basechar 0
LayerCount: 2
Fore
SplineSet
40 297 m 2x78
 31 297 26.017578125 302 26.017578125 310 c 2
 26.017578125 341 l 2
 26.017578125 350 31.017578125 355 40.017578125 355 c 2
 132.017578125 355 l 1
 167.77734375 539 l 2
 178.45703125 594 161.907226562 622 118.907226562 622 c 0
 109.907226562 622 105.897460938 627 107.447265625 635 c 2
 109.767578125 647 l 2
 111.517578125 656 117.297851562 660 126.297851562 660 c 2
 344.797851562 660 l 2
 554.797851562 660 673.48828125 535 633.848632812 331 c 0
 593.028320312 121 441.518554688 0 240.518554688 0 c 2
 -1.9814453125 0 l 2
 -10.9814453125 0 -15.19140625 4 -13.44140625 13 c 2x78
 -11.111328125 25 l 2
 -9.5712890625 33 -3.5908203125 38 5.3994140625 38 c 2
 11.3994140625 38 l 2
 49.3994140625 38 76.4091796875 69 86.51953125 121 c 2xb8
 120.719726562 297 l 1
 40 297 l 2x78
182.998046875 117 m 2
 174.057617188 71 176.408203125 42 233.408203125 42 c 0
 380.908203125 42 493.708007812 140 530.837890625 331 c 0
 563.877929688 501 495.647460938 622 322.147460938 622 c 2
 281.147460938 622 l 1
 229.2578125 355 l 1
 395.998046875 355 l 2
 404.998046875 355 408.998046875 350 408.998046875 341 c 2
 408.998046875 310 l 2
 408.998046875 302 404.998046875 297 395.998046875 297 c 2
 217.978515625 297 l 1
 182.998046875 117 l 2
EndSplineSet
Substitution2: "'c2sc' Capitals to Small Capitals in Latin lookup 11 subtable" Eth.sc
AlternateSubs2: "'aalt' Access All Alternates in Latin lookup 0 subtable" Eth.sc
Position2: "'cpsp' Capital Spacing in Latin lookup 0 subtable" dx=5 dy=0 dh=10 dv=0
EndChar

StartChar: E
Encoding: 69 69 49
Width: 634
GlyphClass: 2
Flags: MW
HStem: 0 38<-6.4707 6.41016 5.41016 6.41016 6.41016 27.9102 5.41016 449.029> 0 47<236.909 307.659 307.659 372.159> 327.5 48.5<233.369 328.67 223.92 338.119> 613 47<279.429 449.179 279.429 279.429> 621 39<126.3 140.721> 651 20G<566.919 570.419>
VStem: -14 639 419.13 37.59
AnchorPoint: "Anchor-6" 464 0 basechar 0
AnchorPoint: "Anchor-5" 392 660 basechar 0
AnchorPoint: "Anchor-4" 272 0 basechar 0
LayerCount: 2
Fore
SplineSet
603.580078125 188.25 m 2x72
 611.75 184 610.779296875 179 605.0390625 170 c 2
 488.21875 -4 l 2
 484.80859375 -10 480.668945312 -12 476.668945312 -12 c 0
 473.668945312 -12 471.569335938 -11.25 469.26953125 -9 c 2
 466.239257812 -4 l 2
 463.119140625 -0.75 460.029296875 0 449.029296875 0 c 2
 -1.970703125 0 l 2
 -10.970703125 0 -15.1806640625 4 -13.4306640625 13 c 2x72
 -11.1005859375 25 l 2
 -9.560546875 33 -2.580078125 38 5.41015625 38 c 2
 6.41015625 38 l 2
 49.41015625 38 75.66015625 65 86.5400390625 121 c 2
 167.58984375 538 l 2
 178.280273438 593 162.720703125 621 118.720703125 621 c 0xaa
 110.720703125 621 105.900390625 627 107.450195312 635 c 2
 109.580078125 646 l 2
 111.330078125 655 117.299804688 660 126.299804688 660 c 2
 536.299804688 660 l 2x72
 545.299804688 660 549.439453125 660.75 554.059570312 664 c 2
 560.029296875 669 l 2
 562.418945312 671 565.418945312 671 568.418945312 671 c 0
 572.418945312 671 576.018554688 669 578.038085938 664 c 2x66
 623.908203125 545 l 2
 625.318359375 542 625.73828125 539 625.348632812 537 c 0
 624.37890625 532 620.758789062 528.75 616.228515625 526 c 2
 593.999023438 514.5 l 2
 588.428710938 511.5 586.228515625 510.5 583.228515625 510.5 c 0
 579.228515625 510.5 576.818359375 513.5 574.80859375 518.5 c 2
 572.778320312 523.5 l 2
 543.728515625 594 517.178710938 613 449.178710938 613 c 2
 279.428710938 613 l 1
 233.369140625 376 l 1
 338.119140625 376 l 2
 383.619140625 376 410.999023438 396 418.579101562 435 c 2
 419.739257812 441 l 2
 421.489257812 450 426.26953125 454 435.26953125 454 c 2
 446.26953125 454 l 2
 455.26953125 454 458.479492188 450 456.729492188 441 c 2
 422.229492188 263.5 l 2
 420.479492188 254.5 415.69921875 250.5 406.69921875 250.5 c 2
 395.69921875 250.5 l 2
 386.69921875 250.5 383.489257812 254.5 385.239257812 263.5 c 2
 386.19921875 268.5 l 2x71
 393.979492188 308.5 375.169921875 327.5 328.669921875 327.5 c 2
 223.919921875 327.5 l 1
 185.729492188 131 l 2
 175.249023438 77 197.909179688 47 236.909179688 47 c 2
 307.659179688 47 l 2
 436.659179688 47 486.44921875 74.25 564.01953125 186.5 c 2
 568.1796875 192.5 l 2
 572.479492188 199.25 580.309570312 202.25 587.879882812 197.5 c 2
 603.580078125 188.25 l 2x72
EndSplineSet
Substitution2: "'ss04' Style Set 4 in Latin lookup 33 subtable" u1F154
Substitution2: "'ss03' Style Set 3 in Latin lookup 31 subtable" uni24BA
Substitution2: "'c2sc' Capitals to Small Capitals in Latin lookup 11 subtable" E.sc
AlternateSubs2: "'aalt' Access All Alternates in Latin lookup 0 subtable" E.sc uni24BA u1F154
Position2: "'cpsp' Capital Spacing in Latin lookup 0 subtable" dx=5 dy=0 dh=10 dv=0
EndChar

StartChar: Eacute
Encoding: 201 201 50
Width: 634
GlyphClass: 2
Flags: MW
HStem: 0 38<-6.4707 6.41016 5.41016 6.41016 6.41016 27.9102 5.41016 449.029> 0 47<236.909 307.659 307.659 372.159> 327.5 48.5<233.369 328.67 223.92 338.119> 613 47<279.429 449.179 279.429 279.429> 621 39<126.3 140.721> 651 20G<566.919 570.419>
VStem: -14 639 419.13 37.59
AnchorPoint: "Anchor-6" 464 0 basechar 0
AnchorPoint: "Anchor-5" 471 899 basechar 0
AnchorPoint: "Anchor-4" 272 0 basechar 0
LayerCount: 2
Fore
SplineSet
603.580078125 188.25 m 2x72
 611.75 184 610.779296875 179 605.0390625 170 c 2
 488.21875 -4 l 2
 484.80859375 -10 480.668945312 -12 476.668945312 -12 c 0
 473.668945312 -12 471.569335938 -11.25 469.26953125 -9 c 2
 466.239257812 -4 l 2
 463.119140625 -0.75 460.029296875 0 449.029296875 0 c 2
 -1.970703125 0 l 2
 -10.970703125 0 -15.1806640625 4 -13.4306640625 13 c 2x72
 -11.1005859375 25 l 2
 -9.560546875 33 -2.580078125 38 5.41015625 38 c 2
 6.41015625 38 l 2
 49.41015625 38 75.66015625 65 86.5400390625 121 c 2
 167.58984375 538 l 2
 178.280273438 593 162.720703125 621 118.720703125 621 c 0xaa
 110.720703125 621 105.900390625 627 107.450195312 635 c 2
 109.580078125 646 l 2
 111.330078125 655 117.299804688 660 126.299804688 660 c 2
 536.299804688 660 l 2x72
 545.299804688 660 549.439453125 660.75 554.059570312 664 c 2
 560.029296875 669 l 2
 562.418945312 671 565.418945312 671 568.418945312 671 c 0
 572.418945312 671 576.018554688 669 578.038085938 664 c 2x66
 623.908203125 545 l 2
 625.318359375 542 625.73828125 539 625.348632812 537 c 0
 624.37890625 532 620.758789062 528.75 616.228515625 526 c 2
 593.999023438 514.5 l 2
 588.428710938 511.5 586.228515625 510.5 583.228515625 510.5 c 0
 579.228515625 510.5 576.818359375 513.5 574.80859375 518.5 c 2
 572.778320312 523.5 l 2
 543.728515625 594 517.178710938 613 449.178710938 613 c 2
 279.428710938 613 l 1
 233.369140625 376 l 1
 338.119140625 376 l 2
 383.619140625 376 410.999023438 396 418.579101562 435 c 2
 419.739257812 441 l 2
 421.489257812 450 426.26953125 454 435.26953125 454 c 2
 446.26953125 454 l 2
 455.26953125 454 458.479492188 450 456.729492188 441 c 2
 422.229492188 263.5 l 2
 420.479492188 254.5 415.69921875 250.5 406.69921875 250.5 c 2
 395.69921875 250.5 l 2
 386.69921875 250.5 383.489257812 254.5 385.239257812 263.5 c 2
 386.19921875 268.5 l 2x71
 393.979492188 308.5 375.169921875 327.5 328.669921875 327.5 c 2
 223.919921875 327.5 l 1
 185.729492188 131 l 2
 175.249023438 77 197.909179688 47 236.909179688 47 c 2
 307.659179688 47 l 2
 436.659179688 47 486.44921875 74.25 564.01953125 186.5 c 2
 568.1796875 192.5 l 2
 572.479492188 199.25 580.309570312 202.25 587.879882812 197.5 c 2
 603.580078125 188.25 l 2x72
343.719726562 729.139648438 m 1
 407.879882812 793.529296875 424.381835938 815.600585938 456.251953125 865.850585938 c 0
 462.751953125 875.860351562 473.501953125 878.340820312 484.572265625 878.340820312 c 0
 513.591796875 878.340820312 525.521484375 864.020507812 520.62109375 838.810546875 c 0
 510.201171875 785.150390625 435.78125 748.830078125 381.090820312 719.849609375 c 0
 377.170898438 717.869140625 373.180664062 716.309570312 370.110351562 716.51953125 c 0
 367.110351562 716.759765625 362.959960938 718.629882812 358.040039062 721.33984375 c 2
 343.719726562 729.139648438 l 1
EndSplineSet
Substitution2: "'c2sc' Capitals to Small Capitals in Latin lookup 11 subtable" Eacute.sc
AlternateSubs2: "'aalt' Access All Alternates in Latin lookup 0 subtable" Eacute.sc
Position2: "'cpsp' Capital Spacing in Latin lookup 0 subtable" dx=5 dy=0 dh=10 dv=0
EndChar

StartChar: Ebreve
Encoding: 276 276 51
Width: 634
GlyphClass: 2
Flags: MW
HStem: 0 38<-6.4707 6.41016 5.41016 6.41016 6.41016 27.9102 5.41016 449.029> 0 47<236.909 307.659 307.659 372.159> 327.5 48.5<233.369 328.67 223.92 338.119> 613 47<279.429 449.179 279.429 279.429> 621 39<126.3 140.721> 651 20G<566.919 570.419> 711 48.36
VStem: -14 639 419.13 37.59
AnchorPoint: "Anchor-6" 464 0 basechar 0
AnchorPoint: "Anchor-5" 423 820 basechar 0
AnchorPoint: "Anchor-4" 272 0 basechar 0
LayerCount: 2
Fore
SplineSet
603.580078125 188.25 m 2x73
 611.75 184 610.779296875 179 605.0390625 170 c 2
 488.21875 -4 l 2
 484.80859375 -10 480.668945312 -12 476.668945312 -12 c 0
 473.668945312 -12 471.569335938 -11.25 469.26953125 -9 c 2
 466.239257812 -4 l 2
 463.119140625 -0.75 460.029296875 0 449.029296875 0 c 2
 -1.970703125 0 l 2
 -10.970703125 0 -15.1806640625 4 -13.4306640625 13 c 2x73
 -11.1005859375 25 l 2
 -9.560546875 33 -2.580078125 38 5.41015625 38 c 2
 6.41015625 38 l 2
 49.41015625 38 75.66015625 65 86.5400390625 121 c 2
 167.58984375 538 l 2
 178.280273438 593 162.720703125 621 118.720703125 621 c 0xab
 110.720703125 621 105.900390625 627 107.450195312 635 c 2
 109.580078125 646 l 2
 111.330078125 655 117.299804688 660 126.299804688 660 c 2
 536.299804688 660 l 2x73
 545.299804688 660 549.439453125 660.75 554.059570312 664 c 2
 560.029296875 669 l 2
 562.418945312 671 565.418945312 671 568.418945312 671 c 0
 572.418945312 671 576.018554688 669 578.038085938 664 c 2x67
 623.908203125 545 l 2
 625.318359375 542 625.73828125 539 625.348632812 537 c 0
 624.37890625 532 620.758789062 528.75 616.228515625 526 c 2
 593.999023438 514.5 l 2
 588.428710938 511.5 586.228515625 510.5 583.228515625 510.5 c 0
 579.228515625 510.5 576.818359375 513.5 574.80859375 518.5 c 2
 572.778320312 523.5 l 2
 543.728515625 594 517.178710938 613 449.178710938 613 c 2
 279.428710938 613 l 1
 233.369140625 376 l 1
 338.119140625 376 l 2
 383.619140625 376 410.999023438 396 418.579101562 435 c 2
 419.739257812 441 l 2
 421.489257812 450 426.26953125 454 435.26953125 454 c 2
 446.26953125 454 l 2
 455.26953125 454 458.479492188 450 456.729492188 441 c 2
 422.229492188 263.5 l 2
 420.479492188 254.5 415.69921875 250.5 406.69921875 250.5 c 2
 395.69921875 250.5 l 2
 386.69921875 250.5 383.489257812 254.5 385.239257812 263.5 c 2
 386.19921875 268.5 l 2x7280
 393.979492188 308.5 375.169921875 327.5 328.669921875 327.5 c 2
 223.919921875 327.5 l 1
 185.729492188 131 l 2
 175.249023438 77 197.909179688 47 236.909179688 47 c 2
 307.659179688 47 l 2
 436.659179688 47 486.44921875 74.25 564.01953125 186.5 c 2
 568.1796875 192.5 l 2
 572.479492188 199.25 580.309570312 202.25 587.879882812 197.5 c 2
 603.580078125 188.25 l 2x73
402.209960938 711 m 1
 402.270507812 711 l 1
 311.520507812 711 287.700195312 780.76953125 294.66015625 816.619140625 c 0
 296.600585938 826.619140625 302.560546875 830.44921875 312.560546875 831.609375 c 0
 320.250976562 832.44921875 335.731445312 833.76953125 343.491210938 834.279296875 c 0
 355.491210938 835.26953125 358.651367188 831.899414062 357.081054688 818.939453125 c 0
 353.071289062 782.329101562 372.291015625 759.329101562 411.640625 759.329101562 c 0
 451.23046875 759.329101562 479.390625 782.329101562 489.62109375 818.939453125 c 0
 492.831054688 831.899414062 497.541015625 835.26953125 509.161132812 834.279296875 c 0
 516.4609375 833.76953125 531.680664062 832.44921875 538.780273438 831.609375 c 0
 548.330078125 830.44921875 552.799804688 826.619140625 550.870117188 816.619140625 c 0
 543.900390625 780.76953125 493.209960938 711 402.209960938 711 c 1
EndSplineSet
Substitution2: "'c2sc' Capitals to Small Capitals in Latin lookup 11 subtable" Ebreve.sc
AlternateSubs2: "'aalt' Access All Alternates in Latin lookup 0 subtable" Ebreve.sc
Position2: "'cpsp' Capital Spacing in Latin lookup 0 subtable" dx=5 dy=0 dh=10 dv=0
EndChar

StartChar: Ecaron
Encoding: 282 282 52
Width: 634
GlyphClass: 2
Flags: MW
HStem: 0 38<-6.4707 6.41016 5.41016 6.41016 6.41016 27.9102 5.41016 449.029> 0 47<236.909 307.659 307.659 372.159> 327.5 48.5<233.369 328.67 223.92 338.119> 613 47<279.429 449.179 279.429 279.429> 621 39<126.3 140.721> 651 20G<566.919 570.419>
VStem: -14 639 419.13 37.59
AnchorPoint: "Anchor-6" 464 0 basechar 0
AnchorPoint: "Anchor-5" 435 845 basechar 0
AnchorPoint: "Anchor-4" 272 0 basechar 0
LayerCount: 2
Fore
SplineSet
603.580078125 188.25 m 2x72
 611.75 184 610.779296875 179 605.0390625 170 c 2
 488.21875 -4 l 2
 484.80859375 -10 480.668945312 -12 476.668945312 -12 c 0
 473.668945312 -12 471.569335938 -11.25 469.26953125 -9 c 2
 466.239257812 -4 l 2
 463.119140625 -0.75 460.029296875 0 449.029296875 0 c 2
 -1.970703125 0 l 2
 -10.970703125 0 -15.1806640625 4 -13.4306640625 13 c 2x72
 -11.1005859375 25 l 2
 -9.560546875 33 -2.580078125 38 5.41015625 38 c 2
 6.41015625 38 l 2
 49.41015625 38 75.66015625 65 86.5400390625 121 c 2
 167.58984375 538 l 2
 178.280273438 593 162.720703125 621 118.720703125 621 c 0xaa
 110.720703125 621 105.900390625 627 107.450195312 635 c 2
 109.580078125 646 l 2
 111.330078125 655 117.299804688 660 126.299804688 660 c 2
 536.299804688 660 l 2x72
 545.299804688 660 549.439453125 660.75 554.059570312 664 c 2
 560.029296875 669 l 2
 562.418945312 671 565.418945312 671 568.418945312 671 c 0
 572.418945312 671 576.018554688 669 578.038085938 664 c 2x66
 623.908203125 545 l 2
 625.318359375 542 625.73828125 539 625.348632812 537 c 0
 624.37890625 532 620.758789062 528.75 616.228515625 526 c 2
 593.999023438 514.5 l 2
 588.428710938 511.5 586.228515625 510.5 583.228515625 510.5 c 0
 579.228515625 510.5 576.818359375 513.5 574.80859375 518.5 c 2
 572.778320312 523.5 l 2
 543.728515625 594 517.178710938 613 449.178710938 613 c 2
 279.428710938 613 l 1
 233.369140625 376 l 1
 338.119140625 376 l 2
 383.619140625 376 410.999023438 396 418.579101562 435 c 2
 419.739257812 441 l 2
 421.489257812 450 426.26953125 454 435.26953125 454 c 2
 446.26953125 454 l 2
 455.26953125 454 458.479492188 450 456.729492188 441 c 2
 422.229492188 263.5 l 2
 420.479492188 254.5 415.69921875 250.5 406.69921875 250.5 c 2
 395.69921875 250.5 l 2
 386.69921875 250.5 383.489257812 254.5 385.239257812 263.5 c 2
 386.19921875 268.5 l 2x71
 393.979492188 308.5 375.169921875 327.5 328.669921875 327.5 c 2
 223.919921875 327.5 l 1
 185.729492188 131 l 2
 175.249023438 77 197.909179688 47 236.909179688 47 c 2
 307.659179688 47 l 2
 436.659179688 47 486.44921875 74.25 564.01953125 186.5 c 2
 568.1796875 192.5 l 2
 572.479492188 199.25 580.309570312 202.25 587.879882812 197.5 c 2
 603.580078125 188.25 l 2x72
416.799804688 787.049804688 m 1
 444.189453125 824.830078125 486.369140625 867.240234375 530.319335938 867.240234375 c 0
 553.44921875 867.240234375 559.889648438 844.879882812 554.94921875 819.439453125 c 0
 552.69921875 807.889648438 549.979492188 797.859375 540.759765625 794.01953125 c 0
 492.740234375 777.049804688 467.370117188 765.5 404.08984375 721.540039062 c 1
 357.879882812 765.5 336.990234375 777.049804688 295.580078125 794.01953125 c 0
 287.83984375 797.859375 289.009765625 807.889648438 291.259765625 819.439453125 c 0
 296.209960938 844.879882812 311.33984375 867.240234375 334.469726562 867.240234375 c 0
 378.419921875 867.240234375 404.099609375 824.830078125 416.799804688 787.049804688 c 1
EndSplineSet
Substitution2: "'c2sc' Capitals to Small Capitals in Latin lookup 11 subtable" Ecaron.sc
AlternateSubs2: "'aalt' Access All Alternates in Latin lookup 0 subtable" Ecaron.sc
Position2: "'cpsp' Capital Spacing in Latin lookup 0 subtable" dx=5 dy=0 dh=10 dv=0
EndChar

StartChar: uni1E1C
Encoding: 7708 7708 53
Width: 634
GlyphClass: 2
Flags: MW
HStem: -225 45.68 -84.42 38.43 -1.52588e-05 38 -1.52588e-05 47 327.5 48.5 613 47 621 39 651 20G 711 48.36
VStem: 303.94 59.06 419.13 37.59
AnchorPoint: "Anchor-6" 464 0 basechar 0
AnchorPoint: "Anchor-5" 423 820 basechar 0
AnchorPoint: "Anchor-4" 272 0 basechar 0
LayerCount: 2
Fore
SplineSet
603.580078125 188.25 m 2xdce0
 611.75 184 610.807617188 179.0390625 605.067382812 170.0390625 c 2
 488.247070312 -3.9609375 l 2
 484.836914062 -9.9609375 480.697265625 -11.9609375 476.697265625 -11.9609375 c 0
 473.697265625 -11.9609375 471.59765625 -11.2109375 469.297851562 -8.9609375 c 2
 466.267578125 -3.9609375 l 2
 463.147460938 -0.7109375 460.057617188 0.0390625 449.057617188 0.0390625 c 2
 291.84765625 0.0390625 l 1
 236.767578125 -52.9609375 l 1
 250.727539062 -47.9609375 265.1171875 -45.9609375 279.1171875 -45.9609375 c 0
 325.1171875 -45.9609375 373.057617188 -71.9609375 360.807617188 -134.9609375 c 0
 350.708007812 -186.9609375 297.318359375 -224.9609375 229.318359375 -224.9609375 c 0
 202.318359375 -224.9609375 173.30859375 -219.9609375 144.828125 -206.9609375 c 0
 129.188476562 -199.9609375 129.538085938 -193.010742188 133.658203125 -171.80078125 c 0
 135.118164062 -164.3203125 138.578125 -159.3203125 143.578125 -159.3203125 c 0
 147.30859375 -159.3203125 150.638671875 -160.850585938 153.05859375 -161.810546875 c 0
 177.568359375 -170.541015625 204.568359375 -179.271484375 235.778320312 -179.271484375 c 0
 273.228515625 -179.271484375 298.858398438 -163.041015625 303.948242188 -136.831054688 c 0
 311.228515625 -99.380859375 279.178710938 -84.4111328125 230.508789062 -84.4111328125 c 0
 215.548828125 -84.4111328125 193.588867188 -88.1611328125 181.12890625 -88.1611328125 c 0
 174.888671875 -88.1611328125 171.87890625 -84.4111328125 172.838867188 -79.4208984375 c 0
 173.569335938 -75.6708984375 173.689453125 -72.8505859375 177.26953125 -69.4404296875 c 2
 246.599609375 0 l 1
 -1.970703125 0 l 2
 -10.970703125 0 -15.1806640625 4 -13.4306640625 13 c 2xdce0
 -11.1005859375 25 l 2
 -9.560546875 33 -2.580078125 38 5.41015625 38 c 2
 6.41015625 38 l 2
 49.41015625 38 75.66015625 65 86.5400390625 121 c 2
 167.58984375 538 l 2
 178.280273438 593 162.720703125 621 118.720703125 621 c 0xeae0
 110.720703125 621 105.900390625 627 107.450195312 635 c 2
 109.580078125 646 l 2
 111.330078125 655 117.299804688 660 126.299804688 660 c 2
 536.299804688 660 l 2xdce0
 545.299804688 660 549.439453125 660.75 554.059570312 664 c 2
 560.029296875 669 l 2
 562.418945312 671 565.418945312 671 568.418945312 671 c 0
 572.418945312 671 576.018554688 669 578.038085938 664 c 2xd9e0
 623.908203125 545 l 2
 625.318359375 542 625.73828125 539 625.348632812 537 c 0
 624.37890625 532 620.758789062 528.75 616.228515625 526 c 2
 593.999023438 514.5 l 2
 588.428710938 511.5 586.228515625 510.5 583.228515625 510.5 c 0
 579.228515625 510.5 576.818359375 513.5 574.80859375 518.5 c 2
 572.778320312 523.5 l 2
 543.728515625 594 517.178710938 613 449.178710938 613 c 2
 279.428710938 613 l 1
 233.369140625 376 l 1
 338.119140625 376 l 2
 383.619140625 376 410.999023438 396 418.579101562 435 c 2
 419.739257812 441 l 2
 421.489257812 450 426.26953125 454 435.26953125 454 c 2
 446.26953125 454 l 2
 455.26953125 454 458.479492188 450 456.729492188 441 c 2
 422.229492188 263.5 l 2
 420.479492188 254.5 415.69921875 250.5 406.69921875 250.5 c 2
 395.69921875 250.5 l 2
 386.69921875 250.5 383.489257812 254.5 385.239257812 263.5 c 2
 386.19921875 268.5 l 2
 393.979492188 308.5 375.169921875 327.5 328.669921875 327.5 c 2
 223.919921875 327.5 l 1
 185.729492188 131 l 2
 175.249023438 77 197.909179688 47 236.909179688 47 c 2
 307.659179688 47 l 2
 436.659179688 47 486.44921875 74.25 564.01953125 186.5 c 2
 568.1796875 192.5 l 2
 572.479492188 199.25 580.309570312 202.25 587.879882812 197.5 c 2
 603.580078125 188.25 l 2xdce0
402.237304688 711.0390625 m 1
 402.297851562 711.0390625 l 1
 311.547851562 711.0390625 287.727539062 780.80859375 294.6875 816.658203125 c 0
 296.627929688 826.658203125 302.587890625 830.48828125 312.587890625 831.6484375 c 0
 320.278320312 832.48828125 335.758789062 833.80859375 343.518554688 834.318359375 c 0
 355.518554688 835.30859375 358.678710938 831.938476562 357.108398438 818.978515625 c 0
 353.098632812 782.368164062 372.318359375 759.368164062 411.66796875 759.368164062 c 0
 451.2578125 759.368164062 479.41796875 782.368164062 489.6484375 818.978515625 c 0
 492.858398438 831.938476562 497.568359375 835.30859375 509.188476562 834.318359375 c 0
 516.48828125 833.80859375 531.708007812 832.48828125 538.807617188 831.6484375 c 0
 548.357421875 830.48828125 552.827148438 826.658203125 550.897460938 816.658203125 c 0
 543.927734375 780.80859375 493.237304688 711.0390625 402.237304688 711.0390625 c 1
EndSplineSet
Substitution2: "'c2sc' Capitals to Small Capitals in Latin lookup 11 subtable" uni1E1C.sc
AlternateSubs2: "'aalt' Access All Alternates in Latin lookup 0 subtable" uni1E1C.sc
Position2: "'cpsp' Capital Spacing in Latin lookup 0 subtable" dx=5 dy=0 dh=10 dv=0
EndChar

StartChar: Ecircumflex
Encoding: 202 202 54
Width: 634
GlyphClass: 2
Flags: MW
HStem: 0 38<-6.4707 6.41016 5.41016 6.41016 6.41016 27.9102 5.41016 449.029> 0 47<236.909 307.659 307.659 372.159> 327.5 48.5<233.369 328.67 223.92 338.119> 613 47<279.429 449.179 279.429 279.429> 621 39<126.3 140.721> 651 20G<566.919 570.419>
VStem: -14 639 419.13 37.59
AnchorPoint: "Anchor-7" 412 759 basechar 0
AnchorPoint: "Anchor-6" 464 0 basechar 0
AnchorPoint: "Anchor-5" 423 816 basechar 0
AnchorPoint: "Anchor-4" 272 0 basechar 0
LayerCount: 2
Fore
SplineSet
603.580078125 188.25 m 2x72
 611.75 184 610.779296875 179 605.0390625 170 c 2
 488.21875 -4 l 2
 484.80859375 -10 480.668945312 -12 476.668945312 -12 c 0
 473.668945312 -12 471.569335938 -11.25 469.26953125 -9 c 2
 466.239257812 -4 l 2
 463.119140625 -0.75 460.029296875 0 449.029296875 0 c 2
 -1.970703125 0 l 2
 -10.970703125 0 -15.1806640625 4 -13.4306640625 13 c 2x72
 -11.1005859375 25 l 2
 -9.560546875 33 -2.580078125 38 5.41015625 38 c 2
 6.41015625 38 l 2
 49.41015625 38 75.66015625 65 86.5400390625 121 c 2
 167.58984375 538 l 2
 178.280273438 593 162.720703125 621 118.720703125 621 c 0xaa
 110.720703125 621 105.900390625 627 107.450195312 635 c 2
 109.580078125 646 l 2
 111.330078125 655 117.299804688 660 126.299804688 660 c 2
 536.299804688 660 l 2x72
 545.299804688 660 549.439453125 660.75 554.059570312 664 c 2
 560.029296875 669 l 2
 562.418945312 671 565.418945312 671 568.418945312 671 c 0
 572.418945312 671 576.018554688 669 578.038085938 664 c 2x66
 623.908203125 545 l 2
 625.318359375 542 625.73828125 539 625.348632812 537 c 0
 624.37890625 532 620.758789062 528.75 616.228515625 526 c 2
 593.999023438 514.5 l 2
 588.428710938 511.5 586.228515625 510.5 583.228515625 510.5 c 0
 579.228515625 510.5 576.818359375 513.5 574.80859375 518.5 c 2
 572.778320312 523.5 l 2
 543.728515625 594 517.178710938 613 449.178710938 613 c 2
 279.428710938 613 l 1
 233.369140625 376 l 1
 338.119140625 376 l 2
 383.619140625 376 410.999023438 396 418.579101562 435 c 2
 419.739257812 441 l 2
 421.489257812 450 426.26953125 454 435.26953125 454 c 2
 446.26953125 454 l 2
 455.26953125 454 458.479492188 450 456.729492188 441 c 2
 422.229492188 263.5 l 2
 420.479492188 254.5 415.69921875 250.5 406.69921875 250.5 c 2
 395.69921875 250.5 l 2
 386.69921875 250.5 383.489257812 254.5 385.239257812 263.5 c 2
 386.19921875 268.5 l 2x71
 393.979492188 308.5 375.169921875 327.5 328.669921875 327.5 c 2
 223.919921875 327.5 l 1
 185.729492188 131 l 2
 175.249023438 77 197.909179688 47 236.909179688 47 c 2
 307.659179688 47 l 2
 436.659179688 47 486.44921875 74.25 564.01953125 186.5 c 2
 568.1796875 192.5 l 2
 572.479492188 199.25 580.309570312 202.25 587.879882812 197.5 c 2
 603.580078125 188.25 l 2x72
418.620117188 795.4296875 m 1
 391.23046875 757.649414062 349.041992188 715.249023438 305.1015625 715.249023438 c 0
 281.981445312 715.249023438 275.541015625 737.598632812 280.470703125 763.0390625 c 0
 282.720703125 774.588867188 285.440429688 784.619140625 294.66015625 788.46875 c 0
 342.690429688 805.428710938 368.060546875 816.978515625 431.350585938 860.938476562 c 1
 477.541015625 816.978515625 498.430664062 805.428710938 539.850585938 788.46875 c 0
 547.581054688 784.619140625 546.411132812 774.588867188 544.161132812 763.0390625 c 0
 539.220703125 737.598632812 524.081054688 715.249023438 500.94140625 715.249023438 c 0
 457.000976562 715.249023438 431.310546875 757.649414062 418.620117188 795.4296875 c 1
EndSplineSet
Substitution2: "'c2sc' Capitals to Small Capitals in Latin lookup 11 subtable" Ecircumflex.sc
AlternateSubs2: "'aalt' Access All Alternates in Latin lookup 0 subtable" Ecircumflex.sc
Position2: "'cpsp' Capital Spacing in Latin lookup 0 subtable" dx=5 dy=0 dh=10 dv=0
EndChar

StartChar: uni1EBE
Encoding: 7870 7870 55
Width: 634
GlyphClass: 2
Flags: MW
HStem: 0 38<-6.4707 6.41016 5.41016 6.41016 6.41016 27.9102 5.41016 449.029> 0 47<236.909 307.659 307.659 372.159> 327.5 48.5<233.369 328.67 223.92 338.119> 613 47<279.429 449.179 279.429 279.429> 621 39<126.3 140.721> 651 20G<566.919 570.419>
VStem: -14 700 419.13 37.59
AnchorPoint: "Anchor-7" 635 1006 basechar 0
AnchorPoint: "Anchor-6" 464 0 basechar 0
AnchorPoint: "Anchor-5" 423 816 basechar 0
AnchorPoint: "Anchor-4" 272 0 basechar 0
LayerCount: 2
Fore
SplineSet
603.580078125 188.25 m 2x72
 611.75 184 610.779296875 179 605.0390625 170 c 2
 488.21875 -4 l 2
 484.80859375 -10 480.668945312 -12 476.668945312 -12 c 0
 473.668945312 -12 471.569335938 -11.25 469.26953125 -9 c 2
 466.239257812 -4 l 2
 463.119140625 -0.75 460.029296875 0 449.029296875 0 c 2
 -1.970703125 0 l 2
 -10.970703125 0 -15.1806640625 4 -13.4306640625 13 c 2x72
 -11.1005859375 25 l 2
 -9.560546875 33 -2.580078125 38 5.41015625 38 c 2
 6.41015625 38 l 2
 49.41015625 38 75.66015625 65 86.5400390625 121 c 2
 167.58984375 538 l 2
 178.280273438 593 162.720703125 621 118.720703125 621 c 0xaa
 110.720703125 621 105.900390625 627 107.450195312 635 c 2
 109.580078125 646 l 2
 111.330078125 655 117.299804688 660 126.299804688 660 c 2
 536.299804688 660 l 2x72
 545.299804688 660 549.439453125 660.75 554.059570312 664 c 2
 560.029296875 669 l 2
 562.418945312 671 565.418945312 671 568.418945312 671 c 0
 572.418945312 671 576.018554688 669 578.038085938 664 c 2x66
 623.908203125 545 l 2
 625.318359375 542 625.73828125 539 625.348632812 537 c 0
 624.37890625 532 620.758789062 528.75 616.228515625 526 c 2
 593.999023438 514.5 l 2
 588.428710938 511.5 586.228515625 510.5 583.228515625 510.5 c 0
 579.228515625 510.5 576.818359375 513.5 574.80859375 518.5 c 2
 572.778320312 523.5 l 2
 543.728515625 594 517.178710938 613 449.178710938 613 c 2
 279.428710938 613 l 1
 233.369140625 376 l 1
 338.119140625 376 l 2
 383.619140625 376 410.999023438 396 418.579101562 435 c 2
 419.739257812 441 l 2
 421.489257812 450 426.26953125 454 435.26953125 454 c 2
 446.26953125 454 l 2
 455.26953125 454 458.479492188 450 456.729492188 441 c 2
 422.229492188 263.5 l 2
 420.479492188 254.5 415.69921875 250.5 406.69921875 250.5 c 2
 395.69921875 250.5 l 2
 386.69921875 250.5 383.489257812 254.5 385.239257812 263.5 c 2
 386.19921875 268.5 l 2x71
 393.979492188 308.5 375.169921875 327.5 328.669921875 327.5 c 2
 223.919921875 327.5 l 1
 185.729492188 131 l 2
 175.249023438 77 197.909179688 47 236.909179688 47 c 2
 307.659179688 47 l 2
 436.659179688 47 486.44921875 74.25 564.01953125 186.5 c 2
 568.1796875 192.5 l 2
 572.479492188 199.25 580.309570312 202.25 587.879882812 197.5 c 2
 603.580078125 188.25 l 2x72
418.620117188 795.4296875 m 1
 391.23046875 757.649414062 349.041992188 715.249023438 305.1015625 715.249023438 c 0
 281.981445312 715.249023438 275.541015625 737.598632812 280.470703125 763.0390625 c 0
 282.720703125 774.588867188 285.440429688 784.619140625 294.66015625 788.46875 c 0
 342.690429688 805.428710938 368.060546875 816.978515625 431.350585938 860.938476562 c 1
 477.541015625 816.978515625 498.430664062 805.428710938 539.850585938 788.46875 c 0
 547.581054688 784.619140625 546.411132812 774.588867188 544.161132812 763.0390625 c 0
 539.220703125 737.598632812 524.081054688 715.249023438 500.94140625 715.249023438 c 0
 457.000976562 715.249023438 431.310546875 757.649414062 418.620117188 795.4296875 c 1
508.111328125 835.779296875 m 1
 572.28125 900.189453125 588.783203125 922.227539062 620.672851562 972.477539062 c 0
 627.153320312 982.477539062 637.913085938 984.967773438 648.962890625 984.967773438 c 0
 677.993164062 984.967773438 689.93359375 970.658203125 685.033203125 945.448242188 c 0
 674.61328125 891.778320312 600.193359375 855.478515625 545.502929688 826.499023438 c 0
 541.5625 824.499023438 537.58203125 822.94921875 534.501953125 823.149414062 c 0
 531.521484375 823.399414062 527.37109375 825.26953125 522.44140625 827.989257812 c 2
 508.111328125 835.779296875 l 1
EndSplineSet
Substitution2: "'c2sc' Capitals to Small Capitals in Latin lookup 11 subtable" uni1EBE.sc
AlternateSubs2: "'aalt' Access All Alternates in Latin lookup 0 subtable" uni1EBE.sc
Position2: "'cpsp' Capital Spacing in Latin lookup 0 subtable" dx=5 dy=0 dh=10 dv=0
EndChar

StartChar: uni1EC6
Encoding: 7878 7878 56
Width: 634
GlyphClass: 2
Flags: MW
HStem: 0 38<-6.4707 6.41016 5.41016 6.41016 6.41016 27.9102 5.41016 449.029> 0 47<236.909 307.659 307.659 372.159> 327.5 48.5<233.369 328.67 223.92 338.119> 613 47<279.429 449.179 279.429 279.429> 621 39<126.3 140.721> 651 20G<566.919 570.419>
VStem: -14 639 192.85 125.19 419.13 37.59
AnchorPoint: "Anchor-7" 412 759 basechar 0
AnchorPoint: "Anchor-6" 464 0 basechar 0
AnchorPoint: "Anchor-5" 423 816 basechar 0
AnchorPoint: "Anchor-4" 272 0 basechar 0
LayerCount: 2
Fore
SplineSet
603.580078125 188.25 m 2x72
 611.75 184 610.779296875 179 605.0390625 170 c 2
 488.21875 -4 l 2
 484.80859375 -10 480.668945312 -12 476.668945312 -12 c 0
 473.668945312 -12 471.569335938 -11.25 469.26953125 -9 c 2
 466.239257812 -4 l 2
 463.119140625 -0.75 460.029296875 0 449.029296875 0 c 2
 -1.970703125 0 l 2
 -10.970703125 0 -15.1806640625 4 -13.4306640625 13 c 2x72
 -11.1005859375 25 l 2
 -9.560546875 33 -2.580078125 38 5.41015625 38 c 2
 6.41015625 38 l 2
 49.41015625 38 75.66015625 65 86.5400390625 121 c 2
 167.58984375 538 l 2
 178.280273438 593 162.720703125 621 118.720703125 621 c 0xaa
 110.720703125 621 105.900390625 627 107.450195312 635 c 2
 109.580078125 646 l 2
 111.330078125 655 117.299804688 660 126.299804688 660 c 2
 536.299804688 660 l 2x72
 545.299804688 660 549.439453125 660.75 554.059570312 664 c 2
 560.029296875 669 l 2
 562.418945312 671 565.418945312 671 568.418945312 671 c 0
 572.418945312 671 576.018554688 669 578.038085938 664 c 2x66
 623.908203125 545 l 2
 625.318359375 542 625.73828125 539 625.348632812 537 c 0
 624.37890625 532 620.758789062 528.75 616.228515625 526 c 2
 593.999023438 514.5 l 2
 588.428710938 511.5 586.228515625 510.5 583.228515625 510.5 c 0
 579.228515625 510.5 576.818359375 513.5 574.80859375 518.5 c 2
 572.778320312 523.5 l 2
 543.728515625 594 517.178710938 613 449.178710938 613 c 2
 279.428710938 613 l 1
 233.369140625 376 l 1
 338.119140625 376 l 2
 383.619140625 376 410.999023438 396 418.579101562 435 c 2
 419.739257812 441 l 2
 421.489257812 450 426.26953125 454 435.26953125 454 c 2
 446.26953125 454 l 2
 455.26953125 454 458.479492188 450 456.729492188 441 c 2
 422.229492188 263.5 l 2
 420.479492188 254.5 415.69921875 250.5 406.69921875 250.5 c 2
 395.69921875 250.5 l 2
 386.69921875 250.5 383.489257812 254.5 385.239257812 263.5 c 2
 386.19921875 268.5 l 2x7080
 393.979492188 308.5 375.169921875 327.5 328.669921875 327.5 c 2
 223.919921875 327.5 l 1
 185.729492188 131 l 2
 175.249023438 77 197.909179688 47 236.909179688 47 c 2
 307.659179688 47 l 2
 436.659179688 47 486.44921875 74.25 564.01953125 186.5 c 2
 568.1796875 192.5 l 2
 572.479492188 199.25 580.309570312 202.25 587.879882812 197.5 c 2
 603.580078125 188.25 l 2x72
267.049804688 -55.7099609375 m 0x71
 282.109375 -58.6201171875 293.249023438 -66.6298828125 305.369140625 -84.6103515625 c 0
 317.508789062 -102.600585938 320.94921875 -114.990234375 318.029296875 -130.040039062 c 0
 315.109375 -145.08984375 306.139648438 -156.049804688 289.290039062 -167.419921875 c 0
 271.309570312 -179.540039062 257.979492188 -182.799804688 242.9296875 -179.879882812 c 0
 228.809570312 -177.149414062 218.619140625 -169.319335938 205.548828125 -151.149414062 c 0
 193.228515625 -134.099609375 189.96875 -120.779296875 192.888671875 -105.729492188 c 0
 195.80859375 -90.669921875 203.638671875 -80.4794921875 221.62890625 -68.359375 c 0
 239.609375 -56.2197265625 252.939453125 -52.9599609375 267.049804688 -55.7099609375 c 0x71
418.620117188 795.4609375 m 1
 391.23046875 757.680664062 349.041992188 715.280273438 305.1015625 715.280273438 c 0
 281.981445312 715.280273438 275.541015625 737.629882812 280.470703125 763.0703125 c 0
 282.720703125 774.620117188 285.440429688 784.650390625 294.66015625 788.5 c 0
 342.690429688 805.459960938 368.060546875 817.009765625 431.350585938 860.969726562 c 1
 477.541015625 817.009765625 498.430664062 805.459960938 539.850585938 788.5 c 0
 547.581054688 784.650390625 546.411132812 774.620117188 544.161132812 763.0703125 c 0
 539.220703125 737.629882812 524.081054688 715.280273438 500.94140625 715.280273438 c 0
 457.000976562 715.280273438 431.310546875 757.680664062 418.620117188 795.4609375 c 1
EndSplineSet
Substitution2: "'c2sc' Capitals to Small Capitals in Latin lookup 11 subtable" uni1EC6.sc
AlternateSubs2: "'aalt' Access All Alternates in Latin lookup 0 subtable" uni1EC6.sc
Position2: "'cpsp' Capital Spacing in Latin lookup 0 subtable" dx=5 dy=0 dh=10 dv=0
EndChar

StartChar: uni1EC0
Encoding: 7872 7872 57
Width: 634
GlyphClass: 2
Flags: MW
HStem: 0 38<-6.4707 6.41016 5.41016 6.41016 6.41016 27.9102 5.41016 449.029> 0 47<236.909 307.659 307.659 372.159> 327.5 48.5<233.369 328.67 223.92 338.119> 613 47<279.429 449.179 279.429 279.429> 621 39<126.3 140.721> 651 20G<566.919 570.419>
VStem: -14 639 419.13 37.59
AnchorPoint: "Anchor-7" 314 1006 basechar 0
AnchorPoint: "Anchor-6" 464 0 basechar 0
AnchorPoint: "Anchor-5" 423 816 basechar 0
AnchorPoint: "Anchor-4" 272 0 basechar 0
LayerCount: 2
Fore
SplineSet
603.580078125 188.25 m 2x72
 611.75 184 610.779296875 179 605.0390625 170 c 2
 488.21875 -4 l 2
 484.80859375 -10 480.668945312 -12 476.668945312 -12 c 0
 473.668945312 -12 471.569335938 -11.25 469.26953125 -9 c 2
 466.239257812 -4 l 2
 463.119140625 -0.75 460.029296875 0 449.029296875 0 c 2
 -1.970703125 0 l 2
 -10.970703125 0 -15.1806640625 4 -13.4306640625 13 c 2x72
 -11.1005859375 25 l 2
 -9.560546875 33 -2.580078125 38 5.41015625 38 c 2
 6.41015625 38 l 2
 49.41015625 38 75.66015625 65 86.5400390625 121 c 2
 167.58984375 538 l 2
 178.280273438 593 162.720703125 621 118.720703125 621 c 0xaa
 110.720703125 621 105.900390625 627 107.450195312 635 c 2
 109.580078125 646 l 2
 111.330078125 655 117.299804688 660 126.299804688 660 c 2
 536.299804688 660 l 2x72
 545.299804688 660 549.439453125 660.75 554.059570312 664 c 2
 560.029296875 669 l 2
 562.418945312 671 565.418945312 671 568.418945312 671 c 0
 572.418945312 671 576.018554688 669 578.038085938 664 c 2x66
 623.908203125 545 l 2
 625.318359375 542 625.73828125 539 625.348632812 537 c 0
 624.37890625 532 620.758789062 528.75 616.228515625 526 c 2
 593.999023438 514.5 l 2
 588.428710938 511.5 586.228515625 510.5 583.228515625 510.5 c 0
 579.228515625 510.5 576.818359375 513.5 574.80859375 518.5 c 2
 572.778320312 523.5 l 2
 543.728515625 594 517.178710938 613 449.178710938 613 c 2
 279.428710938 613 l 1
 233.369140625 376 l 1
 338.119140625 376 l 2
 383.619140625 376 410.999023438 396 418.579101562 435 c 2
 419.739257812 441 l 2
 421.489257812 450 426.26953125 454 435.26953125 454 c 2
 446.26953125 454 l 2
 455.26953125 454 458.479492188 450 456.729492188 441 c 2
 422.229492188 263.5 l 2
 420.479492188 254.5 415.69921875 250.5 406.69921875 250.5 c 2
 395.69921875 250.5 l 2
 386.69921875 250.5 383.489257812 254.5 385.239257812 263.5 c 2
 386.19921875 268.5 l 2x71
 393.979492188 308.5 375.169921875 327.5 328.669921875 327.5 c 2
 223.919921875 327.5 l 1
 185.729492188 131 l 2
 175.249023438 77 197.909179688 47 236.909179688 47 c 2
 307.659179688 47 l 2
 436.659179688 47 486.44921875 74.25 564.01953125 186.5 c 2
 568.1796875 192.5 l 2
 572.479492188 199.25 580.309570312 202.25 587.879882812 197.5 c 2
 603.580078125 188.25 l 2x72
418.620117188 795.4296875 m 1
 391.23046875 757.649414062 349.041992188 715.249023438 305.1015625 715.249023438 c 0
 281.981445312 715.249023438 275.541015625 737.598632812 280.470703125 763.0390625 c 0
 282.720703125 774.588867188 285.440429688 784.619140625 294.66015625 788.46875 c 0
 342.690429688 805.428710938 368.060546875 816.978515625 431.350585938 860.938476562 c 1
 477.541015625 816.978515625 498.430664062 805.428710938 539.850585938 788.46875 c 0
 547.581054688 784.619140625 546.411132812 774.588867188 544.161132812 763.0390625 c 0
 539.220703125 737.598632812 524.081054688 715.249023438 500.94140625 715.249023438 c 0
 457.000976562 715.249023438 431.310546875 757.649414062 418.620117188 795.4296875 c 1
334.491210938 827.989257812 m 2
 329.55078125 825.26953125 325.381835938 823.41015625 322.401367188 823.16015625 c 0
 319.321289062 822.959960938 315.340820312 824.509765625 311.400390625 826.509765625 c 0
 256.709960938 855.490234375 182.290039062 891.790039062 171.870117188 945.459960938 c 0
 166.98046875 970.669921875 178.900390625 984.979492188 207.930664062 984.979492188 c 0
 218.98046875 984.979492188 229.740234375 982.489257812 236.220703125 972.489257812 c 0
 268.110351562 922.239257812 284.640625 900.189453125 348.80078125 835.779296875 c 1
 334.491210938 827.989257812 l 2
EndSplineSet
Substitution2: "'c2sc' Capitals to Small Capitals in Latin lookup 11 subtable" uni1EC0.sc
AlternateSubs2: "'aalt' Access All Alternates in Latin lookup 0 subtable" uni1EC0.sc
Position2: "'cpsp' Capital Spacing in Latin lookup 0 subtable" dx=5 dy=0 dh=10 dv=0
EndChar

StartChar: uni1EC2
Encoding: 7874 7874 58
Width: 634
GlyphClass: 2
Flags: MW
HStem: 0 38<-6.4707 6.41016 5.41016 6.41016 6.41016 27.9102 5.41016 449.029> 0 47<236.909 307.659 307.659 372.159> 327.5 48.5<233.369 328.67 223.92 338.119> 613 47<279.429 449.179 279.429 279.429> 621 39<126.3 140.721> 651 20G<566.919 570.419> 914 73.4 924.97 62.43
VStem: 419.13 37.59 544.08 56.26
AnchorPoint: "Anchor-7" 562 1053 basechar 0
AnchorPoint: "Anchor-6" 464 0 basechar 0
AnchorPoint: "Anchor-5" 423 816 basechar 0
AnchorPoint: "Anchor-4" 272 0 basechar 0
LayerCount: 2
Fore
SplineSet
603.580078125 188.25 m 2x70c0
 611.75 184 610.779296875 179 605.0390625 170 c 2
 488.21875 -4 l 2
 484.80859375 -10 480.668945312 -12 476.668945312 -12 c 0
 473.668945312 -12 471.569335938 -11.25 469.26953125 -9 c 2
 466.239257812 -4 l 2
 463.119140625 -0.75 460.029296875 0 449.029296875 0 c 2
 -1.970703125 0 l 2
 -10.970703125 0 -15.1806640625 4 -13.4306640625 13 c 2x70c0
 -11.1005859375 25 l 2
 -9.560546875 33 -2.580078125 38 5.41015625 38 c 2
 6.41015625 38 l 2
 49.41015625 38 75.66015625 65 86.5400390625 121 c 2
 167.58984375 538 l 2
 178.280273438 593 162.720703125 621 118.720703125 621 c 0xa8c0
 110.720703125 621 105.900390625 627 107.450195312 635 c 2
 109.580078125 646 l 2
 111.330078125 655 117.299804688 660 126.299804688 660 c 2
 536.299804688 660 l 2x70c0
 545.299804688 660 549.439453125 660.75 554.059570312 664 c 2
 560.029296875 669 l 2
 562.418945312 671 565.418945312 671 568.418945312 671 c 0
 572.418945312 671 576.018554688 669 578.038085938 664 c 2x64c0
 623.908203125 545 l 2
 625.318359375 542 625.73828125 539 625.348632812 537 c 0
 624.37890625 532 620.758789062 528.75 616.228515625 526 c 2
 593.999023438 514.5 l 2
 588.428710938 511.5 586.228515625 510.5 583.228515625 510.5 c 0
 579.228515625 510.5 576.818359375 513.5 574.80859375 518.5 c 2
 572.778320312 523.5 l 2
 543.728515625 594 517.178710938 613 449.178710938 613 c 2
 279.428710938 613 l 1
 233.369140625 376 l 1
 338.119140625 376 l 2
 383.619140625 376 410.999023438 396 418.579101562 435 c 2
 419.739257812 441 l 2
 421.489257812 450 426.26953125 454 435.26953125 454 c 2
 446.26953125 454 l 2
 455.26953125 454 458.479492188 450 456.729492188 441 c 2
 422.229492188 263.5 l 2
 420.479492188 254.5 415.69921875 250.5 406.69921875 250.5 c 2
 395.69921875 250.5 l 2
 386.69921875 250.5 383.489257812 254.5 385.239257812 263.5 c 2
 386.19921875 268.5 l 2
 393.979492188 308.5 375.169921875 327.5 328.669921875 327.5 c 2
 223.919921875 327.5 l 1
 185.729492188 131 l 2
 175.249023438 77 197.909179688 47 236.909179688 47 c 2
 307.659179688 47 l 2
 436.659179688 47 486.44921875 74.25 564.01953125 186.5 c 2
 568.1796875 192.5 l 2
 572.479492188 199.25 580.309570312 202.25 587.879882812 197.5 c 2
 603.580078125 188.25 l 2x70c0
418.620117188 795.4296875 m 1
 391.23046875 757.649414062 349.041992188 715.249023438 305.1015625 715.249023438 c 0
 281.981445312 715.249023438 275.541015625 737.598632812 280.470703125 763.0390625 c 0
 282.720703125 774.588867188 285.440429688 784.619140625 294.66015625 788.46875 c 0
 342.690429688 805.428710938 368.060546875 816.978515625 431.350585938 860.938476562 c 1
 477.541015625 816.978515625 498.430664062 805.428710938 539.850585938 788.46875 c 0
 547.581054688 784.619140625 546.411132812 774.588867188 544.161132812 763.0390625 c 0
 539.220703125 737.598632812 524.081054688 715.249023438 500.94140625 715.249023438 c 0
 457.000976562 715.249023438 431.310546875 757.649414062 418.620117188 795.4296875 c 1
546.021484375 826.529296875 m 0
 535.76171875 815.829101562 504.862304688 837.8203125 512.032226562 846.30078125 c 0
 524.442382812 861.55078125 540.012695312 875.9609375 544.04296875 896.690429688 c 0
 548.142578125 917.860351562 536.682617188 924.959960938 522.6328125 924.959960938 c 0
 503.552734375 924.959960938 487.022460938 908.0703125 483.7421875 916.299804688 c 0x71c0
 478.58203125 929.389648438 471.08203125 943.83984375 476.202148438 959.729492188 c 0
 479.251953125 969.779296875 512.662109375 987.359375 543.40234375 987.359375 c 0
 597.171875 987.359375 606.521484375 945.599609375 600.311523438 913.619140625 c 0x72c0
 595.1015625 886.7890625 575.361328125 856.609375 546.021484375 826.529296875 c 0
EndSplineSet
Substitution2: "'c2sc' Capitals to Small Capitals in Latin lookup 11 subtable" uni1EC2.sc
AlternateSubs2: "'aalt' Access All Alternates in Latin lookup 0 subtable" uni1EC2.sc
Position2: "'cpsp' Capital Spacing in Latin lookup 0 subtable" dx=5 dy=0 dh=10 dv=0
EndChar

StartChar: uni1EC4
Encoding: 7876 7876 59
Width: 634
GlyphClass: 2
Flags: MW
HStem: 0 38<-6.4707 6.41016 5.41016 6.41016 6.41016 27.9102 5.41016 449.029> 0 47<236.909 307.659 307.659 372.159> 327.5 48.5<233.369 328.67 223.92 338.119> 613 47<279.429 449.179 279.429 279.429> 621 39<126.3 140.721> 651 20G<566.919 570.419> 881.08 50.5 965.08 49.5
VStem: 304.37 57.4 419.13 37.59 535.6 56.32
AnchorPoint: "Anchor-7" 412 759 basechar 0
AnchorPoint: "Anchor-6" 464 0 basechar 0
AnchorPoint: "Anchor-5" 459 1001 basechar 0
AnchorPoint: "Anchor-4" 272 0 basechar 0
LayerCount: 2
Fore
SplineSet
603.580078125 188.25 m 2x73e0
 611.75 184 610.779296875 179 605.0390625 170 c 2
 488.21875 -4 l 2
 484.80859375 -10 480.668945312 -12 476.668945312 -12 c 0
 473.668945312 -12 471.569335938 -11.25 469.26953125 -9 c 2
 466.239257812 -4 l 2
 463.119140625 -0.75 460.029296875 0 449.029296875 0 c 2
 -1.970703125 0 l 2
 -10.970703125 0 -15.1806640625 4 -13.4306640625 13 c 2x73e0
 -11.1005859375 25 l 2
 -9.560546875 33 -2.580078125 38 5.41015625 38 c 2
 6.41015625 38 l 2
 49.41015625 38 75.66015625 65 86.5400390625 121 c 2
 167.58984375 538 l 2
 178.280273438 593 162.720703125 621 118.720703125 621 c 0xabe0
 110.720703125 621 105.900390625 627 107.450195312 635 c 2
 109.580078125 646 l 2
 111.330078125 655 117.299804688 660 126.299804688 660 c 2
 536.299804688 660 l 2x73e0
 545.299804688 660 549.439453125 660.75 554.059570312 664 c 2
 560.029296875 669 l 2
 562.418945312 671 565.418945312 671 568.418945312 671 c 0
 572.418945312 671 576.018554688 669 578.038085938 664 c 2x67e0
 623.908203125 545 l 2
 625.318359375 542 625.73828125 539 625.348632812 537 c 0
 624.37890625 532 620.758789062 528.75 616.228515625 526 c 2
 593.999023438 514.5 l 2
 588.428710938 511.5 586.228515625 510.5 583.228515625 510.5 c 0
 579.228515625 510.5 576.818359375 513.5 574.80859375 518.5 c 2
 572.778320312 523.5 l 2
 543.728515625 594 517.178710938 613 449.178710938 613 c 2
 279.428710938 613 l 1
 233.369140625 376 l 1
 338.119140625 376 l 2
 383.619140625 376 410.999023438 396 418.579101562 435 c 2
 419.739257812 441 l 2
 421.489257812 450 426.26953125 454 435.26953125 454 c 2
 446.26953125 454 l 2
 455.26953125 454 458.479492188 450 456.729492188 441 c 2
 422.229492188 263.5 l 2
 420.479492188 254.5 415.69921875 250.5 406.69921875 250.5 c 2
 395.69921875 250.5 l 2
 386.69921875 250.5 383.489257812 254.5 385.239257812 263.5 c 2
 386.19921875 268.5 l 2
 393.979492188 308.5 375.169921875 327.5 328.669921875 327.5 c 2
 223.919921875 327.5 l 1
 185.729492188 131 l 2
 175.249023438 77 197.909179688 47 236.909179688 47 c 2
 307.659179688 47 l 2
 436.659179688 47 486.44921875 74.25 564.01953125 186.5 c 2
 568.1796875 192.5 l 2
 572.479492188 199.25 580.309570312 202.25 587.879882812 197.5 c 2
 603.580078125 188.25 l 2x73e0
418.620117188 795.4296875 m 1
 391.23046875 757.649414062 349.041992188 715.249023438 305.1015625 715.249023438 c 0
 281.981445312 715.249023438 275.541015625 737.598632812 280.470703125 763.0390625 c 0
 282.720703125 774.588867188 285.440429688 784.619140625 294.66015625 788.46875 c 0
 342.690429688 805.428710938 368.060546875 816.978515625 431.350585938 860.938476562 c 1
 477.541015625 816.978515625 498.430664062 805.428710938 539.850585938 788.46875 c 0
 547.581054688 784.619140625 546.411132812 774.588867188 544.161132812 763.0390625 c 0
 539.220703125 737.598632812 524.081054688 715.249023438 500.94140625 715.249023438 c 0
 457.000976562 715.249023438 431.310546875 757.649414062 418.620117188 795.4296875 c 1
469.061523438 961.599609375 m 0
 479.071289062 939.5 489.043945312 931.578125 503.09375 931.578125 c 0
 521.09375 931.578125 534.624023438 945.858398438 538.204101562 964.318359375 c 0
 540.34375 975.368164062 540.2734375 987.108398438 535.603515625 999.248046875 c 1
 545.86328125 1007.09765625 560.203125 1015.53808594 571.393554688 1015.53808594 c 0
 585.09375 1015.53808594 597.643554688 989.868164062 591.893554688 960.297851562 c 0
 582.293945312 910.927734375 540.984375 881.057617188 503.25390625 881.057617188 c 0
 449.59375 881.057617188 436.673828125 910.177734375 427.553710938 933.607421875 c 0
 419.11328125 956.967773438 408.6328125 965.038085938 394.592773438 965.038085938 c 0
 376.592773438 965.038085938 361.692382812 948.84765625 358.282226562 931.297851562 c 0
 356.072265625 919.927734375 356.942382812 908.217773438 361.772460938 896.297851562 c 1
 351.482421875 888.48828125 337.032226562 880.068359375 325.08203125 880.068359375 c 0
 312.112304688 880.068359375 298.83203125 905.728515625 304.381835938 934.30859375 c 0
 314.141601562 984.588867188 356.401367188 1014.54882812 394.221679688 1014.54882812 c 0
 446.971679688 1014.54882812 460.3515625 983.569335938 469.061523438 961.599609375 c 0
EndSplineSet
Substitution2: "'c2sc' Capitals to Small Capitals in Latin lookup 11 subtable" uni1EC4.sc
AlternateSubs2: "'aalt' Access All Alternates in Latin lookup 0 subtable" uni1EC4.sc
Position2: "'cpsp' Capital Spacing in Latin lookup 0 subtable" dx=5 dy=0 dh=10 dv=0
EndChar

StartChar: uni0204
Encoding: 516 516 60
Width: 634
GlyphClass: 2
Flags: MW
HStem: 0 38<-6.4707 6.41016 5.41016 6.41016 6.41016 27.9102 5.41016 449.029> 0 47<236.909 307.659 307.659 372.159> 327.5 48.5<233.369 328.67 223.92 338.119> 613 47<279.429 449.179 279.429 279.429> 621 39<126.3 140.721> 651 20G<566.919 570.419>
VStem: -14 639 419.13 37.59
AnchorPoint: "Anchor-6" 464 0 basechar 0
AnchorPoint: "Anchor-5" 392 899 basechar 0
AnchorPoint: "Anchor-4" 272 0 basechar 0
LayerCount: 2
Fore
SplineSet
603.580078125 188.25 m 2x72
 611.75 184 610.779296875 179 605.0390625 170 c 2
 488.21875 -4 l 2
 484.80859375 -10 480.668945312 -12 476.668945312 -12 c 0
 473.668945312 -12 471.569335938 -11.25 469.26953125 -9 c 2
 466.239257812 -4 l 2
 463.119140625 -0.75 460.029296875 0 449.029296875 0 c 2
 -1.970703125 0 l 2
 -10.970703125 0 -15.1806640625 4 -13.4306640625 13 c 2x72
 -11.1005859375 25 l 2
 -9.560546875 33 -2.580078125 38 5.41015625 38 c 2
 6.41015625 38 l 2
 49.41015625 38 75.66015625 65 86.5400390625 121 c 2
 167.58984375 538 l 2
 178.280273438 593 162.720703125 621 118.720703125 621 c 0xaa
 110.720703125 621 105.900390625 627 107.450195312 635 c 2
 109.580078125 646 l 2
 111.330078125 655 117.299804688 660 126.299804688 660 c 2
 536.299804688 660 l 2x72
 545.299804688 660 549.439453125 660.75 554.059570312 664 c 2
 560.029296875 669 l 2
 562.418945312 671 565.418945312 671 568.418945312 671 c 0
 572.418945312 671 576.018554688 669 578.038085938 664 c 2x66
 623.908203125 545 l 2
 625.318359375 542 625.73828125 539 625.348632812 537 c 0
 624.37890625 532 620.758789062 528.75 616.228515625 526 c 2
 593.999023438 514.5 l 2
 588.428710938 511.5 586.228515625 510.5 583.228515625 510.5 c 0
 579.228515625 510.5 576.818359375 513.5 574.80859375 518.5 c 2
 572.778320312 523.5 l 2
 543.728515625 594 517.178710938 613 449.178710938 613 c 2
 279.428710938 613 l 1
 233.369140625 376 l 1
 338.119140625 376 l 2
 383.619140625 376 410.999023438 396 418.579101562 435 c 2
 419.739257812 441 l 2
 421.489257812 450 426.26953125 454 435.26953125 454 c 2
 446.26953125 454 l 2
 455.26953125 454 458.479492188 450 456.729492188 441 c 2
 422.229492188 263.5 l 2
 420.479492188 254.5 415.69921875 250.5 406.69921875 250.5 c 2
 395.69921875 250.5 l 2
 386.69921875 250.5 383.489257812 254.5 385.239257812 263.5 c 2
 386.19921875 268.5 l 2x71
 393.979492188 308.5 375.169921875 327.5 328.669921875 327.5 c 2
 223.919921875 327.5 l 1
 185.729492188 131 l 2
 175.249023438 77 197.909179688 47 236.909179688 47 c 2
 307.659179688 47 l 2
 436.659179688 47 486.44921875 74.25 564.01953125 186.5 c 2
 568.1796875 192.5 l 2
 572.479492188 199.25 580.309570312 202.25 587.879882812 197.5 c 2
 603.580078125 188.25 l 2x72
589.139648438 721.33984375 m 2
 584.209960938 718.629882812 580.040039062 716.73828125 577.040039062 716.498046875 c 0
 573.959960938 716.288085938 569.979492188 717.84765625 566.059570312 719.828125 c 0
 511.369140625 748.807617188 436.94921875 785.127929688 426.508789062 838.788085938 c 0
 421.619140625 863.998046875 433.548828125 878.318359375 462.579101562 878.318359375 c 0
 473.649414062 878.318359375 484.399414062 875.838867188 490.899414062 865.829101562 c 0
 522.76953125 815.579101562 539.299804688 793.529296875 603.469726562 729.139648438 c 1
 589.139648438 721.33984375 l 2
416.509765625 721.318359375 m 2
 411.580078125 718.608398438 407.412109375 716.716796875 404.431640625 716.4765625 c 0
 401.3515625 716.266601562 397.37109375 717.826171875 393.430664062 719.806640625 c 0
 338.740234375 748.786132812 264.3203125 785.106445312 253.900390625 838.766601562 c 0
 249 863.9765625 260.919921875 878.296875 289.959960938 878.296875 c 0
 301.009765625 878.296875 311.76953125 875.817382812 318.25 865.807617188 c 0
 350.139648438 815.557617188 366.669921875 793.5078125 430.830078125 729.118164062 c 1
 416.509765625 721.318359375 l 2
EndSplineSet
Substitution2: "'c2sc' Capitals to Small Capitals in Latin lookup 11 subtable" uni0204.sc
AlternateSubs2: "'aalt' Access All Alternates in Latin lookup 0 subtable" uni0204.sc
Position2: "'cpsp' Capital Spacing in Latin lookup 0 subtable" dx=5 dy=0 dh=10 dv=0
EndChar

StartChar: Edieresis
Encoding: 203 203 61
Width: 634
GlyphClass: 2
Flags: MW
HStem: 0 38<-6.4707 6.41016 5.41016 6.41016 6.41016 27.9102 5.41016 449.029> 0 47<236.909 307.659 307.659 372.159> 327.5 48.5<233.369 328.67 223.92 338.119> 613 47<279.429 449.179 279.429 279.429> 621 39<126.3 140.721> 651 20G<566.919 570.419>
VStem: -14 639 254.07 125.19 419.13 37.59 459.07 125.19
AnchorPoint: "Anchor-6" 464 0 basechar 0
AnchorPoint: "Anchor-5" 428 845 basechar 0
AnchorPoint: "Anchor-4" 272 0 basechar 0
LayerCount: 2
Fore
SplineSet
603.580078125 188.25 m 2x72
 611.75 184 610.779296875 179 605.0390625 170 c 2
 488.21875 -4 l 2
 484.80859375 -10 480.668945312 -12 476.668945312 -12 c 0
 473.668945312 -12 471.569335938 -11.25 469.26953125 -9 c 2
 466.239257812 -4 l 2
 463.119140625 -0.75 460.029296875 0 449.029296875 0 c 2
 -1.970703125 0 l 2
 -10.970703125 0 -15.1806640625 4 -13.4306640625 13 c 2x72
 -11.1005859375 25 l 2
 -9.560546875 33 -2.580078125 38 5.41015625 38 c 2
 6.41015625 38 l 2
 49.41015625 38 75.66015625 65 86.5400390625 121 c 2
 167.58984375 538 l 2
 178.280273438 593 162.720703125 621 118.720703125 621 c 0xaa
 110.720703125 621 105.900390625 627 107.450195312 635 c 2
 109.580078125 646 l 2
 111.330078125 655 117.299804688 660 126.299804688 660 c 2
 536.299804688 660 l 2x72
 545.299804688 660 549.439453125 660.75 554.059570312 664 c 2
 560.029296875 669 l 2
 562.418945312 671 565.418945312 671 568.418945312 671 c 0
 572.418945312 671 576.018554688 669 578.038085938 664 c 2x66
 623.908203125 545 l 2
 625.318359375 542 625.73828125 539 625.348632812 537 c 0
 624.37890625 532 620.758789062 528.75 616.228515625 526 c 2
 593.999023438 514.5 l 2
 588.428710938 511.5 586.228515625 510.5 583.228515625 510.5 c 0
 579.228515625 510.5 576.818359375 513.5 574.80859375 518.5 c 2
 572.778320312 523.5 l 2
 543.728515625 594 517.178710938 613 449.178710938 613 c 2
 279.428710938 613 l 1
 233.369140625 376 l 1
 338.119140625 376 l 2
 383.619140625 376 410.999023438 396 418.579101562 435 c 2
 419.739257812 441 l 2
 421.489257812 450 426.26953125 454 435.26953125 454 c 2
 446.26953125 454 l 2
 455.26953125 454 458.479492188 450 456.729492188 441 c 2
 422.229492188 263.5 l 2
 420.479492188 254.5 415.69921875 250.5 406.69921875 250.5 c 2
 395.69921875 250.5 l 2
 386.69921875 250.5 383.489257812 254.5 385.239257812 263.5 c 2
 386.19921875 268.5 l 2x7080
 393.979492188 308.5 375.169921875 327.5 328.669921875 327.5 c 2
 223.919921875 327.5 l 1
 185.729492188 131 l 2
 175.249023438 77 197.909179688 47 236.909179688 47 c 2
 307.659179688 47 l 2
 436.659179688 47 486.44921875 74.25 564.01953125 186.5 c 2
 568.1796875 192.5 l 2
 572.479492188 199.25 580.309570312 202.25 587.879882812 197.5 c 2
 603.580078125 188.25 l 2x72
328.26953125 847.209960938 m 0x7140
 343.319335938 844.290039062 354.458984375 836.26953125 366.579101562 818.2890625 c 0
 378.71875 800.309570312 382.159179688 787.909179688 379.239257812 772.859375 c 0
 376.319335938 757.809570312 367.359375 746.859375 350.509765625 735.489257812 c 0
 332.51953125 723.369140625 319.19921875 720.109375 304.139648438 723.029296875 c 0
 290.029296875 725.759765625 279.829101562 733.609375 266.758789062 751.76953125 c 0
 254.438476562 768.809570312 251.178710938 782.139648438 254.098632812 797.189453125 c 0
 257.028320312 812.239257812 264.858398438 822.439453125 282.838867188 834.559570312 c 0
 300.819335938 846.6796875 314.149414062 849.939453125 328.26953125 847.209960938 c 0x7140
533.26953125 847.219726562 m 0
 548.319335938 844.299804688 559.458984375 836.28125 571.579101562 818.30078125 c 0
 583.71875 800.3203125 587.159179688 787.919921875 584.239257812 772.870117188 c 0
 581.319335938 757.8203125 572.359375 746.870117188 555.509765625 735.5 c 0
 537.51953125 723.379882812 524.19921875 720.120117188 509.139648438 723.040039062 c 0
 495.029296875 725.770507812 484.829101562 733.620117188 471.758789062 751.780273438 c 0
 459.438476562 768.8203125 456.178710938 782.150390625 459.098632812 797.200195312 c 0
 462.028320312 812.25 469.858398438 822.450195312 487.838867188 834.5703125 c 0
 505.819335938 846.690429688 519.149414062 849.950195312 533.26953125 847.219726562 c 0
EndSplineSet
Substitution2: "'c2sc' Capitals to Small Capitals in Latin lookup 11 subtable" Edieresis.sc
AlternateSubs2: "'aalt' Access All Alternates in Latin lookup 0 subtable" Edieresis.sc
Position2: "'cpsp' Capital Spacing in Latin lookup 0 subtable" dx=5 dy=0 dh=10 dv=0
EndChar

StartChar: Edotaccent
Encoding: 278 278 62
Width: 634
GlyphClass: 2
Flags: MW
HStem: 0 38<-6.4707 6.41016 5.41016 6.41016 6.41016 27.9102 5.41016 449.029> 0 47<236.909 307.659 307.659 372.159> 327.5 48.5<233.369 328.67 223.92 338.119> 613 47<279.429 449.179 279.429 279.429> 621 39<126.3 140.721> 651 20G<566.919 570.419>
VStem: -14 639 356.67 125.19 419.13 37.59
AnchorPoint: "Anchor-6" 464 0 basechar 0
AnchorPoint: "Anchor-5" 428 845 basechar 0
AnchorPoint: "Anchor-4" 272 0 basechar 0
LayerCount: 2
Fore
SplineSet
603.580078125 188.25 m 2x72
 611.75 184 610.779296875 179 605.0390625 170 c 2
 488.21875 -4 l 2
 484.80859375 -10 480.668945312 -12 476.668945312 -12 c 0
 473.668945312 -12 471.569335938 -11.25 469.26953125 -9 c 2
 466.239257812 -4 l 2
 463.119140625 -0.75 460.029296875 0 449.029296875 0 c 2
 -1.970703125 0 l 2
 -10.970703125 0 -15.1806640625 4 -13.4306640625 13 c 2x72
 -11.1005859375 25 l 2
 -9.560546875 33 -2.580078125 38 5.41015625 38 c 2
 6.41015625 38 l 2
 49.41015625 38 75.66015625 65 86.5400390625 121 c 2
 167.58984375 538 l 2
 178.280273438 593 162.720703125 621 118.720703125 621 c 0xaa
 110.720703125 621 105.900390625 627 107.450195312 635 c 2
 109.580078125 646 l 2
 111.330078125 655 117.299804688 660 126.299804688 660 c 2
 536.299804688 660 l 2x72
 545.299804688 660 549.439453125 660.75 554.059570312 664 c 2
 560.029296875 669 l 2
 562.418945312 671 565.418945312 671 568.418945312 671 c 0
 572.418945312 671 576.018554688 669 578.038085938 664 c 2x66
 623.908203125 545 l 2
 625.318359375 542 625.73828125 539 625.348632812 537 c 0
 624.37890625 532 620.758789062 528.75 616.228515625 526 c 2
 593.999023438 514.5 l 2
 588.428710938 511.5 586.228515625 510.5 583.228515625 510.5 c 0
 579.228515625 510.5 576.818359375 513.5 574.80859375 518.5 c 2
 572.778320312 523.5 l 2
 543.728515625 594 517.178710938 613 449.178710938 613 c 2
 279.428710938 613 l 1
 233.369140625 376 l 1
 338.119140625 376 l 2
 383.619140625 376 410.999023438 396 418.579101562 435 c 2
 419.739257812 441 l 2
 421.489257812 450 426.26953125 454 435.26953125 454 c 2
 446.26953125 454 l 2
 455.26953125 454 458.479492188 450 456.729492188 441 c 2
 422.229492188 263.5 l 2
 420.479492188 254.5 415.69921875 250.5 406.69921875 250.5 c 2
 395.69921875 250.5 l 2
 386.69921875 250.5 383.489257812 254.5 385.239257812 263.5 c 2
 386.19921875 268.5 l 2x7080
 393.979492188 308.5 375.169921875 327.5 328.669921875 327.5 c 2
 223.919921875 327.5 l 1
 185.729492188 131 l 2
 175.249023438 77 197.909179688 47 236.909179688 47 c 2
 307.659179688 47 l 2
 436.659179688 47 486.44921875 74.25 564.01953125 186.5 c 2
 568.1796875 192.5 l 2
 572.479492188 199.25 580.309570312 202.25 587.879882812 197.5 c 2
 603.580078125 188.25 l 2x72
430.870117188 847.209960938 m 0x71
 445.9296875 844.290039062 457.05859375 836.26953125 469.188476562 818.2890625 c 0
 481.30859375 800.309570312 484.768554688 787.909179688 481.848632812 772.859375 c 0
 478.928710938 757.809570312 469.958984375 746.859375 453.109375 735.489257812 c 0
 435.129882812 723.369140625 421.799804688 720.109375 406.75 723.029296875 c 0
 392.629882812 725.759765625 382.439453125 733.609375 369.369140625 751.76953125 c 0
 357.048828125 768.809570312 353.7890625 782.139648438 356.708984375 797.189453125 c 0
 359.62890625 812.239257812 367.458984375 822.439453125 385.44921875 834.559570312 c 0
 403.4296875 846.6796875 416.759765625 849.939453125 430.870117188 847.209960938 c 0x71
EndSplineSet
Substitution2: "'c2sc' Capitals to Small Capitals in Latin lookup 11 subtable" Edotaccent.sc
AlternateSubs2: "'aalt' Access All Alternates in Latin lookup 0 subtable" Edotaccent.sc
Position2: "'cpsp' Capital Spacing in Latin lookup 0 subtable" dx=5 dy=0 dh=10 dv=0
EndChar

StartChar: uni1EB8
Encoding: 7864 7864 63
Width: 634
GlyphClass: 2
Flags: MW
HStem: 0 38<-6.4707 6.41016 5.41016 6.41016 6.41016 27.9102 5.41016 449.029> 0 47<236.909 307.659 307.659 372.159> 327.5 48.5<233.369 328.67 223.92 338.119> 613 47<279.429 449.179 279.429 279.429> 621 39<126.3 140.721> 651 20G<566.919 570.419>
VStem: -14 639 192.85 125.19 419.13 37.59
AnchorPoint: "Anchor-6" 464 0 basechar 0
AnchorPoint: "Anchor-5" 392 660 basechar 0
AnchorPoint: "Anchor-4" 272 0 basechar 0
LayerCount: 2
Fore
SplineSet
603.580078125 188.25 m 2x72
 611.75 184 610.779296875 179 605.0390625 170 c 2
 488.21875 -4 l 2
 484.80859375 -10 480.668945312 -12 476.668945312 -12 c 0
 473.668945312 -12 471.569335938 -11.25 469.26953125 -9 c 2
 466.239257812 -4 l 2
 463.119140625 -0.75 460.029296875 0 449.029296875 0 c 2
 -1.970703125 0 l 2
 -10.970703125 0 -15.1806640625 4 -13.4306640625 13 c 2x72
 -11.1005859375 25 l 2
 -9.560546875 33 -2.580078125 38 5.41015625 38 c 2
 6.41015625 38 l 2
 49.41015625 38 75.66015625 65 86.5400390625 121 c 2
 167.58984375 538 l 2
 178.280273438 593 162.720703125 621 118.720703125 621 c 0xaa
 110.720703125 621 105.900390625 627 107.450195312 635 c 2
 109.580078125 646 l 2
 111.330078125 655 117.299804688 660 126.299804688 660 c 2
 536.299804688 660 l 2x72
 545.299804688 660 549.439453125 660.75 554.059570312 664 c 2
 560.029296875 669 l 2
 562.418945312 671 565.418945312 671 568.418945312 671 c 0
 572.418945312 671 576.018554688 669 578.038085938 664 c 2x66
 623.908203125 545 l 2
 625.318359375 542 625.73828125 539 625.348632812 537 c 0
 624.37890625 532 620.758789062 528.75 616.228515625 526 c 2
 593.999023438 514.5 l 2
 588.428710938 511.5 586.228515625 510.5 583.228515625 510.5 c 0
 579.228515625 510.5 576.818359375 513.5 574.80859375 518.5 c 2
 572.778320312 523.5 l 2
 543.728515625 594 517.178710938 613 449.178710938 613 c 2
 279.428710938 613 l 1
 233.369140625 376 l 1
 338.119140625 376 l 2
 383.619140625 376 410.999023438 396 418.579101562 435 c 2
 419.739257812 441 l 2
 421.489257812 450 426.26953125 454 435.26953125 454 c 2
 446.26953125 454 l 2
 455.26953125 454 458.479492188 450 456.729492188 441 c 2
 422.229492188 263.5 l 2
 420.479492188 254.5 415.69921875 250.5 406.69921875 250.5 c 2
 395.69921875 250.5 l 2
 386.69921875 250.5 383.489257812 254.5 385.239257812 263.5 c 2
 386.19921875 268.5 l 2x7080
 393.979492188 308.5 375.169921875 327.5 328.669921875 327.5 c 2
 223.919921875 327.5 l 1
 185.729492188 131 l 2
 175.249023438 77 197.909179688 47 236.909179688 47 c 2
 307.659179688 47 l 2
 436.659179688 47 486.44921875 74.25 564.01953125 186.5 c 2
 568.1796875 192.5 l 2
 572.479492188 199.25 580.309570312 202.25 587.879882812 197.5 c 2
 603.580078125 188.25 l 2x72
267.049804688 -55.7099609375 m 0x71
 282.109375 -58.6201171875 293.249023438 -66.6298828125 305.369140625 -84.6103515625 c 0
 317.508789062 -102.600585938 320.94921875 -114.990234375 318.029296875 -130.040039062 c 0
 315.109375 -145.08984375 306.139648438 -156.049804688 289.290039062 -167.419921875 c 0
 271.309570312 -179.540039062 257.979492188 -182.799804688 242.9296875 -179.879882812 c 0
 228.809570312 -177.149414062 218.619140625 -169.319335938 205.548828125 -151.149414062 c 0
 193.228515625 -134.099609375 189.96875 -120.779296875 192.888671875 -105.729492188 c 0
 195.80859375 -90.669921875 203.638671875 -80.4794921875 221.62890625 -68.359375 c 0
 239.609375 -56.2197265625 252.939453125 -52.9599609375 267.049804688 -55.7099609375 c 0x71
EndSplineSet
Substitution2: "'c2sc' Capitals to Small Capitals in Latin lookup 11 subtable" uni1EB8.sc
AlternateSubs2: "'aalt' Access All Alternates in Latin lookup 0 subtable" uni1EB8.sc
Position2: "'cpsp' Capital Spacing in Latin lookup 0 subtable" dx=5 dy=0 dh=10 dv=0
EndChar

StartChar: Egrave
Encoding: 200 200 64
Width: 634
GlyphClass: 2
Flags: MW
HStem: 0 38<-6.4707 6.41016 5.41016 6.41016 6.41016 27.9102 5.41016 449.029> 0 47<236.909 307.659 307.659 372.159> 327.5 48.5<233.369 328.67 223.92 338.119> 613 47<279.429 449.179 279.429 279.429> 621 39<126.3 140.721> 651 20G<566.919 570.419>
VStem: -14 639 419.13 37.59
AnchorPoint: "Anchor-6" 464 0 basechar 0
AnchorPoint: "Anchor-5" 414 899 basechar 0
AnchorPoint: "Anchor-4" 272 0 basechar 0
LayerCount: 2
Fore
SplineSet
603.580078125 188.25 m 2x72
 611.75 184 610.779296875 179 605.0390625 170 c 2
 488.21875 -4 l 2
 484.80859375 -10 480.668945312 -12 476.668945312 -12 c 0
 473.668945312 -12 471.569335938 -11.25 469.26953125 -9 c 2
 466.239257812 -4 l 2
 463.119140625 -0.75 460.029296875 0 449.029296875 0 c 2
 -1.970703125 0 l 2
 -10.970703125 0 -15.1806640625 4 -13.4306640625 13 c 2x72
 -11.1005859375 25 l 2
 -9.560546875 33 -2.580078125 38 5.41015625 38 c 2
 6.41015625 38 l 2
 49.41015625 38 75.66015625 65 86.5400390625 121 c 2
 167.58984375 538 l 2
 178.280273438 593 162.720703125 621 118.720703125 621 c 0xaa
 110.720703125 621 105.900390625 627 107.450195312 635 c 2
 109.580078125 646 l 2
 111.330078125 655 117.299804688 660 126.299804688 660 c 2
 536.299804688 660 l 2x72
 545.299804688 660 549.439453125 660.75 554.059570312 664 c 2
 560.029296875 669 l 2
 562.418945312 671 565.418945312 671 568.418945312 671 c 0
 572.418945312 671 576.018554688 669 578.038085938 664 c 2x66
 623.908203125 545 l 2
 625.318359375 542 625.73828125 539 625.348632812 537 c 0
 624.37890625 532 620.758789062 528.75 616.228515625 526 c 2
 593.999023438 514.5 l 2
 588.428710938 511.5 586.228515625 510.5 583.228515625 510.5 c 0
 579.228515625 510.5 576.818359375 513.5 574.80859375 518.5 c 2
 572.778320312 523.5 l 2
 543.728515625 594 517.178710938 613 449.178710938 613 c 2
 279.428710938 613 l 1
 233.369140625 376 l 1
 338.119140625 376 l 2
 383.619140625 376 410.999023438 396 418.579101562 435 c 2
 419.739257812 441 l 2
 421.489257812 450 426.26953125 454 435.26953125 454 c 2
 446.26953125 454 l 2
 455.26953125 454 458.479492188 450 456.729492188 441 c 2
 422.229492188 263.5 l 2
 420.479492188 254.5 415.69921875 250.5 406.69921875 250.5 c 2
 395.69921875 250.5 l 2
 386.69921875 250.5 383.489257812 254.5 385.239257812 263.5 c 2
 386.19921875 268.5 l 2x71
 393.979492188 308.5 375.169921875 327.5 328.669921875 327.5 c 2
 223.919921875 327.5 l 1
 185.729492188 131 l 2
 175.249023438 77 197.909179688 47 236.909179688 47 c 2
 307.659179688 47 l 2
 436.659179688 47 486.44921875 74.25 564.01953125 186.5 c 2
 568.1796875 192.5 l 2
 572.479492188 199.25 580.309570312 202.25 587.879882812 197.5 c 2
 603.580078125 188.25 l 2x72
434.259765625 721.33984375 m 2
 429.33984375 718.629882812 425.1796875 716.73828125 422.1796875 716.498046875 c 0
 419.099609375 716.288085938 415.119140625 717.84765625 411.189453125 719.828125 c 0
 356.489257812 748.807617188 282.069335938 785.127929688 271.649414062 838.788085938 c 0
 266.759765625 863.998046875 278.6796875 878.318359375 307.709960938 878.318359375 c 0
 318.76953125 878.318359375 329.51953125 875.838867188 336.009765625 865.829101562 c 0
 367.889648438 815.579101562 384.419921875 793.529296875 448.58984375 729.139648438 c 1
 434.259765625 721.33984375 l 2
EndSplineSet
Substitution2: "'c2sc' Capitals to Small Capitals in Latin lookup 11 subtable" Egrave.sc
AlternateSubs2: "'aalt' Access All Alternates in Latin lookup 0 subtable" Egrave.sc
Position2: "'cpsp' Capital Spacing in Latin lookup 0 subtable" dx=5 dy=0 dh=10 dv=0
EndChar

StartChar: uni1EBA
Encoding: 7866 7866 65
Width: 634
GlyphClass: 2
Flags: MW
HStem: 0 38<-6.4707 6.41016 5.41016 6.41016 6.41016 27.9102 5.41016 449.029> 0 47<236.909 307.659 307.659 372.159> 327.5 48.5<233.369 328.67 223.92 338.119> 613 47<279.429 449.179 279.429 279.429> 621 39<126.3 140.721> 651 20G<566.919 570.419> 717 163.75 818.32 62.43
VStem: 419.13 37.59 429.85 56.27
AnchorPoint: "Anchor-6" 464 0 basechar 0
AnchorPoint: "Anchor-5" 448 946 basechar 0
AnchorPoint: "Anchor-4" 272 0 basechar 0
LayerCount: 2
Fore
SplineSet
603.580078125 188.25 m 2x7040
 611.75 184 610.779296875 179 605.0390625 170 c 2
 488.21875 -4 l 2
 484.80859375 -10 480.668945312 -12 476.668945312 -12 c 0
 473.668945312 -12 471.569335938 -11.25 469.26953125 -9 c 2
 466.239257812 -4 l 2
 463.119140625 -0.75 460.029296875 0 449.029296875 0 c 2
 -1.970703125 0 l 2
 -10.970703125 0 -15.1806640625 4 -13.4306640625 13 c 2x7040
 -11.1005859375 25 l 2
 -9.560546875 33 -2.580078125 38 5.41015625 38 c 2
 6.41015625 38 l 2
 49.41015625 38 75.66015625 65 86.5400390625 121 c 2
 167.58984375 538 l 2
 178.280273438 593 162.720703125 621 118.720703125 621 c 0xa840
 110.720703125 621 105.900390625 627 107.450195312 635 c 2
 109.580078125 646 l 2
 111.330078125 655 117.299804688 660 126.299804688 660 c 2
 536.299804688 660 l 2x7040
 545.299804688 660 549.439453125 660.75 554.059570312 664 c 2
 560.029296875 669 l 2
 562.418945312 671 565.418945312 671 568.418945312 671 c 0
 572.418945312 671 576.018554688 669 578.038085938 664 c 2x6440
 623.908203125 545 l 2
 625.318359375 542 625.73828125 539 625.348632812 537 c 0
 624.37890625 532 620.758789062 528.75 616.228515625 526 c 2
 593.999023438 514.5 l 2
 588.428710938 511.5 586.228515625 510.5 583.228515625 510.5 c 0
 579.228515625 510.5 576.818359375 513.5 574.80859375 518.5 c 2
 572.778320312 523.5 l 2
 543.728515625 594 517.178710938 613 449.178710938 613 c 2
 279.428710938 613 l 1
 233.369140625 376 l 1
 338.119140625 376 l 2
 383.619140625 376 410.999023438 396 418.579101562 435 c 2
 419.739257812 441 l 2
 421.489257812 450 426.26953125 454 435.26953125 454 c 2
 446.26953125 454 l 2
 455.26953125 454 458.479492188 450 456.729492188 441 c 2
 422.229492188 263.5 l 2
 420.479492188 254.5 415.69921875 250.5 406.69921875 250.5 c 2
 395.69921875 250.5 l 2
 386.69921875 250.5 383.489257812 254.5 385.239257812 263.5 c 2
 386.19921875 268.5 l 2x7080
 393.979492188 308.5 375.169921875 327.5 328.669921875 327.5 c 2
 223.919921875 327.5 l 1
 185.729492188 131 l 2
 175.249023438 77 197.909179688 47 236.909179688 47 c 2
 307.659179688 47 l 2
 436.659179688 47 486.44921875 74.25 564.01953125 186.5 c 2
 568.1796875 192.5 l 2
 572.479492188 199.25 580.309570312 202.25 587.879882812 197.5 c 2
 603.580078125 188.25 l 2x7040
431.809570312 719.889648438 m 0x7240
 421.549804688 709.1796875 390.650390625 731.1796875 397.8203125 739.66015625 c 0x7240
 410.23046875 754.91015625 425.80078125 769.3203125 429.831054688 790.049804688 c 0
 433.930664062 811.209960938 422.470703125 818.3203125 408.420898438 818.3203125 c 0
 389.340820312 818.3203125 372.810546875 801.440429688 369.530273438 809.650390625 c 0
 364.370117188 822.75 356.870117188 837.190429688 361.990234375 853.080078125 c 0
 365.040039062 863.129882812 398.450195312 880.719726562 429.190429688 880.719726562 c 0
 482.959960938 880.719726562 492.309570312 838.950195312 486.099609375 806.98046875 c 0x7140
 480.889648438 780.150390625 461.149414062 749.959960938 431.809570312 719.889648438 c 0x7240
EndSplineSet
Substitution2: "'c2sc' Capitals to Small Capitals in Latin lookup 11 subtable" uni1EBA.sc
AlternateSubs2: "'aalt' Access All Alternates in Latin lookup 0 subtable" uni1EBA.sc
Position2: "'cpsp' Capital Spacing in Latin lookup 0 subtable" dx=5 dy=0 dh=10 dv=0
EndChar

StartChar: uni0206
Encoding: 518 518 66
Width: 634
GlyphClass: 2
Flags: MW
HStem: 0 38<-6.4707 6.41016 5.41016 6.41016 6.41016 27.9102 5.41016 449.029> 0 47<236.909 307.659 307.659 372.159> 327.5 48.5<233.369 328.67 223.92 338.119> 613 47<279.429 449.179 279.429 279.429> 621 39<126.3 140.721> 651 20G<566.919 570.419> 824.64 48.36
VStem: -14 639 419.13 37.59
AnchorPoint: "Anchor-6" 464 0 basechar 0
AnchorPoint: "Anchor-5" 439 899 basechar 0
AnchorPoint: "Anchor-4" 272 0 basechar 0
LayerCount: 2
Fore
SplineSet
603.580078125 188.25 m 2x73
 611.75 184 610.779296875 179 605.0390625 170 c 2
 488.21875 -4 l 2
 484.80859375 -10 480.668945312 -12 476.668945312 -12 c 0
 473.668945312 -12 471.569335938 -11.25 469.26953125 -9 c 2
 466.239257812 -4 l 2
 463.119140625 -0.75 460.029296875 0 449.029296875 0 c 2
 -1.970703125 0 l 2
 -10.970703125 0 -15.1806640625 4 -13.4306640625 13 c 2x73
 -11.1005859375 25 l 2
 -9.560546875 33 -2.580078125 38 5.41015625 38 c 2
 6.41015625 38 l 2
 49.41015625 38 75.66015625 65 86.5400390625 121 c 2
 167.58984375 538 l 2
 178.280273438 593 162.720703125 621 118.720703125 621 c 0xab
 110.720703125 621 105.900390625 627 107.450195312 635 c 2
 109.580078125 646 l 2
 111.330078125 655 117.299804688 660 126.299804688 660 c 2
 536.299804688 660 l 2x73
 545.299804688 660 549.439453125 660.75 554.059570312 664 c 2
 560.029296875 669 l 2
 562.418945312 671 565.418945312 671 568.418945312 671 c 0
 572.418945312 671 576.018554688 669 578.038085938 664 c 2x67
 623.908203125 545 l 2
 625.318359375 542 625.73828125 539 625.348632812 537 c 0
 624.37890625 532 620.758789062 528.75 616.228515625 526 c 2
 593.999023438 514.5 l 2
 588.428710938 511.5 586.228515625 510.5 583.228515625 510.5 c 0
 579.228515625 510.5 576.818359375 513.5 574.80859375 518.5 c 2
 572.778320312 523.5 l 2
 543.728515625 594 517.178710938 613 449.178710938 613 c 2
 279.428710938 613 l 1
 233.369140625 376 l 1
 338.119140625 376 l 2
 383.619140625 376 410.999023438 396 418.579101562 435 c 2
 419.739257812 441 l 2
 421.489257812 450 426.26953125 454 435.26953125 454 c 2
 446.26953125 454 l 2
 455.26953125 454 458.479492188 450 456.729492188 441 c 2
 422.229492188 263.5 l 2
 420.479492188 254.5 415.69921875 250.5 406.69921875 250.5 c 2
 395.69921875 250.5 l 2
 386.69921875 250.5 383.489257812 254.5 385.239257812 263.5 c 2
 386.19921875 268.5 l 2x7280
 393.979492188 308.5 375.169921875 327.5 328.669921875 327.5 c 2
 223.919921875 327.5 l 1
 185.729492188 131 l 2
 175.249023438 77 197.909179688 47 236.909179688 47 c 2
 307.659179688 47 l 2
 436.659179688 47 486.44921875 74.25 564.01953125 186.5 c 2
 568.1796875 192.5 l 2
 572.479492188 199.25 580.309570312 202.25 587.879882812 197.5 c 2
 603.580078125 188.25 l 2x73
435.689453125 873 m 1
 435.626953125 873 l 1
 526.626953125 873 550.20703125 803.23046875 543.237304688 767.380859375 c 0
 541.307617188 757.380859375 535.337890625 753.55078125 525.337890625 752.390625 c 0
 517.897460938 751.55078125 502.166992188 750.23046875 494.666992188 749.720703125 c 0
 482.657226562 748.73046875 479.247070312 752.100585938 481.077148438 765.060546875 c 0
 485.077148438 801.66015625 465.8671875 824.66015625 426.267578125 824.66015625 c 0
 386.91796875 824.66015625 358.7578125 801.66015625 348.52734375 765.060546875 c 0
 345.077148438 752.100585938 340.607421875 748.73046875 328.997070312 749.720703125 c 0
 321.4375 750.23046875 306.477539062 751.55078125 299.127929688 752.390625 c 0
 289.578125 753.55078125 285.098632812 757.380859375 287.0390625 767.380859375 c 0
 293.999023438 803.23046875 344.939453125 873 435.689453125 873 c 1
EndSplineSet
Substitution2: "'c2sc' Capitals to Small Capitals in Latin lookup 11 subtable" uni0206.sc
AlternateSubs2: "'aalt' Access All Alternates in Latin lookup 0 subtable" uni0206.sc
Position2: "'cpsp' Capital Spacing in Latin lookup 0 subtable" dx=5 dy=0 dh=10 dv=0
EndChar

